# Blender v2.76 (sub 0) OBJ File: 'pinball.blend'
# www.blender.org
mtllib 100Target.mtl
o MicroBumper_Hit_Untitled.051
v -0.094047 1.013538 -0.520499
v -0.100362 1.007223 -0.520510
v -0.102673 0.998597 -0.520514
v -0.100362 0.989971 -0.520510
v -0.094047 0.983657 -0.520499
v -0.085421 0.981345 -0.520484
v -0.076796 0.983657 -0.520470
v -0.070481 0.989971 -0.520458
v -0.068170 0.998597 -0.520454
v -0.070481 1.007223 -0.520458
v -0.076796 1.013538 -0.520470
v -0.085421 1.015849 -0.520484
v -0.094061 1.013538 -0.512480
v -0.100376 1.007223 -0.512491
v -0.102687 0.998597 -0.512495
v -0.100376 0.989971 -0.512491
v -0.094061 0.983657 -0.512480
v -0.085435 0.981345 -0.512465
v -0.076809 0.983657 -0.512450
v -0.070495 0.989971 -0.512439
v -0.068184 0.998597 -0.512435
v -0.070495 1.007223 -0.512439
v -0.076809 1.013538 -0.512450
v -0.085435 1.015849 -0.512465
v -0.085421 0.998597 -0.520484
v -0.085435 0.998597 -0.512465
vt 0.365591 0.567195
vt 0.361927 0.568468
vt 0.360509 0.564387
vt 0.367009 0.571275
vt 0.363344 0.572548
vt 0.368427 0.575356
vt 0.364762 0.576629
vt 0.369844 0.579435
vt 0.366179 0.580708
vt 0.371262 0.583515
vt 0.367597 0.584789
vt 0.372678 0.587596
vt 0.369014 0.588869
vt 0.374097 0.591676
vt 0.370433 0.592950
vt 0.375514 0.595756
vt 0.371851 0.597029
vt 0.359921 0.550874
vt 0.356256 0.552147
vt 0.354839 0.548066
vt 0.361338 0.554954
vt 0.357674 0.556227
vt 0.362755 0.559035
vt 0.359090 0.560308
vt 0.364173 0.563114
vt 0.411918 0.567045
vt 0.415806 0.568927
vt 0.410349 0.575238
vt 0.407611 0.567357
vt 0.404036 0.569783
vt 0.402154 0.573669
vt 0.402467 0.577977
vt 0.404892 0.581552
vt 0.408779 0.583434
vt 0.413086 0.583121
vt 0.416660 0.580696
vt 0.418543 0.576809
vt 0.418230 0.572501
vt 0.397312 0.496950
vt 0.395430 0.500836
vt 0.389116 0.495380
vt 0.391856 0.503262
vt 0.387547 0.503575
vt 0.383661 0.501693
vt 0.381236 0.498119
vt 0.380921 0.493811
vt 0.382804 0.489924
vt 0.386378 0.487498
vt 0.390687 0.487185
vt 0.394573 0.489068
vt 0.396999 0.492641
vt 0.358503 0.546793
vn -0.866000 0.500000 -0.001300
vn -0.500100 0.866000 -0.000700
vn -0.866000 0.500000 -0.001400
vn -1.000000 0.000000 -0.001600
vn -0.866000 -0.500000 -0.001300
vn -0.866000 -0.500000 -0.001400
vn -1.000000 -0.000000 -0.001500
vn -0.500000 -0.866000 -0.000700
vn -0.500100 -0.866000 -0.000800
vn -0.000000 -1.000000 0.000000
vn 0.500000 -0.866000 0.000700
vn 0.500000 -0.866000 0.000800
vn 0.866000 -0.500000 0.001400
vn 0.500100 -0.866000 0.000700
vn 0.866000 -0.500100 0.001300
vn 1.000000 -0.000000 0.001600
vn 0.866000 0.500100 0.001300
vn 1.000000 -0.000000 0.001500
vn 0.866000 0.500000 0.001400
vn 0.500000 0.866000 0.000700
vn 0.000000 1.000000 -0.000000
vn -0.500000 0.866000 -0.000800
vn 0.001700 -0.000000 -1.000000
vn 0.001400 -0.000000 -1.000000
vn -0.001800 -0.000000 1.000000
vn -0.001400 -0.000000 1.000000
vn -0.001700 0.000000 1.000000
vn -0.500000 0.866000 -0.000700
vn -0.500000 -0.866000 -0.000800
usemtl MAT_PinballBoard.013
s 1
f 2/1/1 14/2/1 13/3/2
f 2/1/3 3/4/4 15/5/4
f 4/6/5 16/7/6 15/5/7
f 5/8/8 17/9/9 16/7/5
f 5/8/8 6/10/10 18/11/10
f 6/10/10 7/12/11 19/13/12
f 8/14/13 20/15/13 19/13/14
f 8/14/15 9/16/16 21/17/16
f 10/18/17 22/19/17 21/20/18
f 10/18/19 11/21/20 23/22/20
f 12/23/21 24/24/21 23/22/20
f 1/25/22 13/3/22 24/24/21
f 2/26/23 1/27/23 25/28/23
f 3/29/23 2/26/23 25/28/23
f 4/30/23 3/29/23 25/28/23
f 5/31/23 4/30/23 25/28/23
f 6/32/23 5/31/23 25/28/23
f 7/33/23 6/32/23 25/28/23
f 8/34/23 7/33/23 25/28/23
f 9/35/24 8/34/24 25/28/24
f 10/36/24 9/35/24 25/28/24
f 11/37/23 10/36/23 25/28/23
f 12/38/23 11/37/23 25/28/23
f 1/27/24 12/38/24 25/28/24
f 13/39/25 14/40/25 26/41/25
f 14/40/26 15/42/26 26/41/26
f 15/42/26 16/43/26 26/41/26
f 16/43/26 17/44/25 26/41/25
f 17/44/27 18/45/27 26/41/27
f 18/45/27 19/46/27 26/41/27
f 19/46/27 20/47/27 26/41/27
f 20/47/26 21/48/26 26/41/26
f 21/48/26 22/49/26 26/41/26
f 22/49/27 23/50/27 26/41/27
f 23/50/26 24/51/26 26/41/26
f 24/51/26 13/39/26 26/41/26
f 1/25/28 2/1/1 13/3/2
f 14/2/3 2/1/3 15/5/4
f 3/4/4 4/6/5 15/5/7
f 4/6/6 5/8/8 16/7/5
f 17/9/29 5/8/8 18/11/10
f 18/11/10 6/10/10 19/13/12
f 7/12/14 8/14/13 19/13/14
f 20/15/15 8/14/15 21/17/16
f 9/52/16 10/18/17 21/20/18
f 22/19/19 10/18/19 23/22/20
f 11/21/20 12/23/21 23/22/20
f 12/23/21 1/25/22 24/24/21
