# Blender v2.76 (sub 0) OBJ File: 'pinball.blend'
# www.blender.org
mtllib NormBumper2.mtl
o SingleBumper.004_Untitled.038
v 0.009089 0.979281 -0.505454
v 0.003329 0.979281 -0.511213
v 0.000326 1.016414 -0.506011
v 0.003887 1.016414 -0.502450
v -0.004538 0.979281 -0.513322
v -0.004538 1.016414 -0.507315
v -0.012406 0.979281 -0.511213
v -0.009403 1.016414 -0.506011
v -0.018166 0.979281 -0.505454
v -0.012964 1.016414 -0.502450
v -0.020274 0.979281 -0.497586
v -0.014267 1.016414 -0.497586
v -0.018166 0.979281 -0.489718
v -0.012964 1.016414 -0.492722
v -0.012406 0.979281 -0.483958
v -0.009403 1.016414 -0.489161
v -0.004538 0.979281 -0.481850
v -0.004538 1.016414 -0.487857
v 0.003329 0.979281 -0.483958
v 0.000326 1.016414 -0.489161
v 0.009089 0.979281 -0.489718
v 0.003887 1.016414 -0.492722
v 0.011197 0.979281 -0.497586
v 0.005190 1.016414 -0.497586
v -0.001951 1.021042 -0.502068
v -0.007126 1.021042 -0.502068
v -0.009714 1.021042 -0.497586
v -0.007126 1.021042 -0.493104
v -0.001951 1.021042 -0.493104
v 0.000637 1.021042 -0.497586
v -0.002298 1.022928 -0.501467
v -0.006780 1.022928 -0.501467
v -0.009020 1.022928 -0.497586
v -0.006780 1.022928 -0.493704
v -0.002298 1.022928 -0.493704
v -0.000056 1.022928 -0.497586
v -0.004538 1.024815 -0.497586
v -0.004538 1.021042 -0.492526
v -0.004538 1.022928 -0.493204
v -0.008920 1.021042 -0.495056
v -0.008333 1.022928 -0.495395
v -0.008920 1.021042 -0.500116
v -0.008333 1.022928 -0.499777
v -0.004538 1.021042 -0.502646
v -0.004538 1.022928 -0.501968
v -0.000157 1.021042 -0.500116
v -0.000744 1.022928 -0.499777
v -0.000157 1.021042 -0.495056
v -0.000744 1.022928 -0.495395
v -0.001951 1.021042 -0.440690
v -0.007126 1.021042 -0.440690
v -0.009714 1.021042 -0.436208
v -0.007126 1.021042 -0.431726
v -0.001951 1.021042 -0.431726
v 0.000637 1.021042 -0.436208
v -0.002298 1.022928 -0.440090
v -0.006780 1.022928 -0.440090
v -0.009020 1.022928 -0.436208
v -0.006780 1.022928 -0.432326
v -0.002298 1.022928 -0.432326
v -0.000056 1.022928 -0.436208
v -0.004538 1.024815 -0.436208
v -0.004538 1.021042 -0.431148
v -0.004538 1.022928 -0.431826
v -0.008920 1.021042 -0.433678
v -0.008333 1.022928 -0.434017
v -0.008920 1.021042 -0.438738
v -0.008333 1.022928 -0.438399
v -0.004538 1.021042 -0.441268
v -0.004538 1.022928 -0.440590
v -0.000157 1.021042 -0.438738
v -0.000744 1.022928 -0.438399
v -0.000157 1.021042 -0.433678
v -0.000744 1.022928 -0.434017
v 0.012856 1.021499 -0.498490
v 0.007569 1.021499 -0.511252
v -0.005193 1.021499 -0.516538
v -0.017955 1.021499 -0.511252
v -0.023241 1.021499 -0.498490
v -0.005193 1.021499 -0.498490
v -0.023241 1.021499 -0.433343
v -0.017955 1.021499 -0.420581
v -0.005193 1.021499 -0.415294
v 0.007569 1.021499 -0.420581
v 0.012856 1.021499 -0.433343
v -0.005193 1.021499 -0.433343
v -0.017955 1.014029 -0.511252
v -0.005193 1.014029 -0.498490
v -0.005193 1.014029 -0.516538
v 0.012856 1.014029 -0.498490
v 0.007569 1.014029 -0.511252
v -0.023241 1.014029 -0.498490
v 0.007569 1.014029 -0.420581
v -0.005193 1.014029 -0.433343
v -0.005193 1.014029 -0.415294
v -0.023241 1.014029 -0.433343
v -0.017955 1.014029 -0.420581
v 0.012856 1.014029 -0.433343
v 0.009089 0.979281 -0.444076
v 0.003329 0.979281 -0.449836
v 0.000326 1.016414 -0.444633
v 0.003887 1.016414 -0.441072
v -0.004538 0.979281 -0.451944
v -0.004538 1.016414 -0.445937
v -0.012406 0.979281 -0.449836
v -0.009403 1.016414 -0.444633
v -0.018166 0.979281 -0.444076
v -0.012964 1.016414 -0.441072
v -0.020274 0.979281 -0.436208
v -0.014267 1.016414 -0.436208
v -0.018166 0.979281 -0.428340
v -0.012964 1.016414 -0.431344
v -0.012406 0.979281 -0.422580
v -0.009403 1.016414 -0.427783
v -0.004538 0.979281 -0.420472
v -0.004538 1.016414 -0.426480
v 0.003329 0.979281 -0.422580
v 0.000326 1.016414 -0.427783
v 0.009089 0.979281 -0.428340
v 0.003887 1.016414 -0.431344
v 0.011197 0.979281 -0.436208
v 0.005190 1.016414 -0.436208
v -0.020300 0.989356 -0.432843
v -0.020300 1.002513 -0.432843
v -0.019555 1.002513 -0.502330
v -0.019555 0.989356 -0.502330
v 0.010840 1.002513 -0.500945
v 0.010840 0.989356 -0.500945
v 0.009689 1.002513 -0.429163
v 0.009689 0.989356 -0.429163
v -0.006727 1.002513 -0.419756
v -0.006727 0.989356 -0.419756
v -0.001190 1.002513 -0.514556
v -0.001190 0.989356 -0.514556
v -0.015476 1.002513 -0.424421
v -0.015476 0.989356 -0.424421
v -0.012744 1.002513 -0.511478
v -0.012744 0.989356 -0.511478
v -0.016801 1.002513 -0.433777
v -0.016801 0.989356 -0.433777
v -0.016179 1.002513 -0.501215
v -0.016179 0.989356 -0.501215
v -0.010759 1.002513 -0.508549
v -0.010759 0.989356 -0.508549
v -0.006556 1.002513 -0.423142
v -0.006556 0.989356 -0.423142
v 0.007105 0.989356 -0.430883
v 0.007105 1.002513 -0.430883
v 0.007745 1.002513 -0.499510
v 0.007745 0.989356 -0.499510
v -0.012969 1.002513 -0.427005
v -0.012969 0.989356 -0.427005
v -0.001929 1.002513 -0.511325
v -0.001929 0.989356 -0.511325
v 0.002792 1.002513 -0.421274
v 0.002792 0.989356 -0.421274
v 0.001586 0.989356 -0.423827
v 0.001586 1.002513 -0.423827
v 0.005493 1.002513 -0.510459
v 0.005493 0.989356 -0.510459
v 0.003576 0.989356 -0.508126
v 0.003576 1.002513 -0.508126
vt 0.460314 0.643183
vt 0.478446 0.641698
vt 0.478745 0.644114
vt 0.460156 0.639244
vt 0.478349 0.639267
vt 0.460324 0.635306
vt 0.478452 0.636836
vt 0.460817 0.631397
vt 0.478756 0.634422
vt 0.461633 0.627541
vt 0.479260 0.632041
vt 0.462765 0.623765
vt 0.479960 0.629710
vt 0.464206 0.620098
vt 0.480850 0.627444
vt 0.465945 0.616562
vt 0.481925 0.625260
vt 0.464158 0.658401
vt 0.480819 0.651096
vt 0.481889 0.653284
vt 0.462727 0.654729
vt 0.479936 0.648829
vt 0.461604 0.650952
vt 0.479243 0.646497
vt 0.460798 0.647093
vt 0.456675 0.670104
vt 0.455761 0.670104
vt 0.455499 0.669000
vt 0.455132 0.672778
vt 0.454674 0.671986
vt 0.455499 0.671207
vt 0.452045 0.672778
vt 0.452503 0.671986
vt 0.453588 0.672311
vt 0.450500 0.670104
vt 0.451416 0.670104
vt 0.451676 0.671207
vt 0.452045 0.667429
vt 0.452502 0.668223
vt 0.451676 0.669000
vt 0.455132 0.667430
vt 0.454674 0.668223
vt 0.453588 0.667896
vt 0.453588 0.670104
vt 0.450891 0.668546
vt 0.450891 0.671662
vt 0.453588 0.673218
vt 0.456285 0.671662
vt 0.456285 0.668547
vt 0.453588 0.666990
vt 0.442634 0.650991
vt 0.441719 0.650990
vt 0.441457 0.649887
vt 0.441090 0.653665
vt 0.440632 0.652871
vt 0.441457 0.652094
vt 0.438002 0.653665
vt 0.438461 0.652871
vt 0.439546 0.653196
vt 0.436458 0.650990
vt 0.437374 0.650990
vt 0.437635 0.652094
vt 0.438003 0.648315
vt 0.438461 0.649108
vt 0.437635 0.649887
vt 0.441091 0.648316
vt 0.440632 0.649110
vt 0.439546 0.648784
vt 0.439547 0.650990
vt 0.436850 0.649432
vt 0.436850 0.652548
vt 0.439547 0.654104
vt 0.442242 0.652547
vt 0.442243 0.649434
vt 0.439547 0.647876
vt 0.384142 0.686474
vt 0.381585 0.680303
vt 0.390314 0.680302
vt 0.384142 0.674131
vt 0.390314 0.671574
vt 0.390314 0.689031
vt 0.427996 0.674131
vt 0.430553 0.680304
vt 0.421824 0.680302
vt 0.427995 0.686476
vt 0.421823 0.689031
vt 0.421823 0.671574
vt 0.428420 0.707801
vt 0.422249 0.701629
vt 0.430978 0.701629
vt 0.422249 0.692900
vt 0.428421 0.695456
vt 0.422248 0.710358
vt 0.384568 0.695456
vt 0.390740 0.701628
vt 0.382012 0.701628
vt 0.390740 0.710357
vt 0.384568 0.707800
vt 0.390741 0.692899
vt 0.355090 0.667564
vt 0.355090 0.660882
vt 0.358702 0.660882
vt 0.355090 0.680927
vt 0.355090 0.674246
vt 0.358702 0.674246
vt 0.358702 0.667564
vt 0.355090 0.654200
vt 0.358702 0.654200
vt 0.355090 0.609327
vt 0.355090 0.602645
vt 0.358702 0.602645
vt 0.355090 0.622690
vt 0.355090 0.616008
vt 0.358702 0.616008
vt 0.358702 0.609327
vt 0.355090 0.595964
vt 0.358702 0.595964
vt 0.355090 0.712435
vt 0.358702 0.680927
vt 0.358702 0.622690
vt 0.460856 0.640410
vt 0.479049 0.640440
vt 0.479147 0.642873
vt 0.461025 0.636474
vt 0.479153 0.638009
vt 0.461519 0.632564
vt 0.479458 0.635594
vt 0.462336 0.628709
vt 0.479963 0.633212
vt 0.463468 0.624936
vt 0.480663 0.630878
vt 0.464907 0.621269
vt 0.481553 0.628613
vt 0.466645 0.617733
vt 0.482627 0.626427
vt 0.466582 0.663109
vt 0.464853 0.659569
vt 0.481520 0.652274
vt 0.463424 0.655896
vt 0.480636 0.650005
vt 0.462302 0.652118
vt 0.479943 0.647671
vt 0.461497 0.648259
vt 0.479445 0.645289
vt 0.461013 0.644349
vt 0.369397 0.642661
vt 0.363054 0.643122
vt 0.361307 0.610408
vt 0.369667 0.647486
vt 0.363322 0.647829
vt 0.363530 0.698892
vt 0.363686 0.694434
vt 0.370044 0.694569
vt 0.363538 0.660984
vt 0.363172 0.702916
vt 0.369474 0.703703
vt 0.368951 0.707665
vt 0.369923 0.655995
vt 0.363549 0.656016
vt 0.363511 0.652618
vt 0.362670 0.706550
vt 0.368231 0.711527
vt 0.369890 0.652455
vt 0.375765 0.608642
vt 0.377364 0.642021
vt 0.371014 0.642378
vt 0.377588 0.647124
vt 0.371262 0.647382
vt 0.371206 0.699506
vt 0.371415 0.694956
vt 0.377763 0.695126
vt 0.377778 0.660747
vt 0.370590 0.708022
vt 0.370995 0.703667
vt 0.377284 0.704173
vt 0.377700 0.652455
vt 0.377786 0.655826
vt 0.371361 0.655868
vt 0.369924 0.712481
vt 0.376844 0.708648
vt 0.371376 0.652595
vt 0.377503 0.609096
vt 0.378995 0.641997
vt 0.367669 0.609903
vt 0.369358 0.609036
vt 0.379190 0.647073
vt 0.369895 0.699338
vt 0.379132 0.694855
vt 0.378868 0.699844
vt 0.379338 0.661080
vt 0.369887 0.660992
vt 0.371429 0.660707
vt 0.378781 0.704480
vt 0.378493 0.708716
vt 0.379143 0.652267
vt 0.379204 0.655957
vt 0.378313 0.712748
vt 0.376490 0.713194
vt 0.377590 0.699858
vt 0.465888 0.661942
vt 0.358702 0.712436
vt 0.482588 0.654462
vt 0.361986 0.710261
vn 0.493500 0.159700 -0.855000
vn 0.855000 0.159700 -0.493500
vn 0.000000 0.159700 -0.987200
vn -0.493500 0.159700 -0.855000
vn -0.855000 0.159700 -0.493500
vn -0.855000 0.159700 -0.493400
vn -0.855000 0.159600 -0.493500
vn -0.987200 0.159600 -0.000000
vn -0.987200 0.159700 0.000000
vn -0.855000 0.159600 0.493500
vn -0.855000 0.159700 0.493400
vn -0.855000 0.159700 0.493500
vn -0.493500 0.159700 0.855000
vn 0.000000 0.159600 0.987200
vn -0.000000 0.159700 0.987200
vn 0.493500 0.159600 0.855000
vn 0.493500 0.159700 0.855000
vn 0.855000 0.159600 0.493500
vn 0.855000 0.159700 0.493500
vn 0.987200 0.159600 0.000000
vn 0.987200 0.159700 -0.000000
vn 0.855000 0.159600 -0.493500
vn 0.000000 0.338000 -0.941100
vn 0.000100 0.671700 -0.740900
vn 0.372100 0.667900 -0.644600
vn -0.815000 0.338100 -0.470600
vn -0.641500 0.671800 -0.370400
vn -0.372200 0.667800 -0.644600
vn -0.815000 0.338100 0.470600
vn -0.641600 0.671700 0.370300
vn -0.744300 0.667800 -0.000000
vn 0.000000 0.338100 0.941100
vn 0.000000 0.671700 0.740800
vn -0.372100 0.667900 0.644600
vn 0.815000 0.338100 0.470500
vn 0.641500 0.671800 0.370300
vn 0.372100 0.667800 0.644600
vn 0.815000 0.338200 -0.470600
vn 0.641400 0.671900 -0.370400
vn 0.744300 0.667800 0.000000
vn -0.372100 0.667900 -0.644600
vn -0.000000 1.000000 -0.000000
vn -0.000000 0.671800 -0.740800
vn -0.641500 0.671800 -0.370300
vn -0.372000 0.667900 -0.644600
vn -0.372000 0.667800 0.644700
vn 0.000100 1.000000 0.000100
vn -0.641500 0.671800 0.370300
vn -0.372100 0.667800 0.644600
vn 0.744400 0.667800 0.000000
vn 0.000100 1.000000 -0.000000
vn 0.641500 0.671800 0.370400
vn 0.641500 0.671800 -0.370300
vn 0.469400 0.345000 0.812800
vn 0.372100 0.667900 0.644600
vn -0.469400 0.344900 0.812800
vn -0.938600 0.344900 -0.000000
vn -0.744400 0.667800 -0.000000
vn -0.000000 0.338100 -0.941100
vn -0.469300 0.345000 -0.812800
vn 0.469300 0.345000 -0.812900
vn 0.815000 0.338200 0.470600
vn 0.938700 0.344900 -0.000100
vn -0.000000 0.671800 0.740800
vn -0.641600 0.671800 0.370200
vn -0.000000 1.000000 -0.000100
vn -0.744400 0.667800 -0.000100
vn -0.744400 0.667800 0.000100
vn -0.000000 1.000000 0.000100
vn -0.641500 0.671800 -0.370200
vn 0.000000 0.671700 -0.740800
vn 0.372100 0.667800 -0.644600
vn -0.641500 0.671700 -0.370400
vn -0.372100 0.667800 -0.644600
vn 0.815000 0.338100 0.470600
vn -0.641500 0.671800 0.370400
vn 0.641500 0.671800 -0.370400
vn 0.469300 0.345000 0.812800
vn -0.469400 0.345000 0.812800
vn -0.938600 0.345000 -0.000000
vn -0.469400 0.345000 -0.812800
vn 0.469300 0.345000 -0.812800
vn 0.372000 0.667900 0.644600
vn -0.641500 0.671800 0.370200
vn -0.641600 0.671800 -0.370200
vn 0.000000 -1.000000 0.000000
vn -0.000000 0.000000 -1.000000
vn -0.707100 0.000000 -0.707100
vn 0.997700 0.000000 -0.067600
vn 0.707100 0.000000 -0.707100
vn -0.997700 0.000000 -0.067600
vn -0.000000 0.000000 1.000000
vn 0.707100 0.000000 0.707100
vn -0.997700 0.000000 0.067600
vn -0.707100 0.000000 0.707100
vn 0.997700 0.000000 0.067600
vn 0.493500 0.159600 -0.855000
vn -0.493500 0.159600 -0.855000
vn -0.493400 0.159700 0.855000
vn -0.493500 0.159600 0.855000
vn 1.000000 0.000000 0.009200
vn 0.804200 0.000000 0.594300
vn -0.787700 0.000000 -0.616100
vn -1.000000 0.000000 -0.009300
vn 0.516000 0.000000 -0.856600
vn -0.502400 0.000000 0.864600
vn 0.870300 0.000000 -0.492500
vn 0.299900 0.000000 0.954000
vn -0.998600 -0.000000 0.052200
vn -0.995400 -0.000000 -0.095700
vn -0.995400 -0.000200 -0.095700
vn -0.554200 -0.000000 -0.832400
vn -0.554200 0.000200 -0.832400
vn 0.497200 0.000000 0.867700
vn 0.994900 0.000000 0.100500
vn 0.998700 -0.000000 -0.051500
vn -0.694000 0.000000 0.719900
vn -0.169800 0.000000 0.985500
vn 0.055800 -0.000000 -0.998400
vn 0.749400 -0.000000 -0.662200
vn -0.998600 0.000200 0.052200
vn -0.694000 -0.000100 0.719900
vn 0.055700 -0.000000 -0.998400
vn -0.169700 0.000000 0.985500
vn 0.497200 0.000000 0.867600
vn 0.000000 -1.000000 0.000100
vn -0.083800 0.000000 -0.996500
vn -0.900200 0.000000 0.435600
vn -0.469300 0.344900 -0.812900
vn 0.938700 0.344900 0.000100
vn 0.641400 0.671900 0.370400
vn -0.469400 0.344900 -0.812800
vn -0.469300 0.345100 0.812800
vn 0.000100 0.671700 0.740800
vn 0.000100 0.671800 -0.740800
vn 0.855000 0.159700 0.493400
vn -0.694100 -0.000000 0.719900
usemtl MAT_PinballBoard.026
s 1
f 2/1/1 3/2/1 4/3/2
f 5/4/3 6/5/3 3/2/1
f 7/6/4 8/7/4 6/5/3
f 9/8/5 10/9/6 8/7/4
f 9/8/7 11/10/8 12/11/9
f 13/12/10 14/13/11 12/11/9
f 13/12/12 15/14/13 16/15/13
f 17/16/14 18/17/15 16/15/13
f 19/18/16 20/19/17 18/20/15
f 19/18/16 21/21/18 22/22/19
f 21/21/18 23/23/20 24/24/21
f 1/25/22 4/3/2 24/24/21
f 44/26/23 45/27/24 31/28/25
f 42/29/26 43/30/27 32/31/28
f 40/32/29 41/33/30 33/34/31
f 38/35/32 39/36/33 34/37/34
f 48/38/35 49/39/36 35/40/37
f 46/41/38 47/42/39 36/43/40
f 32/31/41 37/44/42 45/27/43
f 43/30/44 37/44/42 32/31/45
f 34/37/46 37/44/47 41/33/48
f 39/36/33 37/44/42 34/37/49
f 36/43/50 37/44/51 49/39/52
f 47/42/53 37/44/42 36/43/50
f 38/35/32 29/45/54 35/40/55
f 40/32/29 28/46/56 34/37/49
f 42/29/26 27/47/57 33/34/58
f 44/26/59 26/48/60 32/31/41
f 46/41/38 25/49/61 31/28/25
f 48/38/62 30/50/63 36/43/40
f 35/40/37 37/44/42 39/36/64
f 41/33/65 37/44/66 33/34/67
f 31/28/25 37/44/42 47/42/53
f 49/39/36 37/44/42 35/40/55
f 33/34/68 37/44/69 43/30/70
f 45/27/71 37/44/42 31/28/72
f 69/51/59 70/52/71 56/53/72
f 67/54/26 68/55/73 57/56/74
f 65/57/29 66/58/30 58/59/58
f 63/60/32 64/61/33 59/62/34
f 73/63/75 74/64/52 60/65/55
f 71/66/38 72/67/39 61/68/40
f 57/56/74 62/69/42 70/52/43
f 68/55/44 62/69/51 57/56/74
f 59/62/46 62/69/42 66/58/76
f 64/61/64 62/69/42 59/62/49
f 61/68/40 62/69/51 74/64/52
f 72/67/77 62/69/51 61/68/50
f 63/60/32 54/70/78 60/65/37
f 65/57/29 53/71/79 59/62/49
f 67/54/26 52/72/80 58/59/31
f 69/51/59 51/73/81 57/56/41
f 71/66/38 50/74/82 56/53/25
f 73/63/62 55/75/63 61/68/40
f 60/65/83 62/69/42 64/61/64
f 66/58/84 62/69/66 58/59/67
f 56/53/25 62/69/42 72/67/53
f 74/64/36 62/69/42 60/65/55
f 58/59/68 62/69/69 68/55/85
f 70/52/43 62/69/42 56/53/25
f 87/76/86 89/77/86 88/78/86
f 88/78/86 91/79/86 90/80/86
f 88/78/86 89/77/86 91/79/86
f 92/81/86 87/76/86 88/78/86
f 93/82/86 95/83/86 94/84/86
f 94/84/86 97/85/86 96/86/86
f 94/84/86 95/83/86 97/85/86
f 98/87/86 93/82/86 94/84/86
f 98/87/86 94/84/86 88/78/86
f 88/78/86 94/84/86 96/86/86
f 78/88/42 80/89/42 77/90/42
f 80/89/42 75/91/42 76/92/42
f 80/89/42 76/92/42 77/90/42
f 79/93/42 80/89/42 78/88/42
f 84/94/42 86/95/42 83/96/42
f 86/95/42 81/97/42 82/98/42
f 86/95/42 82/98/42 83/96/42
f 85/99/42 86/95/42 84/94/42
f 80/89/42 86/95/42 85/99/42
f 80/89/42 79/93/42 81/97/42
f 89/100/87 87/101/88 78/102/88
f 90/103/89 91/104/90 76/105/90
f 91/104/90 89/100/87 77/106/87
f 87/101/88 92/107/91 79/108/91
f 95/109/92 93/110/93 84/111/93
f 96/112/94 97/113/95 82/114/95
f 97/113/95 95/109/92 83/115/92
f 93/110/93 98/116/96 85/117/96
f 98/118/96 90/103/89 75/119/89
f 92/107/91 96/112/94 81/120/94
f 100/121/97 101/122/1 102/123/2
f 103/124/3 104/125/3 101/122/1
f 103/124/3 105/126/98 106/127/4
f 105/126/98 107/128/5 108/129/6
f 107/128/7 109/130/8 110/131/9
f 111/132/10 112/133/12 110/131/9
f 113/134/99 114/135/13 112/133/12
f 113/136/100 115/137/15 116/138/15
f 115/137/15 117/139/16 118/140/17
f 117/139/16 119/141/18 120/142/19
f 119/141/18 121/143/20 122/144/21
f 99/145/22 102/123/2 122/144/21
f 142/146/101 141/147/101 139/148/101
f 144/149/102 143/150/102 141/147/102
f 158/151/103 148/152/103 147/153/103
f 147/153/104 148/152/104 149/154/104
f 145/155/105 146/156/105 152/157/105
f 161/158/106 162/159/106 153/160/106
f 151/161/107 152/157/107 140/162/107
f 154/163/108 153/160/108 143/150/108
f 124/164/109 125/165/110 126/166/110
f 125/165/111 137/167/112 138/168/113
f 156/169/114 130/170/115 129/171/115
f 127/172/116 129/171/115 130/170/115
f 136/173/117 132/174/118 131/175/118
f 133/176/119 159/177/120 160/178/120
f 123/179/121 136/173/117 135/180/122
f 137/167/112 133/176/123 134/181/119
f 124/164/42 139/182/42 141/183/42
f 142/146/86 140/184/86 123/185/86
f 125/165/42 141/183/42 143/186/42
f 144/149/86 142/146/86 126/166/86
f 157/187/86 147/153/86 130/170/86
f 129/171/42 148/188/42 158/189/42
f 127/172/42 149/190/42 148/188/42
f 147/153/86 150/191/86 128/192/86
f 136/173/86 152/157/86 146/156/86
f 145/193/42 151/194/42 135/180/42
f 153/195/42 162/196/42 159/177/42
f 160/178/86 161/158/86 154/163/86
f 123/179/86 140/162/86 152/157/86
f 151/194/42 139/197/42 124/198/42
f 137/167/42 143/186/42 153/195/42
f 154/163/86 144/149/86 138/168/86
f 132/174/124 156/169/125 155/199/125
f 132/174/126 146/156/126 157/187/86
f 158/151/127 157/187/127 146/156/127
f 158/189/69 145/193/42 131/175/42
f 159/177/120 127/172/116 128/192/116
f 128/192/86 150/191/86 161/158/86
f 161/158/128 150/191/128 149/154/128
f 162/196/42 149/190/42 127/172/42
f 1/25/2 2/1/1 4/3/2
f 2/1/1 5/4/3 3/2/1
f 5/4/3 7/6/4 6/5/3
f 7/6/98 9/8/5 8/7/4
f 10/9/6 9/8/7 12/11/9
f 11/10/8 13/12/10 12/11/9
f 14/13/12 13/12/12 16/15/13
f 15/14/100 17/16/14 16/15/13
f 17/200/15 19/18/16 18/20/15
f 20/19/17 19/18/16 22/22/19
f 22/22/19 21/21/18 24/24/21
f 23/23/20 1/25/22 24/24/21
f 25/49/82 44/26/23 31/28/25
f 26/48/129 42/29/26 32/31/28
f 27/47/57 40/32/29 33/34/31
f 28/46/79 38/35/32 34/37/34
f 29/45/54 48/38/35 35/40/37
f 30/50/130 46/41/38 36/43/40
f 39/36/33 38/35/32 35/40/55
f 41/33/48 40/32/29 34/37/49
f 43/30/27 42/29/26 33/34/58
f 45/27/71 44/26/59 32/31/41
f 47/42/53 46/41/38 31/28/25
f 49/39/131 48/38/62 36/43/40
f 50/74/82 69/51/59 56/53/72
f 51/73/132 67/54/26 57/56/74
f 52/72/57 65/57/29 58/59/58
f 53/71/133 63/60/32 59/62/34
f 54/70/54 73/63/75 60/65/55
f 55/75/130 71/66/38 61/68/40
f 64/61/134 63/60/32 60/65/37
f 66/58/48 65/57/29 59/62/49
f 68/55/27 67/54/26 58/59/31
f 70/52/135 69/51/59 57/56/41
f 72/67/53 71/66/38 56/53/25
f 74/64/52 73/63/62 61/68/40
f 90/80/86 98/87/86 88/78/86
f 92/81/86 88/78/86 96/86/86
f 75/91/42 80/89/42 85/99/42
f 86/95/42 80/89/42 81/97/42
f 77/106/87 89/100/87 78/102/88
f 75/119/89 90/103/89 76/105/90
f 76/105/90 91/104/90 77/106/87
f 78/102/88 87/101/88 79/108/91
f 83/115/92 95/109/92 84/111/93
f 81/120/94 96/112/94 82/114/95
f 82/114/95 97/113/95 83/115/92
f 84/111/93 93/110/93 85/117/96
f 85/201/96 98/118/96 75/119/89
f 79/108/91 92/107/91 81/120/94
f 99/145/22 100/121/97 102/123/2
f 100/121/97 103/124/3 101/122/1
f 104/125/3 103/124/3 106/127/4
f 106/127/4 105/126/98 108/129/6
f 108/129/6 107/128/7 110/131/9
f 109/130/8 111/132/10 110/131/9
f 111/132/12 113/134/99 112/133/12
f 114/202/13 113/136/100 116/138/15
f 116/138/15 115/137/15 118/140/17
f 118/140/17 117/139/16 120/142/19
f 120/142/136 119/141/18 122/144/21
f 121/143/20 99/145/22 122/144/21
f 140/184/101 142/146/101 139/148/101
f 142/146/102 144/149/102 141/147/102
f 157/187/103 158/151/103 147/153/103
f 150/191/104 147/153/104 149/154/104
f 151/161/105 145/155/105 152/157/105
f 154/163/106 161/158/106 153/160/106
f 139/203/107 151/161/107 140/162/107
f 144/149/108 154/163/108 143/150/108
f 123/185/109 124/164/109 126/166/110
f 126/166/110 125/165/111 138/168/113
f 155/199/114 156/169/114 129/171/115
f 128/192/116 127/172/116 130/170/115
f 135/180/137 136/173/117 131/175/118
f 134/181/119 133/176/119 160/178/120
f 124/198/109 123/179/121 135/180/122
f 138/168/112 137/167/112 134/181/119
f 125/165/42 124/164/42 141/183/42
f 126/166/86 142/146/86 123/185/86
f 137/167/42 125/165/42 143/186/42
f 138/168/86 144/149/86 126/166/86
f 156/169/86 157/187/86 130/170/86
f 155/199/42 129/171/42 158/189/42
f 129/171/42 127/172/42 148/188/42
f 130/170/86 147/153/86 128/192/86
f 132/174/86 136/173/86 146/156/86
f 131/175/42 145/193/42 135/180/42
f 133/176/42 153/195/42 159/177/42
f 134/181/86 160/178/86 154/163/86
f 136/173/86 123/179/86 152/157/86
f 135/180/42 151/194/42 124/198/42
f 133/176/42 137/167/42 153/195/42
f 134/181/86 154/163/86 138/168/86
f 131/175/124 132/174/124 155/199/125
f 156/169/86 132/174/126 157/187/86
f 145/155/127 158/151/127 146/156/127
f 155/199/69 158/189/69 131/175/42
f 160/178/120 159/177/120 128/192/116
f 160/178/86 128/192/86 161/158/86
f 162/159/128 161/158/128 149/154/128
f 159/177/42 162/196/42 127/172/42
