# Blender v2.76 (sub 0) OBJ File: 'pinball.blend'
# www.blender.org
mtllib NormBumper1.mtl
o SingleBumper.003_Untitled.036
v -0.153351 0.978688 -0.510676
v -0.159111 0.978688 -0.516435
v -0.162115 1.015821 -0.511233
v -0.158554 1.015821 -0.507672
v -0.166979 0.978688 -0.518544
v -0.166979 1.015821 -0.512537
v -0.174847 0.978688 -0.516435
v -0.171843 1.015821 -0.511233
v -0.180607 0.978688 -0.510676
v -0.175404 1.015821 -0.507672
v -0.182715 0.978688 -0.502808
v -0.176707 1.015821 -0.502808
v -0.180607 0.978688 -0.494940
v -0.175404 1.015821 -0.497944
v -0.174847 0.978688 -0.489180
v -0.171843 1.015821 -0.494383
v -0.166979 0.978688 -0.487072
v -0.166979 1.015821 -0.493079
v -0.159111 0.978688 -0.489180
v -0.162115 1.015821 -0.494383
v -0.153351 0.978688 -0.494940
v -0.158554 1.015821 -0.497944
v -0.151243 0.978688 -0.502808
v -0.157251 1.015821 -0.502808
v -0.164391 1.020450 -0.507290
v -0.169567 1.020450 -0.507290
v -0.172155 1.020450 -0.502808
v -0.169567 1.020450 -0.498326
v -0.164391 1.020450 -0.498326
v -0.161804 1.020450 -0.502808
v -0.164738 1.022336 -0.506689
v -0.169220 1.022336 -0.506689
v -0.171461 1.022336 -0.502808
v -0.169220 1.022336 -0.498926
v -0.164738 1.022336 -0.498926
v -0.162497 1.022336 -0.502808
v -0.166979 1.024222 -0.502808
v -0.166979 1.020450 -0.497748
v -0.166979 1.022336 -0.498426
v -0.171361 1.020450 -0.500278
v -0.170774 1.022336 -0.500617
v -0.171361 1.020450 -0.505338
v -0.170774 1.022336 -0.504999
v -0.166979 1.020450 -0.507868
v -0.166979 1.022336 -0.507190
v -0.162597 1.020450 -0.505338
v -0.163184 1.022336 -0.504999
v -0.162597 1.020450 -0.500278
v -0.163184 1.022336 -0.500617
v -0.164391 1.020450 -0.445912
v -0.169567 1.020450 -0.445912
v -0.172155 1.020450 -0.441430
v -0.169567 1.020450 -0.436948
v -0.164391 1.020450 -0.436948
v -0.161804 1.020450 -0.441430
v -0.164738 1.022336 -0.445312
v -0.169220 1.022336 -0.445312
v -0.171461 1.022336 -0.441430
v -0.169220 1.022336 -0.437549
v -0.164738 1.022336 -0.437549
v -0.162497 1.022336 -0.441430
v -0.166979 1.024222 -0.441430
v -0.166979 1.020450 -0.436370
v -0.166979 1.022336 -0.437048
v -0.171361 1.020450 -0.438900
v -0.170774 1.022336 -0.439239
v -0.171361 1.020450 -0.443960
v -0.170774 1.022336 -0.443621
v -0.166979 1.020450 -0.446490
v -0.166979 1.022336 -0.445812
v -0.162597 1.020450 -0.443960
v -0.163184 1.022336 -0.443621
v -0.162597 1.020450 -0.438900
v -0.163184 1.022336 -0.439239
v -0.149585 1.020906 -0.503712
v -0.154871 1.020906 -0.516474
v -0.167633 1.020906 -0.521760
v -0.180395 1.020906 -0.516474
v -0.185681 1.020906 -0.503712
v -0.167633 1.020906 -0.503712
v -0.185681 1.020906 -0.438565
v -0.180395 1.020906 -0.425803
v -0.167633 1.020906 -0.420517
v -0.154871 1.020906 -0.425803
v -0.149585 1.020906 -0.438565
v -0.167633 1.020906 -0.438565
v -0.180395 1.013436 -0.516474
v -0.167633 1.013436 -0.503712
v -0.167633 1.013436 -0.521760
v -0.149585 1.013436 -0.503712
v -0.154871 1.013436 -0.516474
v -0.185681 1.013436 -0.503712
v -0.154871 1.013436 -0.425803
v -0.167633 1.013436 -0.438565
v -0.167633 1.013436 -0.420517
v -0.185681 1.013436 -0.438565
v -0.180395 1.013436 -0.425803
v -0.149585 1.013436 -0.438565
v -0.153351 0.978688 -0.449298
v -0.159111 0.978688 -0.455058
v -0.162115 1.015821 -0.449855
v -0.158554 1.015821 -0.446294
v -0.166979 0.978688 -0.457166
v -0.166979 1.015821 -0.451159
v -0.174847 0.978688 -0.455058
v -0.171843 1.015821 -0.449855
v -0.180607 0.978688 -0.449298
v -0.175404 1.015821 -0.446294
v -0.182715 0.978688 -0.441430
v -0.176707 1.015821 -0.441430
v -0.180607 0.978688 -0.433562
v -0.175404 1.015821 -0.436566
v -0.174847 0.978688 -0.427803
v -0.171843 1.015821 -0.433005
v -0.166979 0.978688 -0.425694
v -0.166979 1.015821 -0.431702
v -0.159111 0.978688 -0.427803
v -0.162115 1.015821 -0.433005
v -0.153351 0.978688 -0.433562
v -0.158554 1.015821 -0.436566
v -0.151243 0.978688 -0.441430
v -0.157251 1.015821 -0.441430
v -0.182741 0.988763 -0.438065
v -0.182741 1.001921 -0.438065
v -0.181996 1.001921 -0.507552
v -0.181996 0.988763 -0.507552
v -0.151600 1.001921 -0.506167
v -0.151600 0.988763 -0.506167
v -0.152752 1.001921 -0.434386
v -0.152752 0.988763 -0.434386
v -0.169168 1.001921 -0.424978
v -0.169168 0.988763 -0.424978
v -0.163630 1.001921 -0.519778
v -0.163630 0.988763 -0.519778
v -0.177917 1.001921 -0.429643
v -0.177917 0.988763 -0.429643
v -0.175185 1.001921 -0.516700
v -0.175185 0.988763 -0.516700
v -0.179241 1.001921 -0.438999
v -0.179241 0.988763 -0.438999
v -0.178620 1.001921 -0.506437
v -0.178620 0.988763 -0.506437
v -0.173200 1.001921 -0.513771
v -0.173200 0.988763 -0.513771
v -0.168996 1.001921 -0.428364
v -0.168996 0.988763 -0.428364
v -0.155336 0.988763 -0.436105
v -0.155336 1.001921 -0.436105
v -0.154695 1.001921 -0.504732
v -0.154695 0.988763 -0.504732
v -0.175410 1.001921 -0.432227
v -0.175410 0.988763 -0.432227
v -0.164370 1.001921 -0.516547
v -0.164370 0.988763 -0.516547
v -0.159648 1.001921 -0.426496
v -0.159648 0.988763 -0.426496
v -0.160855 0.988763 -0.429049
v -0.160855 1.001921 -0.429049
v -0.156947 1.001921 -0.515681
v -0.156947 0.988763 -0.515681
v -0.158865 0.988763 -0.513348
v -0.158865 1.001921 -0.513348
vt 0.460798 0.647093
vt 0.460314 0.643183
vt 0.478446 0.641698
vt 0.460156 0.639244
vt 0.478349 0.639267
vt 0.460324 0.635306
vt 0.478452 0.636836
vt 0.460817 0.631397
vt 0.478756 0.634422
vt 0.461633 0.627541
vt 0.479260 0.632041
vt 0.462765 0.623765
vt 0.479960 0.629710
vt 0.464206 0.620098
vt 0.480850 0.627444
vt 0.465945 0.616562
vt 0.481925 0.625260
vt 0.464158 0.658401
vt 0.480819 0.651096
vt 0.481889 0.653284
vt 0.462727 0.654729
vt 0.479936 0.648829
vt 0.461604 0.650952
vt 0.479243 0.646497
vt 0.478745 0.644114
vt 0.456675 0.670104
vt 0.455761 0.670104
vt 0.455499 0.669000
vt 0.455132 0.672778
vt 0.454674 0.671986
vt 0.455499 0.671207
vt 0.452045 0.672778
vt 0.452503 0.671986
vt 0.453588 0.672311
vt 0.450500 0.670104
vt 0.451416 0.670104
vt 0.451676 0.671207
vt 0.452045 0.667429
vt 0.452502 0.668223
vt 0.451676 0.669000
vt 0.455132 0.667430
vt 0.454674 0.668223
vt 0.453588 0.667896
vt 0.453588 0.670104
vt 0.450891 0.668546
vt 0.450891 0.671662
vt 0.453588 0.673218
vt 0.456285 0.671662
vt 0.456285 0.668547
vt 0.453588 0.666990
vt 0.442634 0.650991
vt 0.441719 0.650990
vt 0.441457 0.649887
vt 0.441090 0.653665
vt 0.440632 0.652871
vt 0.441457 0.652094
vt 0.438002 0.653665
vt 0.438461 0.652871
vt 0.439546 0.653196
vt 0.436458 0.650990
vt 0.437374 0.650990
vt 0.437635 0.652094
vt 0.438003 0.648315
vt 0.438461 0.649108
vt 0.437635 0.649887
vt 0.441091 0.648316
vt 0.440632 0.649110
vt 0.439546 0.648784
vt 0.439547 0.650990
vt 0.436850 0.649432
vt 0.436850 0.652548
vt 0.439547 0.654104
vt 0.442242 0.652547
vt 0.442243 0.649434
vt 0.439547 0.647876
vt 0.384142 0.686474
vt 0.381585 0.680303
vt 0.390314 0.680302
vt 0.384142 0.674131
vt 0.390314 0.671574
vt 0.390314 0.689031
vt 0.427996 0.674131
vt 0.430553 0.680304
vt 0.421824 0.680302
vt 0.427995 0.686476
vt 0.421823 0.689031
vt 0.421823 0.671574
vt 0.428420 0.707801
vt 0.422249 0.701629
vt 0.430978 0.701629
vt 0.422249 0.692900
vt 0.428421 0.695456
vt 0.422248 0.710358
vt 0.384568 0.695456
vt 0.390740 0.701628
vt 0.382012 0.701628
vt 0.390740 0.710357
vt 0.384568 0.707800
vt 0.390741 0.692899
vt 0.355090 0.667564
vt 0.355090 0.660882
vt 0.358702 0.660882
vt 0.355090 0.680927
vt 0.355090 0.674246
vt 0.358702 0.674246
vt 0.358702 0.667564
vt 0.355090 0.654200
vt 0.358702 0.654200
vt 0.355090 0.609327
vt 0.355090 0.602645
vt 0.358702 0.602645
vt 0.355090 0.622690
vt 0.355090 0.616008
vt 0.358702 0.616008
vt 0.358702 0.609327
vt 0.355090 0.595964
vt 0.358702 0.595964
vt 0.355090 0.712435
vt 0.358702 0.680927
vt 0.358702 0.622690
vt 0.460856 0.640410
vt 0.479049 0.640440
vt 0.479147 0.642873
vt 0.461025 0.636474
vt 0.479153 0.638009
vt 0.461519 0.632564
vt 0.479458 0.635594
vt 0.462336 0.628709
vt 0.479963 0.633212
vt 0.463468 0.624936
vt 0.480663 0.630878
vt 0.464907 0.621269
vt 0.481553 0.628613
vt 0.466645 0.617733
vt 0.482627 0.626427
vt 0.464853 0.659569
vt 0.481520 0.652274
vt 0.482588 0.654462
vt 0.463424 0.655896
vt 0.480636 0.650005
vt 0.462302 0.652118
vt 0.479943 0.647671
vt 0.461497 0.648259
vt 0.479445 0.645289
vt 0.461013 0.644349
vt 0.369397 0.642661
vt 0.363054 0.643122
vt 0.361307 0.610408
vt 0.369667 0.647486
vt 0.363322 0.647829
vt 0.363530 0.698892
vt 0.363686 0.694434
vt 0.370044 0.694569
vt 0.363538 0.660984
vt 0.363172 0.702916
vt 0.369474 0.703703
vt 0.368951 0.707665
vt 0.369923 0.655995
vt 0.363549 0.656016
vt 0.363511 0.652618
vt 0.362670 0.706550
vt 0.368231 0.711527
vt 0.369890 0.652455
vt 0.375765 0.608642
vt 0.377364 0.642021
vt 0.371014 0.642378
vt 0.377588 0.647124
vt 0.371262 0.647382
vt 0.371206 0.699506
vt 0.371415 0.694956
vt 0.377763 0.695126
vt 0.377778 0.660747
vt 0.370590 0.708022
vt 0.370995 0.703667
vt 0.377284 0.704173
vt 0.377700 0.652455
vt 0.377786 0.655826
vt 0.371361 0.655868
vt 0.369924 0.712481
vt 0.376844 0.708648
vt 0.371376 0.652595
vt 0.377503 0.609096
vt 0.378995 0.641997
vt 0.367669 0.609903
vt 0.369358 0.609036
vt 0.379190 0.647073
vt 0.369895 0.699338
vt 0.379132 0.694855
vt 0.378868 0.699844
vt 0.379338 0.661080
vt 0.369887 0.660992
vt 0.371429 0.660707
vt 0.378781 0.704480
vt 0.378493 0.708716
vt 0.379143 0.652267
vt 0.379204 0.655957
vt 0.378313 0.712748
vt 0.376490 0.713194
vt 0.377590 0.699858
vt 0.465888 0.661942
vt 0.358702 0.712436
vt 0.466582 0.663109
vt 0.361986 0.710261
vn 0.855000 0.159700 -0.493500
vn 0.493500 0.159700 -0.855000
vn -0.000000 0.159700 -0.987200
vn -0.493500 0.159700 -0.855000
vn -0.855000 0.159700 -0.493500
vn -0.855000 0.159600 -0.493500
vn -0.987200 0.159600 -0.000000
vn -0.987200 0.159700 0.000000
vn -0.855000 0.159600 0.493500
vn -0.855000 0.159700 0.493400
vn -0.855000 0.159700 0.493500
vn -0.493500 0.159700 0.855000
vn -0.493500 0.159600 0.855000
vn 0.000000 0.159600 0.987200
vn -0.000000 0.159700 0.987200
vn 0.493500 0.159600 0.855000
vn 0.493500 0.159700 0.855000
vn 0.855000 0.159600 0.493500
vn 0.855000 0.159700 0.493500
vn 0.987200 0.159600 0.000000
vn 0.987200 0.159700 -0.000000
vn 0.855000 0.159600 -0.493500
vn 0.855000 0.159700 -0.493400
vn 0.000000 0.338000 -0.941100
vn 0.000100 0.671600 -0.740900
vn 0.372100 0.667900 -0.644600
vn -0.815000 0.338100 -0.470600
vn -0.641500 0.671800 -0.370400
vn -0.372200 0.667800 -0.644600
vn -0.815000 0.338100 0.470600
vn -0.641600 0.671700 0.370300
vn -0.744300 0.667800 -0.000000
vn 0.000000 0.338100 0.941100
vn -0.000000 0.671800 0.740800
vn -0.372100 0.667900 0.644600
vn 0.815000 0.338100 0.470600
vn 0.641500 0.671800 0.370300
vn 0.372100 0.667800 0.644600
vn 0.815000 0.338200 -0.470600
vn 0.641400 0.671900 -0.370400
vn 0.744300 0.667800 0.000000
vn -0.372100 0.667900 -0.644600
vn 0.000000 1.000000 -0.000000
vn -0.000000 0.671800 -0.740800
vn -0.641500 0.671800 -0.370300
vn 0.000000 1.000000 0.000100
vn -0.372000 0.667900 -0.644600
vn -0.372100 0.667800 0.644600
vn 0.000100 1.000000 0.000100
vn -0.641500 0.671800 0.370300
vn -0.000000 0.671700 0.740800
vn 0.000100 1.000000 -0.000000
vn 0.641500 0.671800 0.370400
vn 0.641600 0.671800 -0.370300
vn 0.744400 0.667800 -0.000000
vn 0.469300 0.345000 0.812800
vn 0.372100 0.667900 0.644600
vn -0.469400 0.344900 0.812800
vn -0.938600 0.344900 -0.000000
vn -0.744400 0.667800 -0.000000
vn -0.000000 0.338100 -0.941100
vn -0.469300 0.345000 -0.812900
vn 0.469300 0.345000 -0.812900
vn 0.815000 0.338200 0.470600
vn 0.938700 0.344900 -0.000100
vn 0.641500 0.671800 -0.370300
vn 0.000000 0.671700 -0.740800
vn 0.372100 0.667800 -0.644600
vn -0.641500 0.671700 -0.370400
vn -0.372100 0.667800 -0.644600
vn 0.815000 0.338100 -0.470600
vn -0.372000 0.667800 0.644700
vn -0.641500 0.671800 0.370400
vn 0.641500 0.671800 -0.370400
vn -0.000000 0.338000 0.941100
vn 0.469300 0.345000 0.812900
vn -0.469400 0.345000 0.812800
vn -0.938600 0.345000 -0.000000
vn -0.469400 0.345000 -0.812800
vn 0.469300 0.345000 -0.812800
vn 0.938700 0.344900 -0.000000
vn -0.744400 0.667800 0.000100
vn 0.000000 -1.000000 -0.000000
vn -0.000000 0.000000 -1.000000
vn -0.707100 0.000000 -0.707100
vn 0.997700 0.000000 -0.067600
vn 0.707100 0.000000 -0.707100
vn -0.997700 0.000000 -0.067600
vn -0.000000 0.000000 1.000000
vn 0.707100 0.000000 0.707100
vn -0.997700 0.000000 0.067600
vn -0.707100 0.000000 0.707100
vn 0.997700 0.000000 0.067600
vn 0.493500 0.159600 -0.855000
vn -0.493500 0.159600 -0.855000
vn -0.855000 0.159700 -0.493400
vn -0.493400 0.159700 0.855000
vn 1.000000 0.000000 0.009200
vn 0.804200 0.000000 0.594300
vn -0.787700 0.000000 -0.616100
vn -1.000000 0.000000 -0.009300
vn 0.516000 0.000000 -0.856600
vn -0.502400 0.000000 0.864600
vn 0.870300 0.000000 -0.492500
vn 0.300000 0.000000 0.954000
vn 0.299900 0.000000 0.954000
vn -0.998600 -0.000000 0.052200
vn -0.995400 -0.000000 -0.095700
vn -0.995400 -0.000200 -0.095700
vn -0.554200 -0.000000 -0.832400
vn -0.554200 0.000200 -0.832400
vn 0.497200 0.000000 0.867700
vn 0.994900 0.000000 0.100500
vn 0.998700 -0.000000 -0.051500
vn -0.694000 0.000000 0.719900
vn -0.169800 0.000000 0.985500
vn 0.055700 -0.000000 -0.998400
vn 0.749400 -0.000000 -0.662200
vn -0.998600 0.000200 0.052200
vn -0.694000 -0.000100 0.719900
vn 0.055800 -0.000000 -0.998400
vn 0.000000 -1.000000 -0.000100
vn -0.169700 0.000000 0.985500
vn 0.497200 0.000000 0.867600
vn 0.000000 -1.000000 0.000100
vn -0.083800 0.000000 -0.996500
vn -0.900200 0.000000 0.435600
vn 0.855000 0.159700 0.493400
vn -0.469300 0.344900 -0.812900
vn -0.469300 0.345000 0.812800
vn 0.469400 0.345000 0.812800
vn 0.938700 0.344900 0.000100
vn 0.641400 0.671900 0.370400
vn -0.469400 0.344900 -0.812800
vn -0.641600 0.671800 -0.370300
vn 0.000000 0.671800 -0.740700
vn 0.000000 1.000000 -0.000100
usemtl MAT_PinballBoard.026
s 1
f 1/1/1 2/2/2 3/3/2
f 5/4/3 6/5/3 3/3/2
f 5/4/3 7/6/4 8/7/4
f 9/8/5 10/9/5 8/7/4
f 9/8/6 11/10/7 12/11/8
f 11/10/7 13/12/9 14/13/10
f 13/12/11 15/14/12 16/15/12
f 15/14/13 17/16/14 18/17/15
f 19/18/16 20/19/17 18/20/15
f 19/18/16 21/21/18 22/22/19
f 21/21/18 23/23/20 24/24/21
f 1/1/22 4/25/23 24/24/21
f 44/26/24 45/27/25 31/28/26
f 42/29/27 43/30/28 32/31/29
f 40/32/30 41/33/31 33/34/32
f 38/35/33 39/36/34 34/37/35
f 48/38/36 49/39/37 35/40/38
f 46/41/39 47/42/40 36/43/41
f 32/31/42 37/44/43 45/27/44
f 43/30/45 37/44/46 32/31/47
f 34/37/48 37/44/49 41/33/50
f 39/36/51 37/44/43 34/37/48
f 36/43/41 37/44/52 49/39/53
f 47/42/54 37/44/43 36/43/55
f 38/35/33 29/45/56 35/40/57
f 40/32/30 28/46/58 34/37/48
f 42/29/27 27/47/59 33/34/60
f 44/26/61 26/48/62 32/31/42
f 46/41/39 25/49/63 31/28/26
f 48/38/64 30/50/65 36/43/41
f 35/40/38 37/44/43 39/36/34
f 41/33/50 37/44/43 33/34/32
f 31/28/26 37/44/43 47/42/66
f 49/39/37 37/44/43 35/40/57
f 33/34/60 37/44/43 43/30/45
f 45/27/67 37/44/43 31/28/68
f 69/51/24 70/52/67 56/53/68
f 67/54/27 68/55/69 57/56/70
f 65/57/30 66/58/31 58/59/32
f 63/60/33 64/61/34 59/62/35
f 73/63/36 74/64/53 60/65/57
f 71/66/71 72/67/66 61/68/41
f 57/56/70 62/69/43 70/52/44
f 68/55/45 62/69/52 57/56/42
f 59/62/72 62/69/43 66/58/73
f 64/61/34 62/69/43 59/62/48
f 61/68/41 62/69/52 74/64/53
f 72/67/74 62/69/52 61/68/55
f 63/60/75 54/70/76 60/65/38
f 65/57/30 53/71/77 59/62/48
f 67/54/27 52/72/78 58/59/32
f 69/51/61 51/73/79 57/56/42
f 71/66/39 50/74/80 56/53/26
f 73/63/64 55/75/81 61/68/41
f 60/65/57 62/69/43 64/61/34
f 66/58/50 62/69/43 58/59/32
f 56/53/26 62/69/43 72/67/66
f 74/64/37 62/69/43 60/65/57
f 58/59/82 62/69/43 68/55/45
f 70/52/44 62/69/43 56/53/26
f 87/76/83 89/77/83 88/78/83
f 88/78/83 91/79/83 90/80/83
f 88/78/83 89/77/83 91/79/83
f 92/81/83 87/76/83 88/78/83
f 93/82/83 95/83/83 94/84/83
f 94/84/83 97/85/83 96/86/83
f 94/84/83 95/83/83 97/85/83
f 98/87/83 93/82/83 94/84/83
f 98/87/83 94/84/83 88/78/83
f 88/78/83 94/84/83 96/86/83
f 78/88/43 80/89/43 77/90/43
f 80/89/43 75/91/43 76/92/43
f 80/89/43 76/92/43 77/90/43
f 79/93/43 80/89/43 78/88/43
f 84/94/43 86/95/43 83/96/43
f 86/95/43 81/97/43 82/98/43
f 86/95/43 82/98/43 83/96/43
f 85/99/43 86/95/43 84/94/43
f 80/89/43 86/95/43 85/99/43
f 80/89/43 79/93/43 81/97/43
f 89/100/84 87/101/85 78/102/85
f 90/103/86 91/104/87 76/105/87
f 91/104/87 89/100/84 77/106/84
f 87/101/85 92/107/88 79/108/88
f 95/109/89 93/110/90 84/111/90
f 96/112/91 97/113/92 82/114/92
f 97/113/92 95/109/89 83/115/89
f 93/110/90 98/116/93 85/117/93
f 98/118/93 90/103/86 75/119/86
f 92/107/88 96/112/91 81/120/91
f 100/121/94 101/122/2 102/123/1
f 100/121/94 103/124/3 104/125/3
f 103/124/3 105/126/95 106/127/4
f 107/128/5 108/129/96 106/127/4
f 107/128/6 109/130/7 110/131/8
f 109/130/7 111/132/9 112/133/11
f 113/134/97 114/135/97 112/133/11
f 115/136/15 116/137/15 114/138/12
f 115/136/15 117/139/16 118/140/17
f 117/139/16 119/141/18 120/142/19
f 119/141/18 121/143/20 122/144/21
f 99/145/22 102/123/23 122/144/21
f 142/146/98 141/147/98 139/148/98
f 144/149/99 143/150/99 141/147/99
f 158/151/100 148/152/100 147/153/100
f 147/153/101 148/152/101 149/154/101
f 145/155/102 146/156/102 152/157/102
f 161/158/103 162/159/103 153/160/103
f 151/161/104 152/157/104 140/162/104
f 154/163/105 153/160/106 143/150/106
f 124/164/107 125/165/108 126/166/108
f 125/165/109 137/167/110 138/168/111
f 156/169/112 130/170/113 129/171/113
f 127/172/114 129/171/113 130/170/113
f 136/173/115 132/174/116 131/175/116
f 133/176/117 159/177/118 160/178/118
f 123/179/119 136/173/115 135/180/120
f 137/167/110 133/176/121 134/181/121
f 124/164/43 139/182/43 141/183/43
f 142/146/83 140/184/83 123/185/83
f 125/165/43 141/183/43 143/186/43
f 144/149/83 142/146/83 126/166/83
f 157/187/122 147/153/83 130/170/83
f 129/171/43 148/188/43 158/189/43
f 127/172/43 149/190/43 148/188/43
f 147/153/83 150/191/83 128/192/83
f 136/173/83 152/157/83 146/156/83
f 145/193/43 151/194/43 135/180/43
f 153/195/43 162/196/43 159/177/43
f 160/178/83 161/158/83 154/163/83
f 123/179/83 140/162/83 152/157/83
f 151/194/43 139/197/43 124/198/43
f 137/167/43 143/186/43 153/195/43
f 154/163/83 144/149/83 138/168/83
f 132/174/123 156/169/124 155/199/124
f 132/174/83 146/156/83 157/187/125
f 158/151/126 157/187/126 146/156/126
f 158/189/43 145/193/43 131/175/43
f 159/177/118 127/172/114 128/192/114
f 128/192/83 150/191/83 161/158/83
f 161/158/127 150/191/127 149/154/127
f 162/196/43 149/190/43 127/172/43
f 4/25/1 1/1/1 3/3/2
f 2/2/2 5/4/3 3/3/2
f 6/5/3 5/4/3 8/7/4
f 7/6/95 9/8/5 8/7/4
f 10/9/96 9/8/6 12/11/8
f 12/11/8 11/10/7 14/13/10
f 14/13/11 13/12/11 16/15/12
f 16/15/12 15/14/13 18/17/15
f 17/200/15 19/18/16 18/20/15
f 20/19/17 19/18/16 22/22/19
f 22/22/128 21/21/18 24/24/21
f 23/23/20 1/1/22 24/24/21
f 25/49/63 44/26/24 31/28/26
f 26/48/129 42/29/27 32/31/29
f 27/47/59 40/32/30 33/34/32
f 28/46/130 38/35/33 34/37/35
f 29/45/131 48/38/36 35/40/38
f 30/50/132 46/41/39 36/43/41
f 39/36/51 38/35/33 35/40/57
f 41/33/50 40/32/30 34/37/48
f 43/30/69 42/29/27 33/34/60
f 45/27/67 44/26/61 32/31/42
f 47/42/66 46/41/39 31/28/26
f 49/39/133 48/38/64 36/43/41
f 50/74/80 69/51/24 56/53/68
f 51/73/134 67/54/27 57/56/70
f 52/72/59 65/57/30 58/59/32
f 53/71/130 63/60/33 59/62/35
f 54/70/131 73/63/36 60/65/57
f 55/75/81 71/66/71 61/68/41
f 64/61/51 63/60/75 60/65/38
f 66/58/73 65/57/30 59/62/48
f 68/55/135 67/54/27 58/59/32
f 70/52/136 69/51/61 57/56/42
f 72/67/66 71/66/39 56/53/26
f 74/64/133 73/63/64 61/68/41
f 90/80/83 98/87/83 88/78/83
f 92/81/83 88/78/83 96/86/83
f 75/91/43 80/89/43 85/99/43
f 86/95/43 80/89/43 81/97/43
f 77/106/84 89/100/84 78/102/85
f 75/119/86 90/103/86 76/105/87
f 76/105/87 91/104/87 77/106/84
f 78/102/85 87/101/85 79/108/88
f 83/115/89 95/109/89 84/111/90
f 81/120/91 96/112/91 82/114/92
f 82/114/92 97/113/92 83/115/89
f 84/111/90 93/110/90 85/117/93
f 85/201/93 98/118/93 75/119/86
f 79/108/88 92/107/88 81/120/91
f 99/145/22 100/121/94 102/123/1
f 101/122/2 100/121/94 104/125/3
f 104/125/3 103/124/3 106/127/4
f 105/126/95 107/128/5 106/127/4
f 108/129/96 107/128/6 110/131/8
f 110/131/8 109/130/7 112/133/11
f 111/132/11 113/134/97 112/133/11
f 113/202/13 115/136/15 114/138/12
f 116/137/15 115/136/15 118/140/17
f 118/140/17 117/139/16 120/142/19
f 120/142/19 119/141/18 122/144/21
f 121/143/20 99/145/22 122/144/21
f 140/184/98 142/146/98 139/148/98
f 142/146/99 144/149/99 141/147/99
f 157/187/100 158/151/100 147/153/100
f 150/191/101 147/153/101 149/154/101
f 151/161/102 145/155/102 152/157/102
f 154/163/103 161/158/103 153/160/103
f 139/203/104 151/161/104 140/162/104
f 144/149/105 154/163/105 143/150/106
f 123/185/107 124/164/107 126/166/108
f 126/166/108 125/165/109 138/168/111
f 155/199/124 156/169/112 129/171/113
f 128/192/114 127/172/114 130/170/113
f 135/180/115 136/173/115 131/175/116
f 134/181/117 133/176/117 160/178/118
f 124/198/107 123/179/119 135/180/120
f 138/168/110 137/167/110 134/181/121
f 125/165/43 124/164/43 141/183/43
f 126/166/83 142/146/83 123/185/83
f 137/167/43 125/165/43 143/186/43
f 138/168/83 144/149/83 126/166/83
f 156/169/122 157/187/122 130/170/83
f 155/199/43 129/171/43 158/189/43
f 129/171/43 127/172/43 148/188/43
f 130/170/83 147/153/83 128/192/83
f 132/174/83 136/173/83 146/156/83
f 131/175/43 145/193/43 135/180/43
f 133/176/43 153/195/43 159/177/43
f 134/181/83 160/178/83 154/163/83
f 136/173/83 123/179/83 152/157/83
f 135/180/43 151/194/43 124/198/43
f 133/176/137 137/167/43 153/195/43
f 134/181/83 154/163/83 138/168/83
f 131/175/123 132/174/123 155/199/124
f 156/169/125 132/174/83 157/187/125
f 145/155/126 158/151/126 146/156/126
f 155/199/43 158/189/43 131/175/43
f 160/178/118 159/177/118 128/192/114
f 160/178/83 128/192/83 161/158/83
f 162/159/127 161/158/127 149/154/127
f 159/177/43 162/196/43 127/172/43
