# Blender v2.76 (sub 0) OBJ File: 'pinball.blend'
# www.blender.org
mtllib Trigger4.mtl
o TriggerA.002_Untitled.035
v 0.252636 0.980902 -0.376401
v 0.247377 0.980902 -0.384270
v 0.239509 0.980902 -0.389528
v 0.230226 0.980900 -0.391374
v 0.220944 0.980900 -0.389528
v 0.213075 0.980900 -0.384270
v 0.207817 0.980900 -0.376401
v 0.205970 0.980900 -0.367119
v 0.207817 0.980900 -0.357836
v 0.213075 0.980900 -0.349967
v 0.220944 0.980900 -0.344709
v 0.230226 0.980900 -0.342863
v 0.239508 0.980900 -0.344709
v 0.247377 0.980900 -0.349967
v 0.252636 0.980900 -0.357836
v 0.254482 0.980898 -0.367119
v 0.230226 0.980903 -0.367116
vt 0.232543 0.822258
vt 0.241723 0.844422
vt 0.224761 0.827458
vt 0.250903 0.866581
vt 0.258684 0.861382
vt 0.241723 0.868406
vt 0.232543 0.866581
vt 0.224761 0.861382
vt 0.219561 0.853600
vt 0.217734 0.844422
vt 0.219561 0.835242
vt 0.241723 0.820434
vt 0.250900 0.822258
vt 0.258684 0.827458
vt 0.263884 0.835242
vt 0.265709 0.844422
vt 0.263882 0.853600
vn -0.000100 1.000000 0.000100
vn 0.000000 1.000000 -0.000000
vn -0.000200 1.000000 -0.000100
vn -0.000000 1.000000 -0.000100
vn -0.000100 1.000000 -0.000100
vn -0.000100 1.000000 -0.000000
vn -0.000000 1.000000 0.000100
vn 0.000100 1.000000 0.000100
vn 0.000200 1.000000 -0.000200
vn 0.000200 1.000000 0.000400
usemtl MAT_PinballBoard.016
s 1
f 11/1/1 17/2/1 10/3/1
f 3/4/2 17/2/2 2/5/2
f 4/6/3 17/2/3 3/4/3
f 5/7/4 17/2/4 4/6/4
f 6/8/5 17/2/5 5/7/5
f 7/9/6 17/2/6 6/8/6
f 8/10/6 17/2/6 7/9/6
f 9/11/6 17/2/6 8/10/6
f 10/3/6 17/2/6 9/11/6
f 12/12/7 17/2/7 11/1/7
f 13/13/7 17/2/7 12/12/7
f 14/14/8 17/2/8 13/13/8
f 15/15/8 17/2/8 14/14/8
f 16/16/9 17/2/9 15/15/9
f 1/17/10 17/2/10 16/16/10
f 2/5/2 17/2/2 1/17/2
