# Blender v2.76 (sub 0) OBJ File: 'pinball.blend'
# www.blender.org
mtllib Trigger2.mtl
o TriggerC_Untitled.030
v -0.262168 0.981040 0.401889
v -0.265477 0.981040 0.398764
v -0.266431 0.981040 0.401164
v -0.264510 0.981040 0.402979
v -0.271648 0.981040 0.398763
v -0.270709 0.981040 0.401163
v -0.274990 0.981040 0.401853
v -0.272671 0.981040 0.402977
v -0.280125 0.981040 0.467481
v -0.277035 0.981040 0.470822
v -0.275985 0.981040 0.468423
v -0.277651 0.981040 0.466622
v -0.261526 0.981040 0.470824
v -0.262560 0.981040 0.468424
v -0.258401 0.981040 0.467515
v -0.260856 0.981040 0.466619
vt 0.206885 0.864965
vt 0.203614 0.868057
vt 0.202669 0.865685
vt 0.197509 0.868057
vt 0.198438 0.865685
vt 0.194203 0.865001
vt 0.196500 0.863891
vt 0.192183 0.796797
vt 0.193222 0.799169
vt 0.191576 0.800951
vt 0.207521 0.796792
vt 0.206496 0.799167
vt 0.210610 0.800067
vt 0.208183 0.800953
vt 0.204569 0.863889
vt 0.189130 0.800101
vn 0.000000 1.000000 0.000000
vn 0.000000 1.000000 -0.000100
vn 0.000000 1.000000 0.000100
usemtl MAT_PinballBoard.022
s 1
f 1/1/1 2/2/2 3/3/1
f 5/4/1 6/5/1 3/3/1
f 5/4/1 7/6/1 8/7/1
f 10/8/1 11/9/1 12/10/1
f 13/11/1 14/12/1 11/9/1
f 13/11/1 15/13/1 16/14/1
f 1/1/1 4/15/1 16/14/1
f 7/6/1 9/16/1 12/10/1
f 8/7/1 12/10/1 16/14/1
f 12/10/1 11/9/1 14/12/1
f 6/5/1 8/7/1 4/15/1
f 4/15/3 1/1/1 3/3/1
f 2/2/2 5/4/1 3/3/1
f 6/5/1 5/4/1 8/7/1
f 9/16/1 10/8/1 12/10/1
f 10/8/2 13/11/1 11/9/1
f 14/12/1 13/11/1 16/14/1
f 15/13/1 1/1/1 16/14/1
f 8/7/1 7/6/1 12/10/1
f 4/15/1 8/7/1 16/14/1
f 16/14/1 12/10/1 14/12/1
f 3/3/1 6/5/1 4/15/1
