# Blender v2.78 (sub 0) OBJ File: ''
# www.blender.org
mtllib Plunger.mtl
o Trigger_Bumper_Untitled.005
v 0.352675 1.000705 1.071759
v 0.348681 1.004699 1.071759
v 0.343225 1.006162 1.071759
v 0.337769 1.004699 1.071759
v 0.333774 1.000705 1.071759
v 0.332312 0.995249 1.071759
v 0.333774 0.989793 1.071759
v 0.337769 0.985799 1.071759
v 0.343225 0.984336 1.071759
v 0.348681 0.985799 1.071759
v 0.352675 0.989793 1.071759
v 0.354137 0.995249 1.071759
v 0.352675 1.000705 1.076776
v 0.354137 0.995249 1.076776
v 0.348681 1.004699 1.076776
v 0.343225 1.006162 1.076776
v 0.337769 1.004699 1.076776
v 0.333774 1.000705 1.076776
v 0.332312 0.995249 1.076776
v 0.333774 0.989793 1.076776
v 0.337769 0.985799 1.076776
v 0.343225 0.984336 1.076776
v 0.348681 0.985799 1.076776
v 0.352675 0.989793 1.076776
v 0.364439 0.995249 1.078409
v 0.361597 1.005856 1.078409
v 0.353832 1.013621 1.078409
v 0.361597 0.984641 1.078409
v 0.343225 1.016464 1.078409
v 0.332618 1.013621 1.078409
v 0.324852 1.005856 1.078409
v 0.322010 0.995249 1.078409
v 0.324852 0.984641 1.078409
v 0.332618 0.976876 1.078409
v 0.343225 0.974035 1.078409
v 0.353832 0.976876 1.078409
v 0.364439 0.995249 1.082371
v 0.361597 1.005856 1.082371
v 0.353832 1.013621 1.082371
v 0.361597 0.984641 1.082371
v 0.343225 1.016464 1.082371
v 0.332618 1.013621 1.082371
v 0.324852 1.005856 1.082371
v 0.322010 0.995249 1.082371
v 0.324852 0.984641 1.082371
v 0.332618 0.976876 1.082371
v 0.343225 0.974035 1.082371
v 0.353832 0.976876 1.082371
v 0.355280 0.995249 1.084873
v 0.353665 1.001276 1.084873
v 0.349252 1.005689 1.084873
v 0.353665 0.989222 1.084873
v 0.343225 1.007304 1.084873
v 0.337197 1.005689 1.084873
v 0.332785 1.001276 1.084873
v 0.331170 0.995249 1.084873
v 0.332785 0.989222 1.084873
v 0.337197 0.984809 1.084873
v 0.343225 0.983194 1.084873
v 0.349252 0.984809 1.084873
v 0.343225 0.995249 1.084873
v 0.348291 0.998174 1.071759
v 0.346150 1.000315 1.071759
v 0.343225 1.001099 1.071759
v 0.340300 1.000315 1.071759
v 0.338159 0.998174 1.071759
v 0.337375 0.995249 1.071759
v 0.338159 0.992324 1.071759
v 0.340300 0.990183 1.071759
v 0.343225 0.989400 1.071759
v 0.346150 0.990183 1.071759
v 0.348291 0.992324 1.071759
v 0.349074 0.995249 1.071759
v 0.348291 0.998174 0.964385
v 0.346150 1.000315 0.964385
v 0.343225 1.001099 0.964385
v 0.340300 1.000315 0.964385
v 0.338159 0.998174 0.964385
v 0.337375 0.995249 0.964385
v 0.338159 0.992324 0.964385
v 0.340300 0.990183 0.964385
v 0.343225 0.989400 0.964385
v 0.346150 0.990183 0.964385
v 0.348291 0.992324 0.964385
v 0.349074 0.995249 0.964385
vt 0.9548 0.3801
vt 0.9563 0.3786
vt 0.9579 0.3795
vt 0.9557 0.3817
vt 0.9569 0.3765
vt 0.9588 0.3765
vt 0.9563 0.3744
vt 0.9579 0.3734
vt 0.9548 0.3729
vt 0.9557 0.3712
vt 0.9527 0.3723
vt 0.9527 0.3704
vt 0.9506 0.3729
vt 0.9496 0.3712
vt 0.9491 0.3744
vt 0.9474 0.3734
vt 0.9485 0.3765
vt 0.9466 0.3765
vt 0.9491 0.3786
vt 0.9474 0.3795
vt 0.9506 0.3801
vt 0.9496 0.3817
vt 0.9527 0.3807
vt 0.9527 0.3826
vt 0.9581 0.5001
vt 0.9597 0.4985
vt 0.9633 0.5006
vt 0.9602 0.5037
vt 0.9603 0.4963
vt 0.9644 0.4963
vt 0.9559 0.5007
vt 0.9559 0.5048
vt 0.9597 0.4941
vt 0.9633 0.4921
vt 0.9581 0.4925
vt 0.9602 0.4890
vt 0.9559 0.4920
vt 0.9559 0.4878
vt 0.9537 0.4925
vt 0.9517 0.4890
vt 0.9521 0.4941
vt 0.9485 0.4921
vt 0.9515 0.4963
vt 0.9474 0.4963
vt 0.9521 0.4985
vt 0.9485 0.5006
vt 0.9537 0.5001
vt 0.9517 0.5037
vt 0.9646 0.5013
vt 0.9609 0.5050
vt 0.9659 0.4963
vt 0.9559 0.5063
vt 0.9646 0.4913
vt 0.9609 0.4877
vt 0.9559 0.4863
vt 0.9509 0.4877
vt 0.9472 0.4913
vt 0.9459 0.4963
vt 0.9473 0.5013
vt 0.9509 0.5050
vt 0.9524 0.4482
vt 0.9568 0.4493
vt 0.9549 0.4527
vt 0.9524 0.4520
vt 0.9600 0.4525
vt 0.9567 0.4545
vt 0.9481 0.4493
vt 0.9500 0.4527
vt 0.9612 0.4569
vt 0.9573 0.4569
vt 0.9600 0.4613
vt 0.9567 0.4594
vt 0.9568 0.4645
vt 0.9549 0.4612
vt 0.9524 0.4657
vt 0.9524 0.4618
vt 0.9481 0.4645
vt 0.9500 0.4612
vt 0.9448 0.4613
vt 0.9482 0.4594
vt 0.9437 0.4569
vt 0.9475 0.4569
vt 0.9448 0.4525
vt 0.9482 0.4545
vt 0.9524 0.4569
vt 0.9538 0.3785
vt 0.9546 0.3776
vt 0.9549 0.3765
vt 0.9546 0.3754
vt 0.9538 0.3745
vt 0.9527 0.3742
vt 0.9515 0.3745
vt 0.9507 0.3754
vt 0.9504 0.3765
vt 0.9507 0.3776
vt 0.9515 0.3785
vt 0.9527 0.3788
vt 0.9312 0.3782
vt 0.9325 0.3782
vt 0.9325 0.3912
vt 0.9312 0.3912
vt 0.9300 0.3782
vt 0.9300 0.3912
vt 0.9288 0.3782
vt 0.9288 0.3912
vt 0.9276 0.3782
vt 0.9276 0.3912
vt 0.9263 0.3782
vt 0.9263 0.3912
vt 0.9251 0.3782
vt 0.9251 0.3912
vt 0.9239 0.3782
vt 0.9239 0.3912
vt 0.9226 0.3782
vt 0.9226 0.3912
vt 0.9214 0.3782
vt 0.9214 0.3912
vt 0.9202 0.3782
vt 0.9202 0.3912
vt 0.9190 0.3782
vt 0.9190 0.3912
vt 0.9337 0.3782
vt 0.9337 0.3912
vn 0.8660 0.5000 0.0000
vn 0.5000 0.8660 0.0000
vn 0.0000 1.0000 0.0000
vn 0.0000 1.0000 -0.0001
vn -0.0000 1.0000 0.0001
vn -0.5000 0.8660 0.0000
vn -0.8660 0.5000 0.0000
vn -1.0000 -0.0000 0.0000
vn -1.0000 -0.0000 -0.0001
vn -1.0000 0.0000 0.0001
vn -0.8660 -0.5000 0.0000
vn -0.8660 -0.5000 -0.0001
vn -0.8660 -0.5000 0.0001
vn -0.5000 -0.8660 0.0000
vn -0.0000 -1.0000 0.0000
vn -0.0000 -1.0000 -0.0001
vn 0.0000 -1.0000 0.0001
vn 0.5000 -0.8660 0.0000
vn 0.8660 -0.5000 0.0000
vn 1.0000 0.0000 0.0000
vn 0.1566 -0.0000 -0.9877
vn 0.1356 0.0783 -0.9877
vn 0.0783 0.1356 -0.9877
vn 0.1356 -0.0783 -0.9877
vn -0.0000 0.1566 -0.9877
vn -0.0783 0.1356 -0.9877
vn -0.1356 0.0783 -0.9877
vn -0.1566 -0.0000 -0.9877
vn -0.1356 -0.0783 -0.9877
vn -0.0783 -0.1356 -0.9877
vn 0.0000 -0.1566 -0.9877
vn 0.0783 -0.1356 -0.9877
vn 0.5000 0.8660 0.0001
vn -0.5000 0.8660 0.0001
vn 0.5000 -0.8660 0.0001
vn 0.2635 -0.0000 0.9646
vn 0.2282 0.1318 0.9646
vn 0.1727 0.0997 0.9799
vn 0.1994 -0.0000 0.9799
vn 0.1318 0.2282 0.9646
vn 0.0997 0.1727 0.9799
vn 0.2282 -0.1318 0.9647
vn 0.2635 0.0000 0.9647
vn 0.1727 -0.0997 0.9799
vn 0.1318 0.2283 0.9646
vn -0.0000 0.2636 0.9646
vn -0.0000 0.1994 0.9799
vn -0.1318 0.2282 0.9646
vn -0.0997 0.1727 0.9799
vn -0.2282 0.1318 0.9646
vn -0.1727 0.0997 0.9799
vn -0.2635 -0.0000 0.9647
vn -0.1994 -0.0000 0.9799
vn -0.2282 -0.1318 0.9647
vn -0.1727 -0.0997 0.9799
vn -0.2282 -0.1318 0.9646
vn -0.1318 -0.2283 0.9646
vn -0.0997 -0.1727 0.9799
vn -0.1318 -0.2282 0.9646
vn -0.0000 -0.2635 0.9646
vn 0.0000 -0.1994 0.9799
vn 0.1318 -0.2282 0.9647
vn 0.0997 -0.1727 0.9799
vn 0.1318 -0.2282 0.9646
vn 0.2282 -0.1318 0.9646
vn 0.0000 0.0000 1.0000
vn 0.0001 0.1994 0.9799
vn -0.1994 0.0001 0.9799
vn -0.0001 -0.1994 0.9799
vn 0.0001 -0.1994 0.9799
vn 0.0000 0.0000 -1.0000
usemtl MAT_PinballMachine
s 1
f 1/1/1 2/2/2 15/3/2 13/4/1
f 2/2/2 3/5/3 16/6/4 15/3/2
f 3/5/5 4/7/6 17/8/6 16/6/3
f 4/7/6 5/9/7 18/10/7 17/8/6
f 5/9/7 6/11/8 19/12/9 18/10/7
f 6/11/10 7/13/11 20/14/12 19/12/8
f 7/13/13 8/15/14 21/16/14 20/14/11
f 8/15/14 9/17/15 22/18/16 21/16/14
f 9/17/17 10/19/18 23/20/18 22/18/15
f 10/19/18 11/21/19 24/22/19 23/20/18
f 11/21/19 12/23/20 14/24/20 24/22/19
f 12/23/20 1/1/1 13/4/1 14/24/20
f 14/25/21 13/26/22 26/27/22 25/28/21
f 13/26/22 15/29/23 27/30/23 26/27/22
f 24/31/24 14/25/21 25/28/21 28/32/24
f 15/29/23 16/33/25 29/34/25 27/30/23
f 16/33/25 17/35/26 30/36/26 29/34/25
f 17/35/26 18/37/27 31/38/27 30/36/26
f 18/37/27 19/39/28 32/40/28 31/38/27
f 19/39/28 20/41/29 33/42/29 32/40/28
f 20/41/29 21/43/30 34/44/30 33/42/29
f 21/43/30 22/45/31 35/46/31 34/44/30
f 22/45/31 23/47/32 36/48/32 35/46/31
f 23/47/32 24/31/24 28/32/24 36/48/32
f 25/28/20 26/27/1 38/49/1 37/50/20
f 26/27/1 27/30/2 39/51/2 38/49/1
f 28/32/19 25/28/20 37/50/20 40/52/19
f 27/30/33 29/34/5 41/53/5 39/51/2
f 29/34/5 30/36/34 42/54/6 41/53/5
f 30/36/6 31/38/7 43/55/7 42/54/6
f 31/38/7 32/40/8 44/56/8 43/55/7
f 32/40/8 33/42/11 45/57/11 44/56/8
f 33/42/11 34/44/14 46/58/14 45/57/11
f 34/44/14 35/46/15 47/59/15 46/58/14
f 35/46/15 36/48/18 48/60/18 47/59/15
f 36/48/35 28/32/19 40/52/19 48/60/18
f 37/61/36 38/62/37 50/63/38 49/64/39
f 38/62/37 39/65/40 51/66/41 50/63/38
f 40/67/42 37/61/43 49/64/39 52/68/44
f 39/65/45 41/69/46 53/70/47 51/66/41
f 41/69/46 42/71/48 54/72/49 53/70/47
f 42/71/48 43/73/50 55/74/51 54/72/49
f 43/73/50 44/75/52 56/76/53 55/74/51
f 44/75/52 45/77/54 57/78/55 56/76/53
f 45/77/56 46/79/57 58/80/58 57/78/55
f 46/79/59 47/81/60 59/82/61 58/80/58
f 47/81/60 48/83/62 60/84/63 59/82/61
f 48/83/64 40/67/65 52/68/44 60/84/63
f 58/80/58 61/85/66 57/78/55
f 50/63/38 51/66/41 61/85/66
f 61/85/66 51/66/41 53/70/67
f 61/85/66 53/70/47 54/72/49
f 61/85/66 54/72/49 55/74/51
f 61/85/66 55/74/51 56/76/68
f 61/85/66 56/76/53 57/78/55
f 59/82/69 61/85/66 58/80/58
f 60/84/63 61/85/66 59/82/70
f 52/68/44 61/85/66 60/84/63
f 49/64/39 61/85/66 52/68/44
f 50/63/38 61/85/66 49/64/39
f 2/2/71 1/1/71 62/86/71 63/87/71
f 3/5/71 2/2/71 63/87/71 64/88/71
f 4/7/71 3/5/71 64/88/71 65/89/71
f 5/9/71 4/7/71 65/89/71 66/90/71
f 6/11/71 5/9/71 66/90/71 67/91/71
f 7/13/71 6/11/71 67/91/71 68/92/71
f 8/15/71 7/13/71 68/92/71 69/93/71
f 9/17/71 8/15/71 69/93/71 70/94/71
f 10/19/71 9/17/71 70/94/71 71/95/71
f 11/21/71 10/19/71 71/95/71 72/96/71
f 12/23/71 11/21/71 72/96/71 73/97/71
f 1/1/71 12/23/71 73/97/71 62/86/71
f 63/98/2 62/99/1 74/100/1 75/101/2
f 64/102/3 63/98/2 75/101/2 76/103/3
f 65/104/6 64/102/3 76/103/3 77/105/6
f 66/106/7 65/104/6 77/105/6 78/107/7
f 67/108/8 66/106/7 78/107/7 79/109/8
f 68/110/11 67/108/8 79/109/8 80/111/11
f 69/112/14 68/110/11 80/111/13 81/113/14
f 70/114/15 69/112/14 81/113/14 82/115/15
f 71/116/18 70/114/15 82/115/15 83/117/18
f 72/118/19 71/116/18 83/117/18 84/119/19
f 73/120/20 72/118/19 84/119/19 85/121/20
f 62/99/1 73/122/20 85/123/20 74/100/1
