# Blender v2.78 (sub 0) OBJ File: ''
# www.blender.org
mtllib table.mtl
o Plane_Plane.001
v -2.000000 0.000000 2.000000
v 2.000000 0.000000 2.000000
v -2.000000 0.000000 -2.000000
v 2.000000 0.000000 -2.000000
v -2.000000 0.000000 -2.000000
v 2.000000 0.000000 -2.000000
v -2.000000 0.000000 -2.000000
v -2.000000 0.500000 -2.000000
v 2.000000 0.500000 -2.000000
v -2.000000 0.500000 2.000000
v -2.000000 0.500000 -2.000000
v -2.000000 0.500000 2.000000
v 2.000000 0.500000 2.000000
v 2.000000 0.500000 2.000000
v 2.000000 0.500000 -2.000000
vt 0.0000 0.0000
vt 0.6667 1.0000
vt 0.0000 1.0000
vt 0.8333 0.0000
vt 0.9167 1.0000
vt 0.8333 1.0000
vt 0.7500 1.0000
vt 0.6667 0.0000
vt 0.7500 0.0000
vt 0.8333 1.0000
vt 0.7500 0.0000
vt 0.8333 0.0000
vt 1.0000 1.0000
vt 0.9167 0.0000
vt 1.0000 0.0000
vt 0.6667 0.0000
vt 0.9167 0.0000
vt 0.6667 1.0000
vt 0.7500 1.0000
vt 0.9167 1.0000
vn 0.0000 1.0000 0.0000
vn 0.0000 0.0000 1.0000
vn 1.0000 0.0000 0.0000
vn 0.0000 0.0000 -1.0000
vn -1.0000 0.0000 0.0000
usemtl None
s off
f 2/1/1 3/2/1 1/3/1
f 4/4/2 8/5/2 3/6/2
f 3/7/3 10/8/3 1/9/3
f 1/10/4 13/11/4 2/12/4
f 2/13/5 15/14/5 4/15/5
f 2/1/1 4/16/1 3/2/1
f 4/4/2 9/17/2 8/5/2
f 3/7/3 11/18/3 10/8/3
f 1/10/4 12/19/4 13/11/4
f 2/13/5 14/20/5 15/14/5
l 3 5
l 4 6
l 5 7
