# Blender v2.76 (sub 0) OBJ File: ''
# www.blender.org
mtllib anvil.mtl
o anvil
v -0.005796 0.003192 0.215257
v -0.099439 0.002558 -0.241089
v -0.005796 0.003353 -0.206348
v 0.181141 0.286311 -0.200893
v 0.117229 0.424913 -0.158451
v 0.117229 0.424913 0.158451
v 0.405749 0.067335 0.405749
v 0.145720 0.067335 0.405749
v 0.145720 0.001774 0.405749
v -0.157313 0.067335 -0.405749
v -0.157313 0.001774 -0.405749
v -0.405749 0.001774 -0.405749
v -0.405749 0.067335 -0.405749
v -0.405749 0.001774 0.405749
v 0.405749 0.001774 0.405749
v 0.405749 0.001774 -0.405749
v -0.862072 0.932816 0.037492
v -0.862072 1.006293 0.037492
v -0.862072 1.006293 -0.037492
v -0.862072 0.932816 -0.037492
v -0.772679 1.006293 -0.072207
v -0.649845 0.790953 -0.079538
v -0.220644 0.313764 -0.200893
v -0.211217 0.446060 -0.161580
v -0.220644 0.313764 0.200893
v 0.181141 0.286311 0.200893
v -0.157313 0.067335 0.405749
v -0.157313 0.131395 0.340952
v -0.336154 0.131486 0.336154
v 0.145720 0.067335 -0.405749
v 0.145720 0.137450 -0.336154
v 0.336154 0.126676 -0.336154
v 0.145720 0.142300 -0.332043
v -0.405749 0.067335 0.405749
v -0.336154 0.131486 -0.336154
v -0.260752 0.236798 0.259750
v -0.260752 0.236798 -0.259750
v 0.405749 0.067335 -0.405749
v -0.014111 0.247922 0.230332
v -0.109942 0.213735 0.262362
v 0.145720 0.001774 0.340952
v -0.157313 0.001774 0.340952
v -0.112633 0.220919 -0.256068
v -0.015597 0.254174 -0.223382
v -0.154260 0.136726 0.336154
v -0.099439 0.002385 0.249998
v 0.097681 0.223655 -0.267742
v 0.087846 0.004762 -0.241089
v 0.145720 0.001777 -0.332043
v -0.157313 0.001774 -0.332043
v -0.157313 0.136907 -0.336154
v 0.336154 0.126676 0.336154
v -0.157313 0.141710 -0.332043
v 0.086622 0.230454 0.262200
v 0.142668 0.137594 0.336154
v 0.258748 0.208548 0.259750
v 0.086307 0.238372 -0.255881
v 0.091791 0.223628 0.267682
v 0.087846 0.004385 0.249998
v -0.211217 1.016420 0.211269
v -0.211217 0.446060 0.161580
v 0.286315 0.678886 0.156610
v -0.649845 0.790953 0.079538
v -0.211217 1.006293 -0.183018
v -0.211217 1.006293 0.183018
v -0.211217 0.620042 0.135669
v 0.881087 0.910790 -0.156610
v 0.881087 1.016420 -0.211268
v 0.881087 1.016420 0.211269
v 0.719735 1.016420 0.211269
v 0.719759 0.896296 0.156610
v 0.881087 0.910790 0.156610
v 0.719735 1.016420 -0.211268
v 0.719759 0.896296 -0.156610
v 0.258748 0.208548 -0.259750
v 0.286315 0.678886 -0.156610
v 0.418801 0.780344 -0.156610
v 0.418801 0.780344 0.156610
v 0.564989 0.852814 -0.156610
v 0.564598 1.016420 0.211269
v 0.278127 1.016420 0.211269
v 0.564598 1.016420 -0.211268
v 0.564989 0.852814 0.156610
v -0.772679 1.006293 0.072207
v -0.460129 1.006293 0.150262
v -0.460129 1.006293 -0.150262
v 0.278127 1.016420 -0.211268
v -0.211217 1.016420 -0.211268
v -0.211217 0.620042 -0.135669
v -0.460129 0.702073 -0.111711
v -0.460129 0.702073 0.111711
v 0.145720 0.001774 -0.405749
v -0.157313 0.001774 0.405749
v 0.145720 0.131886 0.340952
vt 0.703583 -0.031821
vt 0.532332 0.802728
vt 0.703583 0.739194
vt 1.075563 0.924758
vt 0.997947 1.178229
vt 0.418407 1.178229
vt 1.456202 0.524304
vt 0.980672 0.524304
vt 0.980672 0.404408
vt 0.426495 0.524304
vt 0.426495 0.404408
vt -0.027835 0.404408
vt 1.450196 0.524304
vt 1.450196 0.404408
vt -0.033841 0.404408
vt -0.033841 0.524304
vt 0.639613 -0.102701
vt 0.639613 0.031671
vt 0.776742 0.031671
vt 1.347422 -0.102701
vt 1.510901 0.031671
vt 1.735537 -0.362135
vt 0.310676 0.974963
vt 0.327919 1.216901
vt 0.928569 1.178229
vt 1.045449 0.924758
vt 0.426495 -0.380186
vt 0.426495 -0.261688
vt 0.099435 -0.252914
vt 0.980672 1.103851
vt 0.980672 0.976579
vt 1.328932 0.976579
vt 0.980672 0.652527
vt 0.980672 0.661397
vt 1.328932 0.632825
vt -0.027835 -0.380186
vt 0.099435 0.976579
vt 0.093431 0.641620
vt 0.233156 0.834212
vt 1.183199 0.834212
vt 0.340792 0.974963
vt 1.075563 0.974963
vt 1.456202 -0.380186
vt 1.456202 1.103851
vt 0.688376 0.854554
vt 0.513125 0.792034
vt 0.084657 0.404408
vt 0.084657 0.641454
vt 0.508202 0.805173
vt 0.685658 0.865988
vt 0.703583 0.407296
vt 0.703583 0.407002
vt 1.456202 0.404408
vt 0.093431 0.651204
vt 0.250990 0.405525
vt 1.197814 0.810175
vt 1.315405 0.661397
vt 1.149072 0.409872
vt 1.322924 0.652527
vt 1.315405 0.404414
vt 1.322924 0.651534
vt 0.980672 -0.380186
vt 1.328932 -0.252914
vt 0.426495 1.103851
vt -0.027835 1.103851
vt 1.315405 0.660318
vt 1.176465 0.805173
vt 1.149072 0.405842
vt 0.872592 0.822609
vt 0.975087 0.652790
vt 1.187374 0.782548
vt 0.872019 0.837090
vt -0.027835 0.524304
vt 0.218650 0.810126
vt 0.228676 0.822609
vt 0.250990 0.409183
vt 0.039450 0.960819
vt 0.039095 0.441990
vt 0.490883 0.650867
vt 1.735537 0.216377
vt 1.347422 0.293269
vt 1.347422 0.430397
vt 1.042874 0.031671
vt 0.373481 0.031671
vt 0.460072 -0.674690
vt 0.994580 -0.142982
vt 1.094537 0.050191
vt 0.321818 0.050191
vt 0.883573 0.960819
vt 0.883856 0.841714
vt 1.029633 0.853440
vt 0.193492 0.050191
vt 0.493999 0.050191
vt 0.493999 -0.142982
vt 0.193492 0.648236
vt 0.493999 0.648236
vt 0.493999 0.075430
vt 1.183199 0.782548
vt 0.233156 0.782548
vt 0.093431 0.632825
vt 1.501738 0.648236
vt 1.802244 0.648236
vt 1.802244 0.075430
vt 2.102750 0.648236
vt -0.107014 0.648236
vt 0.193492 0.075430
vt 0.611150 0.741530
vt 0.743059 0.960819
vt 0.483335 0.960819
vt -0.107014 0.050191
vt 0.193492 -0.169488
vt 0.743846 0.804693
vt -0.107014 -0.249006
vt -0.407520 -0.381537
vt 0.412685 1.216901
vt 1.003670 1.216901
vt -0.698863 0.031671
vt -0.474227 -0.362135
vt -0.127283 0.031671
vt 2.082481 0.087039
vt 2.537683 0.027136
vt 2.082481 0.636626
vt -0.708026 0.748192
vt -1.881845 0.748192
vt -0.708026 -0.024527
vt 0.327919 0.031671
vt 0.327919 -0.674690
vt -0.127283 -0.524676
vt 1.501738 -0.567079
vt 0.327919 -0.992863
vt 0.327919 0.050191
vt 0.327919 0.113727
vt -0.127283 0.157539
vt -0.127283 0.566126
vt -0.474227 0.216377
vt -0.474227 0.507288
vt 1.501738 0.075430
vt 0.928569 0.072063
vt 0.928569 0.651603
vt 0.980672 0.969061
vt 0.980672 -0.261688
vt 0.874834 -0.095355
vt 0.532332 -0.095355
vt 0.874834 0.802727
vt 0.426495 0.969061
vt 0.340792 0.924758
vt 0.776742 -0.102701
vt 2.082481 -0.524676
vt 2.082481 0.031671
vt 1.347422 0.031671
vt 0.432079 -0.252914
vt 0.892819 0.810175
vt 1.322924 0.641620
vt 0.099435 0.641620
vt 0.432079 0.651204
vt 0.237331 0.834212
vt 0.882046 0.810126
vt 0.084657 0.642352
vt 0.532332 0.405842
vt 0.532332 0.405525
vt 0.228379 0.792034
vt 1.176123 0.837090
vt 0.975087 -0.252914
vt 0.426495 0.976579
vt 0.874834 0.409183
vt 0.874834 0.409872
vt 0.093431 0.652790
vt 0.336612 0.421459
vt 1.735537 0.507288
vt 0.956283 -0.674690
vt 0.421774 -0.142982
vt 1.029703 0.960819
vt 1.322924 0.632825
vt 2.102750 0.075430
vt -0.107014 0.075430
vt 0.426495 0.660318
vt 0.426495 0.651534
vt -0.708026 0.050191
vt -0.708026 -0.567079
vt 0.321818 2.259955
vt 1.094537 2.259955
vt -0.862342 0.031671
vt -0.862342 -0.102701
vt 1.510901 0.493881
vt 1.510901 0.229784
vt 2.537683 0.696529
vt -0.107014 -0.024527
vt -0.107014 0.748192
vt 0.193492 -0.024527
vt 0.493999 -0.024527
vt 0.493999 0.748192
vt 0.193492 0.748192
vt -1.881845 -0.024527
vt 1.501738 0.050191
vt 0.928569 -1.031535
vt 0.327919 0.609938
vn 0.010900 -0.999900 -0.000500
vn 0.003600 -1.000000 0.001300
vn 0.011800 -0.999900 -0.000400
vn 0.908100 0.418700 0.000000
vn 0.000000 0.000000 1.000000
vn 0.000000 0.000000 -1.000000
vn -1.000000 0.000000 0.000000
vn 1.000000 0.000000 0.000000
vn -0.310300 -0.070400 -0.948000
vn -0.280300 -0.090800 -0.955600
vn -0.237600 -0.115000 -0.964500
vn 0.025600 0.287700 -0.957400
vn 0.027400 0.283000 -0.958700
vn 0.021900 0.297800 -0.954400
vn 0.025600 0.287700 0.957400
vn 0.020600 0.301400 0.953300
vn 0.021900 0.297800 0.954400
vn -0.012800 0.718700 0.695200
vn -0.019000 0.691400 0.722300
vn -0.004200 0.729200 0.684200
vn 0.028500 0.720800 -0.692600
vn 0.039800 0.703900 -0.709200
vn 0.008600 0.749200 -0.662300
vn 0.036600 0.646200 -0.762300
vn 0.060300 0.661400 -0.747600
vn 0.042100 0.700800 -0.712100
vn -0.677800 0.735300 0.000000
vn -0.813100 0.582200 0.000000
vn -0.886800 0.462100 0.000000
vn 0.648800 0.760900 0.000000
vn 0.026800 0.558100 0.829300
vn 0.067000 0.567400 0.820700
vn 0.075800 0.606400 0.791500
vn 0.337500 -0.049100 -0.940000
vn 0.334400 -0.050800 -0.941100
vn 0.344000 -0.045400 -0.937900
vn 0.343200 -0.040200 0.938400
vn 0.331600 -0.046800 0.942300
vn 0.335400 -0.044600 0.941000
vn 0.848000 0.006200 0.529900
vn 0.843700 -0.000000 0.536800
vn 0.846800 0.004500 0.531900
vn -0.771100 -0.042700 -0.635300
vn -0.827000 -0.023500 -0.561800
vn -0.831400 -0.013700 -0.555400
vn 0.026600 0.723600 0.689700
vn 0.000000 0.760900 0.648800
vn 0.008000 0.749200 0.662300
vn -0.014800 0.716000 -0.698000
vn 0.000000 0.735300 -0.677800
vn -0.004900 0.729000 -0.684500
vn 0.851500 0.011400 -0.524300
vn 0.854500 0.016000 -0.519200
vn 0.847900 0.006100 -0.530100
vn -0.320200 -0.065000 0.945100
vn -0.311800 -0.069000 0.947700
vn -0.337100 -0.057000 0.939700
vn 0.074000 0.672200 0.736700
vn 0.039600 0.701500 0.711600
vn 0.058700 0.685500 0.725700
vn -0.337500 -0.065600 -0.939000
vn -0.313700 -0.076500 -0.946400
vn -0.321400 -0.073000 -0.944100
vn -0.771400 -0.037400 0.635200
vn -0.751200 -0.039600 0.658900
vn -0.833500 -0.012500 0.552400
vn 0.031200 -0.114800 0.992900
vn 0.038000 -0.059900 0.997500
vn 0.022800 -0.095300 0.995200
vn -0.555700 -0.831400 0.000000
vn 0.022200 -0.432500 0.901300
vn 0.037200 -0.413900 0.909600
vn 0.016100 -0.440000 0.897900
vn 0.022200 -0.432500 -0.901300
vn 0.000000 -0.459600 -0.888100
vn 0.016100 -0.440000 -0.897900
vn 0.089500 -0.996000 0.000000
vn 0.720400 0.693500 0.000000
vn 0.726600 0.687000 0.000000
vn 0.608000 -0.793900 0.000000
vn 0.444200 -0.896000 0.000000
vn 0.270500 -0.962700 0.000000
vn 0.087800 -0.206500 0.974500
vn 0.054300 -0.256900 0.964900
vn 0.039000 -0.203300 0.978300
vn 0.049000 -0.360500 -0.931500
vn 0.000000 -0.414200 -0.910200
vn 0.046700 -0.363100 -0.930600
vn 0.074600 0.561000 -0.824400
vn 0.058700 0.673400 -0.737000
vn 0.026900 0.522700 -0.852100
vn 0.049000 -0.360500 0.931500
vn 0.088600 -0.315400 0.944800
vn 0.046700 -0.363100 0.930600
vn 0.155000 -0.312700 -0.937100
vn 0.087800 -0.206500 -0.974500
vn 0.054300 -0.256900 -0.964900
vn -0.999300 0.037600 0.000000
vn -0.997500 0.071100 0.000000
vn -0.280300 -0.090800 0.955600
vn -0.237600 -0.115000 0.964500
vn -0.231900 -0.113000 0.966200
vn 0.000000 1.000000 0.000000
vn -0.131600 -0.122900 -0.983700
vn -0.134400 -0.120600 -0.983600
vn -0.132600 -0.122100 -0.983600
vn 0.022800 -0.095300 -0.995200
vn 0.038000 -0.059900 -0.997500
vn 0.031200 -0.114800 -0.992900
vn -0.313000 -0.949800 0.000000
vn -0.424200 -0.905500 0.000000
vn -0.131600 -0.122900 0.983700
vn -0.129500 -0.124700 0.983700
vn -0.132600 -0.122100 0.983600
vn 0.832400 -0.554200 0.000000
vn 0.000000 -1.000000 0.000000
vn -0.005100 -1.000000 0.005100
vn 0.007400 -0.999600 0.026100
vn -0.004900 -1.000000 -0.004900
vn 0.005500 -0.999700 -0.021900
vn -0.001400 -1.000000 -0.005200
vn 0.001200 -1.000000 -0.001300
vn 0.001200 -1.000000 -0.005600
vn 0.003400 -1.000000 -0.001400
vn 0.001400 -1.000000 0.005300
vn 0.001300 -1.000000 0.001400
vn -0.002100 -1.000000 0.007000
vn -0.221500 -0.122600 -0.967400
vn -0.231900 -0.113000 -0.966200
vn -0.362000 0.000000 -0.932200
vn 0.020600 0.301400 -0.953300
vn 0.027400 0.283000 0.958700
vn 0.000000 0.735300 0.677800
vn -0.019400 0.675000 0.737600
vn 0.000000 0.760900 -0.648800
vn 0.061400 0.686200 -0.724800
vn 0.098500 0.652200 -0.751600
vn -0.017100 0.595200 0.803400
vn 0.041200 0.633700 0.772500
vn 0.043500 0.605800 0.794400
vn 0.008000 0.733000 0.680200
vn 0.091500 0.662100 0.743800
vn 0.054900 0.669100 0.741200
vn 0.095000 0.659300 0.745800
vn 0.347800 -0.043200 -0.936600
vn 0.347900 -0.037500 0.936800
vn 0.851800 0.011700 0.523800
vn -0.843700 0.000000 -0.536800
vn -0.749300 -0.046800 -0.660500
vn 0.036900 0.654500 0.755200
vn 0.037000 0.678700 0.733500
vn -0.021400 0.707100 -0.706800
vn 0.843700 0.000000 -0.536800
vn -0.346800 -0.052400 0.936500
vn 0.094700 0.653600 0.750900
vn -0.346400 -0.061600 -0.936100
vn -0.843700 0.000000 0.536800
vn -0.831500 -0.016900 0.555300
vn 0.009600 0.000900 1.000000
vn 0.000000 -0.159900 0.987100
vn 0.000000 -0.459600 0.888100
vn 0.037200 -0.413900 -0.909600
vn 0.707800 0.706400 0.000000
vn 0.155000 -0.312700 0.937100
vn 0.119400 -0.155900 0.980500
vn 0.088600 -0.315400 -0.944800
vn 0.015600 0.640800 -0.767500
vn -0.019700 0.650100 -0.759600
vn -0.015600 0.596400 -0.802500
vn 0.098900 0.661400 -0.743500
vn 0.094600 0.664700 -0.741100
vn 0.082400 0.604300 -0.792500
vn 0.047100 0.605900 -0.794100
vn 0.004300 0.750100 -0.661300
vn 0.000000 -0.414200 0.910200
vn 0.039000 -0.203300 -0.978300
vn 0.119400 -0.155900 -0.980500
vn -0.221500 -0.122600 0.967400
vn -0.362000 -0.000000 0.932200
vn -0.310300 -0.070400 0.948000
vn -0.129500 -0.124700 -0.983700
vn 0.000000 -0.159900 -0.987100
vn 0.009600 0.000900 -1.000000
vn -0.134400 -0.120600 0.983600
usemtl dark_iron
s 1
f 1/1/1 2/2/2 3/3/3
f 4/4/4 5/5/4 6/6/4
f 7/7/5 8/8/5 9/9/5
f 10/10/6 11/11/6 12/12/6
f 13/13/7 12/14/7 14/15/7
f 7/16/8 15/15/8 16/14/8
f 17/17/7 18/18/7 19/19/7
f 20/20/9 21/21/10 22/22/11
f 23/23/12 24/24/13 5/25/14
f 25/23/15 26/26/16 6/25/17
f 27/27/18 28/28/19 29/29/20
f 30/30/21 31/31/22 32/32/23
f 31/33/24 33/34/25 32/35/26
f 34/36/27 29/29/27 35/37/27
f 29/38/28 36/39/28 37/40/28
f 36/39/29 25/41/29 23/42/29
f 7/43/30 38/44/30 32/32/30
f 39/45/31 25/23/32 40/46/33
f 41/47/7 9/15/7 8/16/7
f 42/47/8 28/48/8 27/16/8
f 43/49/34 44/50/35 3/51/36
f 1/52/37 39/45/38 40/46/39
f 30/8/6 38/7/6 16/53/6
f 45/54/40 28/48/41 46/55/42
f 47/56/43 33/57/44 48/58/45
f 33/57/7 31/59/7 49/60/7
f 50/60/8 10/13/8 51/61/8
f 8/62/46 7/43/47 52/63/48
f 10/64/49 13/65/50 35/37/51
f 53/66/52 43/67/53 2/68/54
f 54/69/55 39/45/56 1/52/57
f 55/70/58 52/35/59 56/71/60
f 3/51/61 44/50/62 57/72/63
f 27/10/5 34/73/5 14/12/5
f 58/74/64 54/75/65 59/76/66
f 60/77/67 61/78/68 62/79/69
f 63/80/70 17/81/70 20/82/70
f 64/83/8 65/84/8 66/85/8
f 67/86/8 68/87/8 69/88/8
f 70/89/71 71/90/72 72/91/73
f 73/92/74 68/93/75 67/94/76
f 74/95/77 67/96/77 72/97/77
f 75/98/78 56/99/78 52/100/79
f 76/101/80 77/102/80 78/103/80
f 78/103/81 77/102/81 79/104/81
f 79/105/82 74/95/82 71/106/82
f 78/107/83 80/108/84 81/109/85
f 82/110/86 73/92/87 74/111/88
f 23/23/89 4/26/90 44/50/91
f 80/108/92 83/112/93 71/90/94
f 79/113/95 77/114/96 82/110/97
f 61/115/98 24/116/98 23/42/99
f 84/117/100 63/118/101 85/119/102
f 85/120/103 65/121/103 86/122/103
f 87/123/103 88/124/103 81/125/103
f 64/126/104 89/127/105 90/128/106
f 76/129/107 24/130/108 88/131/109
f 66/132/110 91/133/110 90/134/110
f 91/133/111 63/135/111 22/136/111
f 65/126/112 85/119/113 91/128/114
f 62/137/115 6/138/115 5/139/115
f 92/30/116 16/44/117 49/140/118
f 15/43/119 9/62/116 41/141/120
f 42/28/121 93/27/116 14/36/122
f 15/43/119 41/141/120 59/142/123
f 46/143/124 42/28/121 14/36/122
f 49/140/118 16/44/117 48/144/125
f 46/143/124 14/36/122 2/2/2
f 16/44/117 15/43/119 48/144/125
f 1/1/1 46/143/124 2/2/2
f 15/43/119 59/142/123 48/144/125
f 12/65/126 11/64/116 50/145/127
f 48/144/125 59/142/123 1/1/1
f 12/65/126 50/145/127 2/2/2
f 3/3/3 48/144/125 1/1/1
f 14/36/122 12/65/126 2/2/2
f 26/146/4 4/4/4 6/6/4
f 15/53/5 7/7/5 9/9/5
f 13/73/6 10/10/6 12/12/6
f 34/16/7 13/13/7 14/15/7
f 38/13/8 7/16/8 16/14/8
f 20/147/7 17/17/7 19/19/7
f 90/148/128 22/22/11 86/149/129
f 20/20/9 19/150/130 21/21/10
f 21/21/10 86/149/129 22/22/11
f 4/26/131 23/23/12 5/25/14
f 61/24/132 25/23/15 6/25/17
f 29/29/20 34/36/133 27/27/18
f 28/28/19 45/151/134 29/29/20
f 38/44/135 30/30/21 32/32/23
f 75/71/136 32/35/26 33/34/25
f 33/34/25 47/152/137 75/71/136
f 13/65/27 34/36/27 35/37/27
f 35/153/28 29/38/28 37/40/28
f 37/40/29 36/39/29 23/42/29
f 52/63/30 7/43/30 32/32/30
f 29/154/138 45/155/139 36/156/140
f 54/69/141 58/157/142 26/26/143
f 36/156/140 45/155/139 40/46/33
f 39/45/31 54/69/141 26/26/143
f 36/156/140 40/46/33 25/23/32
f 26/26/143 25/23/32 39/45/31
f 58/157/142 56/71/144 26/26/143
f 94/158/7 41/47/7 8/16/7
f 93/15/8 42/47/8 27/16/8
f 2/159/145 43/49/34 3/51/36
f 46/160/146 1/52/37 40/46/39
f 92/9/6 30/8/6 16/53/6
f 42/47/41 46/55/42 28/48/41
f 40/161/147 45/54/40 46/55/42
f 49/60/148 48/58/45 33/57/44
f 57/162/149 47/56/43 48/58/45
f 92/14/7 49/60/7 30/13/7
f 31/59/7 30/13/7 49/60/7
f 51/61/8 53/66/8 50/60/8
f 50/60/8 11/14/8 10/13/8
f 52/63/48 55/163/150 94/141/151
f 94/141/151 8/62/46 52/63/48
f 51/164/152 10/64/49 35/37/51
f 50/60/153 53/66/52 2/68/54
f 59/165/154 54/69/55 1/52/57
f 58/157/155 55/70/58 56/71/60
f 48/166/156 3/51/61 57/72/63
f 93/11/5 27/10/5 14/12/5
f 59/76/66 41/47/157 94/158/157
f 55/167/158 58/74/64 59/76/66
f 59/76/66 94/158/157 55/167/158
f 6/168/159 62/79/69 61/78/68
f 81/109/160 60/77/67 62/79/69
f 22/169/70 63/80/70 20/82/70
f 89/170/8 64/83/8 66/85/8
f 72/171/8 67/86/8 69/88/8
f 69/172/161 70/89/71 72/91/73
f 74/111/162 73/92/74 67/94/76
f 71/106/77 74/95/77 72/97/77
f 75/98/78 4/4/163 26/146/163
f 52/100/79 32/173/79 75/98/78
f 75/98/78 26/146/163 56/99/78
f 62/137/80 76/101/80 78/103/80
f 83/174/81 78/103/81 79/104/81
f 83/175/82 79/105/82 71/106/82
f 78/107/83 83/112/164 80/108/84
f 81/109/85 62/79/165 78/107/83
f 79/113/166 82/110/86 74/111/88
f 53/176/167 51/177/168 35/154/169
f 75/71/170 47/152/171 4/26/90
f 43/49/172 53/176/167 37/156/173
f 47/152/171 57/72/174 4/26/90
f 53/176/167 35/154/169 37/156/173
f 4/26/90 57/72/174 44/50/91
f 44/50/91 43/49/172 23/23/89
f 37/156/173 23/23/89 43/49/172
f 70/89/175 80/108/92 71/90/94
f 87/178/176 82/110/97 77/114/96
f 77/114/96 76/179/177 87/178/176
f 61/115/98 60/180/7 88/181/7
f 23/42/99 25/41/99 61/115/98
f 61/115/98 88/181/7 24/116/98
f 91/128/178 85/119/102 63/118/101
f 84/117/100 18/182/179 17/183/180
f 17/183/180 63/118/101 84/117/100
f 86/122/103 21/184/103 84/185/103
f 19/82/103 18/81/103 84/185/103
f 84/185/103 85/120/103 86/122/103
f 65/121/103 64/186/103 86/122/103
f 21/184/103 19/82/103 84/185/103
f 81/125/103 80/187/103 82/188/103
f 70/189/103 69/190/103 68/191/103
f 68/191/103 73/192/103 70/189/103
f 82/188/103 87/123/103 81/125/103
f 88/124/103 60/193/103 81/125/103
f 80/187/103 70/189/103 82/188/103
f 73/192/103 82/188/103 70/189/103
f 86/119/181 64/126/104 90/128/106
f 88/131/109 87/194/182 76/129/107
f 76/129/107 5/195/183 24/130/108
f 89/196/110 66/132/110 90/134/110
f 90/134/111 91/133/111 22/136/111
f 66/127/184 65/126/112 91/128/114
f 76/101/115 62/137/115 5/139/115
