# Blender v2.76 (sub 0) OBJ File: ''
# www.blender.org
mtllib BrokenTowerWall.mtl
o tower_destroyed
v 3.412907 6.000000 -4.180088
v 3.259191 6.000000 -2.619524
v -4.586931 -0.000000 3.819760
v -3.026368 -0.000000 3.666042
v -1.525622 -0.000000 3.210795
v -0.142528 -0.000000 2.471514
v 1.069764 -0.000000 1.476611
v 2.064667 -0.000000 0.264318
v 2.803946 -0.000000 -1.118778
v 3.259191 -0.000000 -2.619524
v 3.412907 -0.000000 -4.180088
v 2.803946 6.000000 -1.118778
v 2.064667 6.000000 0.264318
v 1.069764 6.000000 1.476611
v -0.142528 6.000000 2.471515
v 2.518678 6.000000 -4.180088
v 2.379879 6.000000 -2.731390
v -4.586931 -0.000000 2.925531
v -3.138235 -0.000000 2.786730
v -1.820725 -0.000000 2.387068
v -0.606501 -0.000000 1.738051
v 0.457774 -0.000000 0.864622
v 1.331203 -0.000000 -0.199655
v 1.980219 -0.000000 -1.413880
v 2.379879 -0.000000 -2.731390
v 2.518678 -0.000000 -4.180088
v 1.980219 6.000000 -1.413880
v 1.331203 6.000000 -0.199655
v 0.457774 6.000000 0.864623
v -3.026368 4.556791 3.666042
v -4.586931 3.398656 3.819760
v -1.525622 5.234776 3.069608
v -0.632637 6.000000 2.733484
v -3.138235 4.077907 2.786730
v -4.586931 3.335805 2.925531
v -0.606501 5.947734 1.738052
v -1.820725 5.171125 2.474468
v -0.522132 6.000000 1.668812
v -0.540198 6.000000 1.842867
v -2.275995 4.759349 3.313421
v -3.701529 3.808821 3.742901
v -3.416509 4.085291 3.655755
v -4.196791 3.693088 3.781331
vt 0.811699 -0.298496
vt 0.811695 1.508471
vt 0.339440 1.508470
vt 0.339444 -0.298496
vt -0.132859 -0.298497
vt -0.132863 1.508469
vt -0.605166 1.508468
vt -0.605162 -0.298498
vt -1.077466 -0.298499
vt -1.077469 1.508466
vt -1.549773 1.508466
vt -1.549768 -0.298501
vt 1.081006 -0.278485
vt 1.519295 -0.278483
vt 1.519290 1.488462
vt 1.081001 1.488461
vt 1.933932 -0.278482
vt 2.348569 -0.278481
vt 2.348565 1.488464
vt 1.933928 1.488463
vt 2.763206 -0.278480
vt 2.763202 1.488465
vt 0.062665 0.811444
vt 0.652181 0.811444
vt 0.652181 0.473337
vt 0.062665 0.473337
vt 0.963313 0.544358
vt 1.532840 0.544358
vt 1.532840 0.217099
vt 0.963313 0.217099
vt 0.647396 0.811444
vt 1.236912 0.811444
vt 1.236912 0.473337
vt 0.647396 0.473337
vt 1.536282 1.202832
vt 2.105809 1.202832
vt 2.105809 0.875573
vt 1.536282 0.875573
vt 1.536282 0.873595
vt 2.105809 0.873595
vt 2.105809 0.546336
vt 1.536282 0.546336
vt 2.201840 0.806129
vt 2.410739 0.806129
vt 2.410739 0.516339
vt 0.963313 1.202832
vt 1.532840 1.202832
vt 1.532840 0.875573
vt 0.963313 0.875573
vt 0.963313 0.873595
vt 1.532840 0.873595
vt 1.532840 0.546336
vt 0.963313 0.546336
vt -1.116367 0.811444
vt -0.526851 0.811444
vt -0.526851 0.473337
vt -1.116367 0.473337
vt 1.536282 0.544358
vt 2.105809 0.544358
vt 2.105809 0.217099
vt 1.536282 0.217099
vt 0.390344 1.202832
vt 0.959872 1.202832
vt 0.959872 0.875573
vt 0.390344 0.875573
vt 0.390344 0.873595
vt 0.959872 0.873595
vt 0.959872 0.546336
vt 0.390344 0.546336
vt 1.231207 0.811444
vt 1.820723 0.811444
vt 1.820723 0.473337
vt 1.277941 0.473337
vt 1.231207 0.521654
vt 3.177842 -0.278479
vt 3.592479 -0.278478
vt 3.592476 1.244370
vt 3.177839 1.473074
vt 3.144970 1.488466
vt 4.007114 -0.278478
vt 4.445403 -0.278477
vt 4.445403 0.703886
vt 4.007114 0.989908
vt -1.717137 1.508465
vt -2.022075 1.336457
vt -2.022072 -0.298502
vt 4.714708 -0.298488
vt 4.714709 0.725054
vt -2.494374 -0.298503
vt -2.494378 1.040039
vt -2.612442 0.961289
vt -2.730505 0.882539
vt -2.848569 0.803789
vt -2.966633 0.725039
vt -2.966630 -0.298504
vt -2.258227 1.188248
vt 2.126042 1.311083
vt 1.574972 1.408520
vt 1.023901 1.505957
vt 1.033026 0.954644
vt 2.000599 0.783564
vt 0.057206 1.033429
vt 0.077500 0.954644
vt 0.321172 1.505957
vt 0.005618 0.941082
vt 2.996171 0.426561
vt 3.199446 0.928872
vt 2.931095 1.024425
vt 2.662744 1.119978
vt 2.394393 1.215531
vn 0.995200 0.000000 0.098000
vn 0.881900 -0.000000 0.471400
vn 0.634400 -0.000000 0.773000
vn 0.956900 0.000000 0.290300
vn 0.773000 -0.000000 0.634400
vn -0.995400 0.000000 -0.095400
vn -0.881900 0.000000 -0.471400
vn -0.956900 0.000000 -0.290300
vn -0.773000 0.000000 -0.634400
vn 0.000000 1.000000 0.000000
vn -0.000000 -1.000000 -0.000000
vn 0.000000 0.000000 -1.000000
vn -0.497200 0.006800 -0.867600
vn -0.634400 0.000000 -0.773000
vn -0.095400 0.000000 -0.995400
vn -0.264300 0.009100 -0.964400
vn 0.433700 0.007100 0.901000
vn -1.000000 0.000000 0.000000
vn 0.095400 0.002000 0.995400
vn 0.325100 0.019200 0.945500
vn -0.542200 0.834600 -0.097500
vn -0.547800 0.833100 -0.076100
vn -0.565100 0.824900 -0.013300
vn -0.562700 0.826400 -0.022500
vn -0.540400 0.834900 -0.104200
vn -0.559800 0.826600 -0.058100
vn -0.566300 0.823800 -0.025700
vn -0.576600 0.816300 0.033500
vn -0.534600 0.835800 -0.124900
usemtl stone_wall_3_d
s 1
f 11/1/1 1/2/1 2/3/1 10/4/1
f 9/5/2 12/6/2 13/7/2 8/8/2
f 7/9/3 14/10/3 15/11/3 6/12/3
f 10/4/4 2/3/4 12/6/4 9/5/4
f 8/8/5 13/7/5 14/10/5 7/9/5
f 26/13/6 25/14/6 17/15/6 16/16/6
f 24/17/7 23/18/7 28/19/7 27/20/7
f 25/14/8 24/17/8 27/20/8 17/15/8
f 23/18/9 22/21/9 29/22/9 28/19/9
f 13/23/10 12/24/10 27/25/10 28/26/10
f 6/27/11 5/28/11 20/29/11 21/30/11
f 14/31/10 13/32/10 28/33/10 29/34/10
f 7/35/11 6/36/11 21/37/11 22/38/11
f 8/39/11 7/40/11 22/41/11 23/42/11
f 33/43/10 15/44/10 39/45/10
f 9/46/11 8/47/11 23/48/11 24/49/11
f 10/50/11 9/51/11 24/52/11 25/53/11
f 2/54/10 1/55/10 16/56/10 17/57/10
f 11/58/11 10/59/11 25/60/11 26/61/11
f 4/62/11 3/63/11 18/64/11 19/65/11
f 1/2/12 11/1/12 26/13/12 16/16/12
f 12/55/10 2/23/10 17/26/10 27/56/10
f 5/66/11 4/67/11 19/68/11 20/69/11
f 15/70/10 14/71/10 29/72/10 38/73/10 39/74/10
f 21/75/13 20/76/13 37/77/13 36/78/13
f 22/21/14 21/75/14 36/78/14 38/79/14 29/22/14
f 19/80/15 18/81/15 35/82/15 34/83/15
f 20/76/16 19/80/16 34/83/16 37/77/16
f 6/12/17 15/11/17 33/84/17 32/85/17 5/86/17
f 3/87/18 31/88/18 35/82/18 18/81/18
f 4/89/19 30/90/19 42/91/19 41/92/19 43/93/19 31/94/19 3/95/19
f 5/86/20 32/85/20 40/96/20 30/90/20 4/89/20
usemtl granite_1_d
f 30/97/21 40/98/22 32/99/23 37/100/24 34/101/25
f 39/102/26 36/103/27 33/104/28
f 39/102/26 38/105/26 36/103/27
f 34/101/25 35/106/29 31/107/29 43/108/29 41/109/29 42/110/29 30/97/21
f 33/104/28 36/103/27 37/100/24 32/99/23
