# Blender v2.76 (sub 0) OBJ File: ''
# www.blender.org
mtllib TowerStairs.mtl
o tower_stair_stone
v 1.402447 0.015096 -2.324694
v 3.617012 0.015096 -2.029598
v 1.522563 0.015096 -3.234727
v 3.737128 0.015096 -2.939632
v 1.402447 0.854126 -2.324694
v 3.617012 0.854126 -2.029598
v 1.240107 0.539001 -1.779239
v 3.396838 0.539001 -1.194171
v 1.478253 0.539001 -2.665507
v 3.634983 0.539001 -2.080439
v 1.240107 1.323305 -1.779239
v 3.396838 1.323305 -1.194171
v 1.007807 1.008180 -1.259963
v 3.069266 1.008180 -0.395079
v 1.359849 1.008180 -2.107081
v 3.421307 1.008180 -1.242197
v 1.007807 1.792485 -1.259963
v 3.069266 1.792485 -0.395079
v 1.395459 1.735285 -1.455808
v 2.932666 1.735285 -0.815822
v 1.493783 1.735285 -1.692404
v 3.030990 1.735285 -1.052418
v 0.709578 1.477359 -0.775880
v 2.639979 1.477359 0.353806
v 1.169405 1.477359 -1.569142
v 3.099805 1.477359 -0.439455
v 0.709578 2.261663 -0.775880
v 2.639979 2.261663 0.353806
v 0.350598 1.946539 -0.335394
v 2.116431 1.946538 1.039485
v 0.910228 1.946539 -1.061030
v 2.676060 1.946538 0.313850
v 0.350598 2.730843 -0.335394
v 2.116431 2.730843 1.039485
v -0.062901 2.415717 0.053850
v 1.507709 2.415717 1.650053
v 0.586816 2.415717 -0.591563
v 2.157427 2.415717 1.004641
v -0.062901 3.200022 0.053850
v 1.507709 3.200022 1.650053
v 0.249650 3.024668 -0.099024
v 1.626469 3.024668 1.292524
v 0.431113 3.024668 -0.279285
v 1.807932 3.024668 1.112263
v -0.523742 2.884896 0.385094
v 0.824382 2.884896 2.174914
v 0.204785 2.884896 -0.168892
v 1.552909 2.884896 1.620928
v -0.523742 3.669201 0.385094
v 0.824382 3.669201 2.174914
v -1.023924 3.354075 0.652588
v 0.078311 3.354075 2.604954
v -0.229235 3.354075 0.199645
v 0.873001 3.354075 2.152011
v -1.023924 4.138380 0.652588
v 0.078311 4.138380 2.604954
v -1.554765 3.823254 0.851688
v -0.717553 3.823254 2.932709
v -0.707708 3.823254 0.507651
v 0.129504 3.823254 2.588671
v -1.554765 4.607559 0.851688
v -0.717553 4.607559 2.932709
v -1.103373 4.314052 1.090999
v -0.477217 4.314052 2.637305
v -0.866794 4.314052 0.994911
v -0.240638 4.314052 2.541216
v -2.107049 4.292434 0.978939
v -1.549394 4.292434 3.152488
v -1.222329 4.292434 0.749781
v -0.664674 4.292434 2.923331
v -2.107049 5.076738 0.978939
v -1.549394 5.076738 3.152488
v -2.671190 4.761613 1.032130
v -2.402772 4.761612 3.260478
v -1.764165 4.761613 0.921829
v -1.495747 4.761612 3.150177
v -2.671190 5.545917 1.032130
v -2.402772 5.545916 3.260479
v -3.237394 5.230792 1.010339
v -3.262873 5.230791 3.254802
v -2.323809 5.230792 1.020809
v -2.349288 5.230791 3.265272
v -3.237394 6.015096 1.010340
v -3.262873 6.015095 3.254803
v -2.910936 5.603434 1.256719
v -2.928722 5.603435 2.812535
v -2.655776 5.603435 1.259644
v -2.673562 5.603435 2.815459
v 3.030990 0.015096 -1.052418
v 1.493783 0.015096 -1.692404
v 1.395459 0.015096 -1.455808
v 2.932666 0.015096 -0.815822
v 1.807932 0.015096 1.112263
v 0.431113 0.015096 -0.279285
v 0.249650 0.015096 -0.099024
v 1.626469 0.015096 1.292524
v -0.240637 0.015096 2.541216
v -0.866794 0.015096 0.994911
v -1.103373 0.015096 1.090999
v -0.477217 0.015096 2.637305
v -2.673562 0.015096 2.815459
v -2.655776 0.015096 1.259643
v -2.910936 0.015096 1.256719
v -2.928722 0.015096 2.812535
v 1.452150 0.015096 -2.775977
v 3.686281 0.015096 -2.770423
v 1.453294 0.015096 -3.693902
v 3.687425 0.015096 -3.688349
v 1.452150 0.454126 -2.775977
v 3.686281 0.454126 -2.770423
v 1.504182 0.854126 -3.095465
v 1.522563 0.713721 -3.234727
v 3.737128 0.713721 -2.939632
v 3.718746 0.854126 -2.800370
v 1.441809 1.323306 -2.529882
v 1.478253 1.182900 -2.665507
v 3.634983 1.182900 -2.080439
v 3.598541 1.323305 -1.944814
v 1.305976 1.792485 -1.977447
v 1.359849 1.652079 -2.107080
v 3.421307 1.652079 -1.242197
v 3.367434 1.792485 -1.112563
v 1.099037 2.261664 -1.447750
v 1.169405 2.121258 -1.569142
v 3.099805 2.121258 -0.439455
v 3.029438 2.261663 -0.318063
v 0.824588 2.730843 -0.949986
v 0.910228 2.590437 -1.061030
v 2.676060 2.590437 0.313850
v 2.590420 2.730843 0.424893
v 0.487390 3.200022 -0.492795
v 0.586816 3.059616 -0.591563
v 2.157427 3.059616 1.004641
v 2.058001 3.200022 1.103408
v 0.093299 3.669201 -0.084116
v 0.204785 3.528795 -0.168892
v 1.552909 3.528795 1.620928
v 1.441423 3.669201 1.705704
v -0.350845 4.138380 0.268958
v -0.229235 3.997974 0.199645
v 0.873001 3.997974 2.152011
v 0.751390 4.138380 2.221325
v -0.837332 4.607559 0.560299
v -0.707708 4.467154 0.507651
v 0.129504 4.467153 2.588671
v -0.000121 4.607559 2.641319
v -1.357717 5.076738 0.784849
v -1.222329 4.936333 0.749781
v -0.664674 4.936332 2.923331
v -0.800062 5.076738 2.958399
v -1.902967 5.545917 0.938708
v -1.764165 5.405512 0.921829
v -1.495747 5.405511 3.150177
v -1.634548 5.545916 3.167056
v -2.463615 6.015096 1.019208
v -2.323809 5.874691 1.020810
v -2.349288 5.874690 3.265273
v -2.489093 6.015095 3.263671
v 1.453119 0.454126 -3.553421
v 1.453294 0.313721 -3.693902
v 3.687425 0.313721 -3.688349
v 3.687250 0.454126 -3.547868
vt 1.097751 -0.263057
vt 1.097751 0.044335
vt 0.334815 0.044335
vt 0.334815 -0.263057
vt -0.769211 1.199482
vt 0.033333 1.199482
vt 0.033333 1.450441
vt -0.769211 1.450441
vt 0.791773 0.212452
vt 0.505342 0.212452
vt 0.505342 -0.073979
vt 0.747941 -0.073979
vt 0.791773 -0.026047
vt 1.801703 0.966510
vt 1.097751 0.966511
vt 1.097751 0.685411
vt 1.801703 0.685411
vt 0.033117 -0.419057
vt -0.769620 -0.419057
vt -0.768951 -0.698266
vt 0.033786 -0.698266
vt 0.549750 -0.176771
vt 0.798379 -0.176771
vt 0.798379 0.000197
vt 0.760331 0.035763
vt 0.549750 0.035763
vt 1.097751 1.273903
vt 1.860687 0.966511
vt 1.860687 1.273903
vt -0.768830 -1.000903
vt 0.033907 -1.000902
vt 0.033907 -0.769602
vt -0.768830 -0.769602
vt 0.217422 1.073979
vt -0.069009 1.073979
vt -0.069009 0.787548
vt 0.173589 0.787548
vt 0.217422 0.838825
vt 1.097751 -0.218430
vt 1.834264 -0.218430
vt 1.834264 0.044335
vt 2.002811 -0.398499
vt 1.199764 -0.398499
vt 1.200708 -0.677601
vt 2.003755 -0.677601
vt 0.335948 0.500684
vt 0.584577 0.500683
vt 0.584577 0.675169
vt 0.546529 0.713217
vt 0.335948 0.713217
vt -0.428122 -0.570450
vt -0.428122 -0.263058
vt -1.191058 -0.263058
vt -1.191058 -0.570450
vt 1.200879 -0.980223
vt 2.003927 -0.980222
vt 2.003926 -0.748922
vt 1.200879 -0.748922
vt 0.791773 0.786803
vt 0.505342 0.786803
vt 0.505342 0.500372
vt 0.747941 0.500372
vt 0.791773 0.551649
vt 1.091598 1.933263
vt 1.847887 1.933263
vt 1.847887 2.196028
vt 1.091598 2.196028
vt 2.003212 0.184833
vt 1.199764 0.184833
vt 1.200918 -0.094130
vt 2.004367 -0.094129
vt 0.799574 -0.176770
vt 1.048203 -0.176771
vt 1.048203 -0.002285
vt 1.010156 0.035763
vt 0.799574 0.035763
vt 0.291675 0.168045
vt 0.291675 0.083289
vt 0.468643 0.083289
vt 0.468643 0.168045
vt 0.334815 0.966510
vt 0.334815 1.273902
vt -0.428121 1.273903
vt -0.428122 0.966510
vt 1.201127 -0.396734
vt 2.004576 -0.396733
vt 2.004576 -0.165433
vt 1.201127 -0.165433
vt 0.217422 0.499628
vt -0.069009 0.499628
vt -0.069009 0.213197
vt 0.173589 0.213197
vt 0.217422 0.264473
vt 0.335258 2.196028
vt -0.427678 2.196028
vt -0.427678 1.933263
vt 0.335258 1.933263
vt 1.421594 1.801062
vt 0.617678 1.801062
vt 0.618963 1.522262
vt 1.422879 1.522262
vt 0.549750 0.036958
vt 0.798379 0.036958
vt 0.798379 0.211444
vt 0.760331 0.249492
vt 0.549750 0.249492
vt -0.428122 0.659118
vt 0.334815 0.659118
vt 0.619195 1.219678
vt 1.423110 1.219678
vt 1.423110 1.450979
vt 0.619195 1.450979
vt 0.791773 0.499628
vt 0.505342 0.499628
vt 0.505342 0.213197
vt 0.747941 0.213197
vt 0.791773 0.264473
vt 0.616018 1.573802
vt -0.188397 1.573802
vt -0.187071 1.295175
vt 0.617344 1.295176
vt 0.086123 0.037130
vt 0.334752 0.037130
vt 0.334752 0.211616
vt 0.296705 0.249663
vt 0.086123 0.249663
vt -1.191058 1.273902
vt -1.191058 0.966510
vt -0.186832 0.992613
vt 0.617583 0.992613
vt 0.617583 1.223914
vt -0.186832 1.223914
vt 1.078949 0.212452
vt 0.792518 0.212452
vt 0.792518 -0.073979
vt 1.035117 -0.073979
vt 1.078949 -0.022703
vt 1.097751 0.396354
vt 1.834364 0.396354
vt 1.834364 0.659119
vt 1.097751 0.659119
vt 0.411379 0.186463
vt -0.393534 0.186463
vt -0.392259 -0.091992
vt 0.412654 -0.091992
vt 0.799501 0.250859
vt 1.048130 0.250859
vt 1.048130 0.425344
vt 1.010082 0.463392
vt 0.799501 0.463392
vt 0.692950 0.168045
vt 0.692950 0.083289
vt 1.046394 0.083289
vt 1.046394 0.168045
vt 0.334815 -0.570449
vt -0.392029 -0.394532
vt 0.412885 -0.394531
vt 0.412885 -0.163230
vt -0.392029 -0.163231
vt 0.504598 1.073979
vt 0.218166 1.073979
vt 0.218166 0.787548
vt 0.460765 0.787548
vt 0.504598 0.838825
vt 1.801851 0.044335
vt 1.801851 0.307100
vt 1.097751 0.307100
vt -0.191505 0.991001
vt -0.996880 0.991001
vt -0.995743 0.712706
vt -0.190368 0.712706
vt 0.086196 -0.176771
vt 0.334825 -0.176685
vt 0.334765 -0.002199
vt 0.296705 0.035836
vt 0.086123 0.035763
vt -0.428121 0.044334
vt -0.995537 0.410187
vt -0.190163 0.410187
vt -0.190163 0.641487
vt -0.995538 0.641487
vt 0.217422 0.786803
vt -0.069009 0.786803
vt -0.069009 0.500372
vt 0.173589 0.500372
vt 0.217422 0.551649
vt 1.097751 -0.481195
vt 1.757115 -0.481195
vt 1.757115 -0.218430
vt 0.617372 0.990848
vt -0.188397 0.990848
vt -0.187477 0.712689
vt 0.618292 0.712689
vt 0.086123 0.250859
vt 0.334752 0.250859
vt 0.334752 0.425345
vt 0.296705 0.463392
vt 0.086123 0.463392
vt -0.428122 0.351726
vt -1.191058 0.659118
vt -1.191058 0.351726
vt -0.187311 0.410187
vt 0.618458 0.410187
vt 0.618458 0.641487
vt -0.187311 0.641487
vt 1.078949 0.499628
vt 0.792518 0.499628
vt 0.792518 0.213197
vt 1.035117 0.213197
vt 1.078949 0.264473
vt 1.137254 -0.759882
vt 1.740436 -0.759882
vt 1.740436 -0.497117
vt 1.137254 -0.497117
vt 1.220718 0.186013
vt 0.414651 0.186013
vt 0.415291 -0.092043
vt 1.221357 -0.092043
vt 0.549676 0.250859
vt 0.798306 0.250859
vt 0.798306 0.425345
vt 0.760258 0.463392
vt 0.549676 0.463392
vt 0.415406 -0.394532
vt 1.221473 -0.394531
vt 1.221473 -0.163231
vt 0.415406 -0.163231
vt 0.504598 0.212452
vt 0.218166 0.212452
vt 0.218166 -0.073979
vt 0.460765 -0.073979
vt 0.504598 -0.022703
vt -1.191058 -1.048940
vt -0.654529 -1.048940
vt -0.654529 -0.786175
vt -1.191058 -0.786175
vt 1.425600 1.573086
vt 0.619349 1.573086
vt 0.619665 1.295093
vt 1.425916 1.295093
vt 0.335948 0.964237
vt 0.584577 0.964237
vt 0.584577 1.138723
vt 0.546529 1.176770
vt 0.335948 1.176770
vt 0.334815 0.351727
vt 1.097751 0.351727
vt 0.619722 0.992613
vt 1.425973 0.992613
vt 1.425973 1.223914
vt 0.619722 1.223914
vt 0.504598 0.499628
vt 0.218166 0.499628
vt 0.218166 0.213197
vt 0.460765 0.213197
vt 0.504598 0.264473
vt 2.200998 -0.759882
vt 2.200998 -0.497118
vt 1.200480 0.412127
vt 2.006784 0.412128
vt 2.006814 0.690102
vt 1.200509 0.690101
vt 0.585772 0.750508
vt 0.834401 0.750508
vt 0.834401 0.924994
vt 0.796354 0.963041
vt 0.585772 0.963041
vt 0.334815 1.581295
vt 1.097751 1.581295
vt 2.006820 0.992579
vt 1.200514 0.992579
vt 1.200514 0.761279
vt 2.006820 0.761279
vt 0.504598 0.786803
vt 0.218166 0.786803
vt 0.218166 0.500372
vt 0.460765 0.500372
vt 0.504598 0.551649
vt 0.354735 -0.786175
vt -0.021865 -0.786175
vt -0.021865 -1.048940
vt 0.354736 -1.048940
vt 0.620632 0.532957
vt 1.423176 0.532956
vt 1.422830 0.812228
vt 0.620286 0.812229
vt 0.799501 0.464588
vt 1.048130 0.464588
vt 1.048130 0.639073
vt 1.010082 0.677121
vt 0.799501 0.677121
vt -1.267841 -0.390900
vt -0.852248 -0.390900
vt -0.852248 1.324116
vt -1.267842 1.324118
vt 0.016327 1.368248
vt -0.055472 1.368248
vt -0.055473 -0.368249
vt 0.016328 -0.368249
vt -0.436655 -0.390900
vt -0.436656 1.323955
vt -0.852248 1.323953
vt -0.055824 1.368248
vt -0.127623 1.368248
vt -0.127624 -0.368249
vt -0.055824 -0.368249
vt -0.852248 0.927150
vt -1.267842 0.927078
vt 0.160725 0.967594
vt 0.088877 0.967594
vt 0.088877 -0.368249
vt 0.160725 -0.368249
vt -0.436655 0.926927
vt -0.852248 0.926999
vt 0.088526 0.967595
vt 0.016679 0.967595
vt 0.016679 -0.368249
vt 0.088526 -0.368249
vt -0.852248 0.530334
vt -1.267841 0.530199
vt 0.305366 0.566934
vt 0.233398 0.566934
vt 0.233397 -0.368248
vt 0.305366 -0.368249
vt -0.436655 0.530082
vt -0.852248 0.530218
vt 0.233046 0.566933
vt 0.161077 0.566933
vt 0.161076 -0.368248
vt 0.233046 -0.368249
vt -0.690091 -0.390900
vt -0.482004 -0.390900
vt -0.482004 0.133806
vt -0.690091 0.133628
vt -0.096948 1.390900
vt -0.273917 1.390900
vt -0.273917 0.866257
vt -0.096948 0.866194
vt -0.273917 -0.390900
vt -0.273917 0.133565
vt -0.482004 0.133743
vt 0.270233 1.390900
vt -0.083211 1.390900
vt -0.083211 0.866372
vt 0.270233 0.866435
vt -1.190677 1.888661
vt -1.191058 1.581294
vt -0.428059 1.581295
vt -0.427678 1.888661
vt 1.422767 0.990847
vt 0.620224 0.990848
vt 0.620224 0.883576
vt 1.422767 0.883576
vt 0.217422 0.212452
vt -0.069009 0.212452
vt -0.069009 -0.073979
vt 0.173586 -0.073979
vt 0.217422 0.017624
vt -0.530885 -1.048940
vt -1.191058 -1.196028
vt -0.530885 -1.196028
vt 0.798379 -0.032207
vt 0.033270 1.521785
vt -0.769274 1.521785
vt 0.032924 1.801062
vt -0.769620 1.801062
vn 0.000000 -1.000000 -0.000000
vn 0.132100 -0.000000 -0.991200
vn -0.991400 0.000000 -0.130900
vn -0.132100 0.000000 0.991200
vn 0.000000 1.000000 0.000000
vn 0.991400 0.000000 0.130900
vn 0.261800 0.000000 -0.965100
vn -0.965700 0.000000 -0.259500
vn -0.261800 0.000000 0.965100
vn 0.965700 0.000000 0.259500
vn 0.386900 0.000000 -0.922100
vn -0.923400 0.000000 -0.383800
vn -0.386900 0.000000 0.922100
vn 0.923400 0.000000 0.383800
vn 0.505100 0.000000 -0.863100
vn -0.865200 -0.000000 -0.501500
vn -0.505100 0.000000 0.863100
vn 0.865200 0.000000 0.501500
vn 0.614300 0.000000 -0.789000
vn -0.791900 0.000000 -0.610700
vn -0.614300 -0.000000 0.789000
vn 0.791900 0.000000 0.610700
vn 0.712800 0.000000 -0.701400
vn -0.704800 0.000000 -0.709500
vn -0.712800 -0.000000 0.701400
vn 0.704800 -0.000000 0.709500
vn 0.798800 0.000000 -0.601600
vn -0.605300 0.000000 -0.796000
vn -0.798800 0.000000 0.601600
vn 0.605300 -0.000000 0.796000
vn 0.870800 0.000000 -0.491600
vn -0.495200 0.000000 -0.868800
vn -0.870800 0.000000 0.491600
vn 0.495200 -0.000000 0.868800
vn 0.927700 0.000000 -0.373200
vn -0.376300 0.000000 -0.926500
vn -0.927700 0.000000 0.373200
vn 0.376300 0.000000 0.926500
vn 0.968600 0.000000 -0.248500
vn -0.250700 0.000000 -0.968100
vn -0.968600 0.000000 0.248500
vn 0.250700 0.000000 0.968100
vn 0.992800 0.000000 -0.119600
vn -0.120700 0.000000 -0.992700
vn -0.992800 -0.000000 0.119600
vn 0.120700 -0.000000 0.992700
vn 0.999900 0.000000 0.011400
vn 0.011500 0.000000 -0.999900
vn -0.999900 0.000000 -0.011400
vn -0.011500 -0.000000 0.999900
vn -0.926900 0.000000 0.375300
vn 0.926900 0.000000 -0.375300
vn -0.710900 -0.000000 0.703300
vn 0.710900 0.000000 -0.703300
vn -0.384400 0.000000 0.923200
vn 0.384400 0.000000 -0.923200
vn 0.002500 -0.000000 -1.000000
vn -1.000000 0.000000 -0.001200
vn -0.002500 0.000000 1.000000
vn 1.000000 0.000000 0.001200
vn 0.093400 0.707300 -0.700800
vn 0.185100 0.707200 -0.682400
vn 0.273600 0.707000 -0.652100
vn 0.357300 0.706900 -0.610500
vn 0.434700 0.706700 -0.558300
vn 0.504500 0.706400 -0.496400
vn 0.565500 0.706200 -0.426000
vn 0.616700 0.706000 -0.348200
vn 0.657200 0.705800 -0.264400
vn 0.686300 0.705700 -0.176100
vn 0.703500 0.705600 -0.084700
vn 0.708600 0.705600 0.008000
vn 0.001800 0.707300 -0.706900
usemtl stone_wall_3_d
s 1
f 1/1/1 3/2/1 4/3/1 2/4/1
f 4/5/2 3/6/2 112/7/2 113/8/2
f 3/9/3 1/10/3 5/11/3 111/12/3 112/13/3
f 1/14/4 2/15/4 6/16/4 5/17/4
f 11/18/5 12/19/5 118/20/5 115/21/5
f 2/22/6 4/23/6 113/24/6 114/25/6 6/26/6
f 7/27/1 9/15/1 10/28/1 8/29/1
f 10/30/7 9/31/7 116/32/7 117/33/7
f 9/34/8 7/35/8 11/36/8 115/37/8 116/38/8
f 7/39/9 8/40/9 12/41/9 11/2/9
f 17/42/5 18/43/5 122/44/5 119/45/5
f 8/46/10 10/47/10 117/48/10 118/49/10 12/50/10
f 13/51/1 15/52/1 16/53/1 14/54/1
f 16/55/11 15/56/11 120/57/11 121/58/11
f 15/59/12 13/60/12 17/61/12 119/62/12 120/63/12
f 13/64/13 14/65/13 18/66/13 17/67/13
f 27/68/5 28/69/5 126/70/5 123/71/5
f 14/72/14 16/73/14 121/74/14 122/75/14 18/76/14
f 19/77/5 20/78/5 22/79/5 21/80/5
f 23/81/1 25/82/1 26/83/1 24/84/1
f 26/85/15 25/86/15 124/87/15 125/88/15
f 25/89/16 23/90/16 27/91/16 123/92/16 124/93/16
f 23/94/17 24/95/17 28/96/17 27/97/17
f 33/98/5 34/99/5 130/100/5 127/101/5
f 24/102/18 26/103/18 125/104/18 126/105/18 28/106/18
f 29/84/1 31/107/1 32/108/1 30/81/1
f 32/109/19 31/110/19 128/111/19 129/112/19
f 31/113/20 29/114/20 33/115/20 127/116/20 128/117/20
f 29/97/21 30/64/21 34/67/21 33/94/21
f 39/118/5 40/119/5 134/120/5 131/121/5
f 30/122/22 32/123/22 129/124/22 130/125/22 34/126/22
f 35/84/1 37/83/1 38/127/1 36/128/1
f 38/129/23 37/130/23 132/131/23 133/132/23
f 37/133/24 35/134/24 39/135/24 131/136/24 132/137/24
f 35/138/25 36/139/25 40/140/25 39/141/25
f 49/142/5 50/143/5 138/144/5 135/145/5
f 36/146/26 38/147/26 133/148/26 134/149/26 40/150/26
f 41/151/5 42/152/5 44/153/5 43/154/5
f 45/52/1 47/51/1 48/155/1 46/4/1
f 48/156/27 47/157/27 136/158/27 137/159/27
f 47/160/28 45/161/28 49/162/28 135/163/28 136/164/28
f 45/2/29 46/165/29 50/166/29 49/167/29
f 55/168/5 56/169/5 142/170/5 139/171/5
f 46/172/30 48/173/30 137/174/30 138/175/30 50/176/30
f 51/177/1 53/52/1 54/4/1 52/3/1
f 54/178/31 53/179/31 140/180/31 141/181/31
f 53/182/32 51/183/32 55/184/32 139/185/32 140/186/32
f 51/187/33 52/188/33 56/189/33 55/39/33
f 61/190/5 62/191/5 146/192/5 143/193/5
f 52/194/34 54/195/34 141/196/34 142/197/34 56/198/34
f 57/199/1 59/107/1 60/200/1 58/201/1
f 60/202/35 59/203/35 144/204/35 145/205/35
f 59/206/36 57/207/36 61/208/36 143/209/36 144/210/36
f 57/211/37 58/212/37 62/213/37 61/214/37
f 71/215/5 72/216/5 150/217/5 147/218/5
f 58/219/38 60/220/38 145/221/38 146/222/38 62/223/38
f 63/151/5 64/152/5 66/153/5 65/154/5
f 67/15/1 69/27/1 70/82/1 68/81/1
f 70/224/39 69/225/39 148/226/39 149/227/39
f 69/228/40 67/229/40 71/230/40 147/231/40 148/232/40
f 67/233/41 68/234/41 72/235/41 71/236/41
f 77/237/5 78/238/5 154/239/5 151/240/5
f 68/241/42 70/242/42 149/243/42 150/244/42 72/245/42
f 73/108/1 75/246/1 76/247/1 74/141/1
f 76/248/43 75/249/43 152/250/43 153/251/43
f 75/252/44 73/253/44 77/254/44 151/255/44 152/256/44
f 73/212/45 74/257/45 78/258/45 77/213/45
f 83/259/5 84/260/5 158/261/5 155/262/5
f 74/263/46 76/264/46 153/265/46 154/266/46 78/267/46
f 79/268/1 81/82/1 82/27/1 80/269/1
f 82/270/47 81/271/47 156/272/47 157/273/47
f 81/274/48 79/275/48 83/276/48 155/277/48 156/278/48
f 79/279/49 80/280/49 84/281/49 83/282/49
f 109/283/5 110/284/5 162/285/5 159/286/5
f 80/287/50 82/288/50 157/289/50 158/290/50 84/291/50
f 85/151/5 86/152/5 88/153/5 87/154/5
f 86/292/49 85/293/49 103/294/49 104/295/49
f 85/296/48 87/297/48 102/298/48 103/299/48
f 87/293/47 88/300/47 101/301/47 102/302/47
f 88/303/50 86/304/50 104/305/50 101/306/50
f 64/292/51 63/293/51 99/307/51 100/308/51
f 63/309/36 65/310/36 98/311/36 99/312/36
f 65/293/52 66/300/52 97/313/52 98/314/52
f 66/315/38 64/316/38 100/317/38 97/318/38
f 42/292/53 41/293/53 95/319/53 96/320/53
f 41/321/24 43/322/24 94/323/24 95/324/24
f 43/293/54 44/300/54 93/325/54 94/326/54
f 44/327/26 42/328/26 96/329/26 93/330/26
f 20/331/55 19/332/55 91/333/55 92/334/55
f 19/335/12 21/336/12 90/337/12 91/338/12
f 21/332/56 22/339/56 89/340/56 90/341/56
f 22/342/14 20/343/14 92/344/14 89/345/14
f 105/346/1 107/347/1 108/348/1 106/349/1
f 108/350/57 107/351/57 160/352/57 161/353/57
f 107/354/58 105/355/58 109/356/58 159/357/58 160/358/58
f 105/359/59 106/233/59 110/360/59 109/361/59
f 106/22/60 108/23/60 161/362/60 162/25/60 110/26/60
f 113/8/61 112/7/61 111/363/61 114/364/61
f 117/33/62 116/32/62 115/21/62 118/20/62
f 121/58/63 120/57/63 119/45/63 122/44/63
f 125/88/64 124/87/64 123/71/64 126/70/64
f 129/112/65 128/111/65 127/101/65 130/100/65
f 133/132/66 132/131/66 131/121/66 134/120/66
f 137/159/67 136/158/67 135/145/67 138/144/67
f 141/181/68 140/180/68 139/171/68 142/170/68
f 145/205/69 144/204/69 143/193/69 146/192/69
f 149/227/70 148/226/70 147/218/70 150/217/70
f 153/251/71 152/250/71 151/240/71 154/239/71
f 157/273/72 156/272/72 155/262/72 158/261/72
f 161/353/73 160/352/73 159/286/73 162/285/73
f 5/365/5 6/366/5 114/364/5 111/363/5
