# Blender v2.76 (sub 0) OBJ File: ''
# www.blender.org
mtllib wall.mtl
o stone_wall_detailed
v -3.000000 6.016094 1.200000
v -3.000000 6.016094 -1.200000
v -3.000000 1.660377 -1.200000
v -3.000000 1.475130 -1.014753
v -3.000000 1.475130 1.014754
v -3.000000 1.660377 1.200000
v -3.000000 0.016094 -1.200000
v -3.000000 0.016094 1.200000
v -3.000000 1.289884 1.200000
v -3.000000 1.289884 -1.200000
v -1.000252 3.916265 -1.200000
v 2.999999 1.475130 1.014754
v 2.999999 1.475130 -1.014753
v 2.999999 1.660377 -1.200000
v 2.999999 6.016094 -1.200000
v 2.999999 6.016094 1.200000
v 2.999999 1.660377 1.200000
v 2.999999 0.016094 1.200000
v 2.999999 0.016094 -1.200000
v 2.999999 1.289884 -1.200000
v 2.999999 1.289884 1.200000
v 0.999749 3.916265 1.200000
v -1.000252 3.916265 1.200000
v -1.000252 3.916264 1.410786
v 0.999749 3.916264 1.410786
v 0.999749 3.916265 -1.200000
v -1.000252 1.660377 1.200000
v -1.000252 1.475130 1.385247
v -1.000252 1.475130 1.768575
v -1.000252 1.655957 1.913596
v -3.000000 1.475130 1.385247
v -3.000000 1.475130 1.768575
v -1.000252 0.016094 1.953821
v -1.000252 1.289884 1.953822
v -3.000000 1.289884 1.953822
v -3.000000 0.016094 1.953821
v 0.814502 1.475130 1.953822
v 0.999749 1.655957 1.913596
v -0.815005 1.475130 1.953822
v 0.999749 0.016094 1.953821
v 0.999749 1.289884 1.953822
v 2.999999 0.016094 1.953821
v 2.999999 1.289884 1.953822
v 2.999999 1.475130 1.385247
v 2.999999 1.475130 1.768575
v 0.999749 1.660377 1.200000
v 0.999749 1.475130 1.385247
v 0.999749 1.475130 1.768575
v 0.999749 3.916265 -1.410786
v -1.000252 3.916265 -1.410786
v -1.000252 1.660377 -1.200000
v -1.000252 1.655957 -1.913596
v -1.000252 1.475130 -1.768575
v -1.000252 1.475130 -1.385247
v -3.000000 1.475130 -1.768575
v -3.000000 1.475130 -1.385247
v -1.000252 0.016094 -1.953822
v -3.000000 0.016094 -1.953822
v -3.000000 1.289884 -1.953822
v -1.000252 1.289884 -1.953822
v 0.814502 1.475130 -1.953822
v -0.815005 1.475130 -1.953822
v 0.999749 1.655957 -1.913596
v 0.999749 0.016094 -1.953822
v 0.999749 1.289884 -1.953822
v 2.999999 0.016094 -1.953822
v 2.999999 1.289884 -1.953822
v 2.999999 1.475130 -1.768575
v 2.999999 1.475130 -1.385247
v 0.999749 1.660377 -1.200000
v 0.999749 1.475130 -1.385247
v 0.999749 1.475130 -1.768575
v 1.254402 1.485257 2.088024
v 1.254402 4.443240 1.598370
v 0.745103 4.443240 1.598370
v 0.745103 1.485257 2.088024
v 1.309229 1.431165 1.125304
v 1.309229 4.442504 0.973230
v 1.309229 4.442504 1.543296
v 1.309229 1.431165 2.041782
v 1.309229 0.031348 2.041782
v 1.309229 0.031348 1.125304
v 1.254402 1.376336 2.096978
v 0.745103 1.376336 2.096978
v 0.745103 0.086176 2.096978
v 1.254402 0.086176 2.096978
v 1.254402 4.497333 1.025290
v 0.745103 4.497333 1.025290
v 0.745103 4.497333 1.534588
v 1.254402 4.497333 1.534588
v -1.318249 1.434381 2.041781
v -1.318249 1.434381 1.125304
v -1.332598 0.034638 1.125303
v -1.332598 0.034638 2.041781
v 0.690275 1.431165 2.041782
v 0.690275 4.442504 1.543296
v 0.690275 4.442504 0.973230
v 0.690275 1.431165 1.125304
v -0.753598 1.482687 2.088024
v -0.723277 4.483439 1.598370
v -1.232548 4.488659 1.598370
v -1.262869 1.487908 2.088024
v -0.699327 1.428036 1.125304
v -0.668459 4.482141 0.973230
v -0.668459 4.482141 1.543296
v -0.699327 1.428036 2.041781
v -0.713676 0.028293 2.041781
v -0.713676 0.028293 1.125303
v -0.754714 1.373773 2.096978
v -1.263986 1.378994 2.096978
v -1.277211 0.088901 2.096978
v -0.767939 0.083681 2.096978
v -0.722723 4.537528 1.025290
v -1.231994 4.542748 1.025290
v -1.231994 4.542748 1.534588
v -0.722723 4.537528 1.534588
v -1.287381 4.488485 1.543296
v -1.287381 4.488485 0.973230
v 0.690275 0.031348 2.041782
v 0.690275 0.031348 1.125304
v 1.254402 1.485257 -2.088024
v 0.745103 1.485257 -2.088024
v 0.745103 4.443240 -1.598370
v 1.254402 4.443240 -1.598370
v 1.309229 1.431165 -1.125304
v 1.309229 1.431165 -2.041782
v 1.309229 4.442504 -1.543296
v 1.309229 4.442504 -0.973230
v 1.309229 0.031348 -1.125304
v 1.309229 0.031348 -2.041782
v 1.254402 1.376337 -2.096978
v 1.254402 0.086176 -2.096978
v 0.745103 0.086176 -2.096978
v 0.745103 1.376337 -2.096978
v 1.254402 4.497333 -1.025289
v 1.254402 4.497333 -1.534588
v 0.745103 4.497333 -1.534588
v 0.745103 4.497333 -1.025289
v -1.318249 1.434381 -2.041781
v -1.332598 0.034638 -2.041781
v -1.332598 0.034638 -1.125304
v -1.318249 1.434381 -1.125303
v 0.690275 1.431165 -2.041782
v 0.690275 1.431165 -1.125304
v 0.690275 4.442504 -0.973230
v 0.690275 4.442504 -1.543296
v -0.753598 1.482688 -2.088024
v -1.262869 1.487908 -2.088024
v -1.232548 4.488659 -1.598370
v -0.723277 4.483439 -1.598370
v -0.699327 1.428036 -1.125303
v -0.699327 1.428036 -2.041781
v -0.668459 4.482141 -1.543295
v -0.668459 4.482141 -0.973230
v -0.713676 0.028293 -1.125304
v -0.713676 0.028293 -2.041781
v -0.754714 1.373773 -2.096978
v -0.767939 0.083681 -2.096978
v -1.277211 0.088901 -2.096978
v -1.263986 1.378994 -2.096978
v -0.722723 4.537528 -1.025289
v -0.722723 4.537528 -1.534588
v -1.231994 4.542748 -1.534588
v -1.231994 4.542748 -1.025289
v -1.287381 4.488485 -0.973230
v -1.287381 4.488485 -1.543295
v 0.690275 0.031348 -2.041782
v 0.690275 0.031348 -1.125304
vt -0.116384 1.002765
vt -0.173450 1.071463
vt -0.855716 1.002765
vt -0.855715 1.612544
vt -0.116384 1.612543
vt -1.448347 -0.736447
vt -1.448347 0.823741
vt -0.731960 0.071597
vt 0.348053 1.002765
vt 0.348053 -0.612544
vt 1.087385 1.002765
vt 0.348053 1.612544
vt 1.030319 1.071463
vt 1.087385 1.612543
vt -0.662187 0.189625
vt 1.499775 0.189624
vt 1.499775 0.836546
vt -0.544180 -0.878974
vt -0.544180 -0.986502
vt 0.476081 -0.986502
vt 0.700813 0.823741
vt 0.700813 -0.736447
vt -0.015574 0.071597
vt -0.731960 -0.736447
vt -0.517848 -0.813396
vt -0.805546 -0.815178
vt -0.602829 0.096100
vt -1.564440 -0.973474
vt -1.564440 -1.169022
vt -0.544180 -1.169022
vt -0.731960 -0.869155
vt -1.448347 -0.869155
vt -1.448347 -1.325418
vt -0.015574 -0.738030
vt -0.731960 -0.738030
vt -0.665606 -0.802801
vt -0.855716 1.140162
vt -1.087934 1.140162
vt -1.030868 1.071463
vt -0.081928 -0.802801
vt -0.731960 -1.325418
vt 0.700813 -0.869155
vt -0.015574 -0.869155
vt -0.015574 -1.325418
vt 1.087385 1.140161
vt 1.319603 1.140161
vt 1.319603 1.612543
vt -0.015574 -0.736447
vt -0.592533 -0.888081
vt -0.015574 -0.802801
vt -0.747078 -0.888081
vt -0.821763 -0.888081
vt 1.144451 1.071463
vt -0.912782 1.071463
vt -0.798649 1.071463
vt 0.476081 -1.169022
vt 0.476081 -1.263522
vt 1.496342 -1.263522
vt -1.564440 -1.263522
vt -0.544180 -1.263522
vt 0.700813 -0.802801
vt -1.448347 -0.802801
vt -0.731960 -0.802801
vt 0.476081 -0.973474
vt 1.496342 -1.169022
vt 0.115835 1.140161
vt 0.115835 1.612543
vt -0.116384 1.140161
vt 0.172901 1.071463
vt 0.348053 1.140161
vt 0.405119 1.071463
vt -0.855716 -0.612544
vt -0.116384 -0.612544
vt 1.087385 -0.612544
vt -0.662187 0.836546
vt 0.476081 -0.878974
vt -0.517848 0.096100
vt -0.544180 -0.973474
vt -1.087934 1.612544
vt 0.700813 -1.325418
vt 1.262537 1.071463
vt 1.496342 -0.973474
vt -0.059318 1.071463
vt 0.058768 1.071463
vt 0.290987 1.071463
vt -1.032117 0.382322
vt -1.032117 -0.028204
vt 1.052177 -0.028205
vt -0.070935 1.287472
vt 2.031944 1.249074
vt 2.018166 1.708307
vt -0.093086 2.025767
vt -1.068898 1.986669
vt -1.046747 1.248375
vt 1.128408 -0.028205
vt 2.025293 -0.028204
vt 2.025293 0.382322
vt -0.354227 -1.026037
vt 0.001018 -1.026037
vt 0.001018 -0.615511
vt 1.070935 0.465615
vt 2.046747 0.426517
vt 2.068898 1.164812
vt -1.018166 0.886449
vt -1.031944 0.427216
vt 1.084026 -0.072399
vt 1.090292 -0.028205
vt -1.070232 -0.028204
vt -1.037864 -0.072399
vt 1.052178 0.382322
vt 1.090293 0.382322
vt 1.084026 0.426517
vt 0.039262 -0.615511
vt 0.007092 -0.571316
vt -0.390540 -1.070232
vt 0.007092 -1.070232
vt -0.354227 -0.615511
vt -1.037864 0.426517
vt 1.128408 0.382322
vt 0.039262 -1.026037
vt -0.430971 -1.070232
vt -0.392471 -1.026037
vt -0.392471 -0.615511
vt 2.032011 1.210808
vt 1.132641 1.246843
vt -0.132641 2.068701
vt -1.032011 2.032666
vt 1.093086 1.203909
vt -0.390540 -0.571316
vt -0.430971 -0.571316
vn -1.000000 0.000000 0.000000
vn -0.000000 0.000000 -1.000000
vn 1.000000 0.000000 0.000000
vn 0.000000 1.000000 0.000000
vn -0.000000 -0.000000 1.000000
vn 0.000000 0.217100 0.976100
vn 0.706800 0.030600 0.706800
vn 0.615100 -0.493300 0.615100
vn 0.704100 0.091900 0.704100
vn -0.706800 0.030600 0.706800
vn -0.577300 0.577400 0.577300
vn -0.704100 0.091900 0.704100
vn 0.000000 0.707100 0.707100
vn 0.000000 0.217100 -0.976100
vn 0.704100 0.091900 -0.704100
vn 0.615100 -0.493300 -0.615100
vn 0.706800 0.030600 -0.706800
vn -0.706800 0.030600 -0.706800
vn -0.615100 -0.493300 -0.615100
vn -0.704100 0.091900 -0.704100
vn 0.000000 0.707100 -0.707100
vn 0.577300 0.577400 0.577300
vn -0.615100 -0.493300 0.615100
vn 0.577300 0.577400 -0.577300
vn -0.577300 0.577400 -0.577300
vn 0.000000 0.163300 0.986600
vn -0.999900 0.010200 0.000000
vn -0.999900 0.010300 0.000000
vn 0.001700 0.161000 0.986900
vn 0.999900 -0.010200 -0.000000
vn 0.999900 -0.010100 0.000000
vn 0.999900 -0.010300 -0.000000
vn 0.010200 0.999900 0.000000
vn -0.999900 0.010100 0.000000
vn -0.677600 0.060300 0.732900
vn -0.550800 0.636500 0.539800
vn 0.677600 0.060300 0.732900
vn 0.550800 0.636500 0.539800
vn -0.677000 0.067200 0.732900
vn -0.544300 0.642200 0.539800
vn 0.678200 0.053300 0.732900
vn 0.557300 0.630900 0.539800
vn -0.704700 0.115900 0.700000
vn -0.707100 0.707100 0.000000
vn 0.707100 0.707100 0.000000
vn 0.704700 0.115900 0.700000
vn 0.000000 0.081900 0.996600
vn 0.000000 0.762700 0.646800
vn 0.000000 -0.709500 0.704700
vn -0.709500 0.000000 0.704700
vn 0.709500 0.000000 0.704700
vn -0.702800 0.121500 0.701000
vn -0.703600 0.121400 0.700100
vn -0.703600 0.121400 0.700200
vn -0.699800 0.714300 0.000000
vn 0.714300 0.699800 0.000000
vn 0.705200 0.107300 0.700800
vn 0.705200 0.107300 0.700900
vn 0.705900 0.107100 0.700100
vn 0.000800 0.081900 0.996600
vn 0.007800 0.762600 0.646800
vn -0.007300 -0.709400 0.704700
vn -0.709400 0.007300 0.704700
vn 0.709400 -0.007300 0.704700
vn 0.000000 0.163300 -0.986600
vn 0.001700 0.161000 -0.986900
vn -0.677600 0.060300 -0.732900
vn -0.550800 0.636500 -0.539800
vn 0.677600 0.060300 -0.732900
vn 0.550800 0.636500 -0.539800
vn -0.677000 0.067200 -0.732900
vn -0.544300 0.642200 -0.539800
vn 0.678200 0.053300 -0.732900
vn 0.557300 0.630900 -0.539800
vn -0.704700 0.115900 -0.700000
vn 0.704700 0.115900 -0.700000
vn 0.000000 0.081900 -0.996600
vn 0.000000 0.762700 -0.646800
vn 0.000000 -0.709500 -0.704700
vn -0.709500 0.000000 -0.704700
vn 0.709500 0.000000 -0.704700
vn -0.702800 0.121500 -0.701000
vn -0.703600 0.121400 -0.700200
vn 0.705900 0.107100 -0.700100
vn 0.705200 0.107300 -0.700900
vn 0.705200 0.107300 -0.700800
vn 0.000800 0.081900 -0.996600
vn 0.007800 0.762600 -0.646800
vn -0.007300 -0.709400 -0.704700
vn -0.709400 0.007300 -0.704700
vn 0.709400 -0.007300 -0.704700
vn -0.703600 0.121400 -0.700100
usemtl stone_wall_3_d.001
s 1
f 3/1/1 4/2/1 6/3/1
f 8/4/1 4/2/1 7/5/1
f 3/6/2 2/7/2 11/8/2
f 14/9/3 15/10/3 17/11/3
f 19/12/3 12/13/3 18/14/3
f 15/15/4 2/16/4 1/17/4
f 23/18/4 24/19/4 25/20/4
f 15/21/2 14/22/2 26/23/2
f 17/22/5 16/21/5 22/23/5
f 27/24/5 23/8/5 6/6/5
f 27/25/1 30/26/1 24/27/1
f 31/28/4 32/29/4 29/30/4
f 34/31/5 35/32/5 36/33/5
f 38/34/6 30/35/6 39/36/6
f 9/37/1 35/38/1 32/39/1
f 37/40/5 39/36/5 33/41/5
f 43/42/5 41/43/5 40/44/5
f 21/45/3 43/46/3 42/47/3
f 46/48/5 17/22/5 22/23/5
f 46/25/3 38/26/3 47/49/3
f 48/50/7 38/50/8 37/40/9
f 29/51/10 34/52/11 39/52/12
f 44/53/3 21/45/3 12/13/3
f 31/54/1 6/3/1 5/55/1
f 48/56/13 41/57/13 43/58/13
f 32/29/13 35/59/13 34/60/13
f 46/48/13 47/50/13 44/61/13
f 6/6/13 31/62/13 28/63/13
f 47/64/4 48/56/4 45/65/4
f 49/20/4 50/19/4 11/18/4
f 51/24/2 3/6/2 11/8/2
f 52/26/1 54/49/1 51/25/1
f 53/30/4 55/29/4 56/28/4
f 58/33/2 59/32/2 60/31/2
f 52/35/14 50/8/14 63/34/14
f 59/66/1 58/67/1 10/68/1
f 57/41/2 61/40/2 64/44/2
f 64/44/2 65/43/2 67/42/2
f 67/66/3 68/69/3 20/70/3
f 14/22/2 70/48/2 26/23/2
f 63/26/3 49/27/3 70/25/3
f 61/40/15 63/50/16 72/50/17
f 53/51/18 52/26/19 62/52/20
f 14/9/3 13/71/3 20/70/3
f 10/68/1 4/2/1 3/1/1
f 67/58/21 65/57/21 72/56/21
f 60/60/21 59/59/21 55/29/21
f 69/61/21 71/50/21 70/48/21
f 54/63/21 56/62/21 3/6/21
f 68/65/4 72/56/4 71/64/4
f 22/23/5 16/21/5 1/7/5
f 2/7/2 15/21/2 26/23/2
f 1/7/5 6/6/5 23/8/5
f 6/3/1 1/72/1 2/73/1
f 2/73/1 3/1/1 6/3/1
f 4/2/1 5/55/1 6/3/1
f 10/68/1 7/5/1 4/2/1
f 8/4/1 9/37/1 5/55/1
f 5/55/1 4/2/1 8/4/1
f 17/11/3 12/13/3 13/71/3
f 13/71/3 14/9/3 17/11/3
f 15/10/3 16/74/3 17/11/3
f 21/45/3 18/14/3 12/13/3
f 19/12/3 20/70/3 13/71/3
f 13/71/3 12/13/3 19/12/3
f 16/75/4 15/15/4 1/17/4
f 22/76/4 23/18/4 25/20/4
f 24/27/1 23/77/1 27/25/1
f 27/25/1 28/49/1 30/26/1
f 29/51/1 30/26/1 28/49/1
f 28/78/4 31/28/4 29/30/4
f 33/41/5 34/31/5 36/33/5
f 39/36/6 37/40/6 38/34/6
f 38/34/6 25/23/6 24/8/6
f 24/8/6 30/35/6 38/34/6
f 32/39/1 31/54/1 9/37/1
f 9/37/1 8/4/1 36/79/1
f 36/79/1 35/38/1 9/37/1
f 33/41/5 40/44/5 37/40/5
f 41/43/5 37/40/5 40/44/5
f 39/36/5 34/31/5 33/41/5
f 42/80/5 43/42/5 40/44/5
f 42/47/3 18/14/3 21/45/3
f 21/45/3 44/53/3 45/81/3
f 45/81/3 43/46/3 21/45/3
f 48/51/3 47/49/3 38/26/3
f 46/25/3 22/77/3 25/27/3
f 25/27/3 38/26/3 46/25/3
f 41/43/22 48/50/7 37/40/9
f 30/26/23 29/51/10 39/52/12
f 17/11/3 44/53/3 12/13/3
f 9/37/1 31/54/1 5/55/1
f 45/65/13 48/56/13 43/58/13
f 29/30/13 32/29/13 34/60/13
f 17/22/13 46/48/13 44/61/13
f 27/24/13 6/6/13 28/63/13
f 44/82/4 47/64/4 45/65/4
f 26/76/4 49/20/4 11/18/4
f 51/25/1 11/77/1 50/27/1
f 50/27/1 52/26/1 51/25/1
f 53/51/1 54/49/1 52/26/1
f 54/78/4 53/30/4 56/28/4
f 57/41/2 58/33/2 60/31/2
f 63/34/14 61/40/14 62/36/14
f 62/36/14 52/35/14 63/34/14
f 50/8/14 49/23/14 63/34/14
f 10/68/1 56/83/1 55/84/1
f 55/84/1 59/66/1 10/68/1
f 58/67/1 7/5/1 10/68/1
f 65/43/2 64/44/2 61/40/2
f 57/41/2 60/31/2 62/36/2
f 62/36/2 61/40/2 57/41/2
f 66/80/2 64/44/2 67/42/2
f 20/70/3 19/12/3 66/67/3
f 66/67/3 67/66/3 20/70/3
f 68/69/3 69/85/3 20/70/3
f 70/25/3 71/49/3 63/26/3
f 72/51/3 63/26/3 71/49/3
f 49/27/3 26/77/3 70/25/3
f 65/43/24 61/40/15 72/50/17
f 60/52/25 53/51/18 62/52/20
f 69/85/3 14/9/3 20/70/3
f 56/83/1 10/68/1 3/1/1
f 68/65/21 67/58/21 72/56/21
f 53/30/21 60/60/21 55/29/21
f 14/22/21 69/61/21 70/48/21
f 51/24/21 54/63/21 3/6/21
f 69/82/4 68/65/4 71/64/4
f 23/8/5 22/23/5 1/7/5
f 11/8/2 2/7/2 26/23/2
usemtl granite_1_d
f 74/86/26 75/87/26 76/88/26
f 77/89/3 78/90/3 79/91/3
f 80/92/3 81/93/3 82/94/3
f 84/95/5 85/96/5 86/97/5
f 88/98/4 89/99/4 90/100/4
f 92/101/27 93/102/28 94/103/28
f 96/104/1 97/105/1 98/101/1
f 100/86/29 101/87/29 102/88/29
f 103/89/30 104/90/31 105/91/31
f 103/89/30 106/92/30 107/93/32
f 110/95/5 111/96/5 112/97/5
f 114/98/33 115/99/33 116/100/33
f 117/104/34 118/105/34 92/101/27
f 76/88/35 95/106/35 84/107/35
f 75/87/36 89/108/36 96/109/36
f 73/110/37 83/111/37 80/112/37
f 90/100/38 74/113/38 79/114/38
f 102/88/39 91/106/39 110/107/39
f 101/87/40 115/108/40 117/109/40
f 99/110/41 109/111/41 106/112/41
f 116/100/42 100/113/42 105/114/42
f 76/88/43 75/87/43 96/109/43
f 88/98/44 97/115/44 96/116/44
f 87/117/45 90/100/45 79/114/45
f 73/110/46 80/112/46 79/118/46
f 83/119/47 73/110/47 76/88/47
f 89/99/48 75/120/48 74/113/48
f 81/121/49 86/122/49 85/123/49
f 119/103/50 85/124/50 84/125/50
f 81/93/51 80/92/51 83/126/51
f 102/88/52 101/87/53 117/109/54
f 114/98/55 118/115/55 117/116/55
f 113/117/56 116/100/56 105/114/56
f 99/110/57 106/112/58 105/118/59
f 110/95/60 109/119/60 99/110/60
f 116/100/61 115/99/61 101/120/61
f 107/121/62 112/122/62 111/123/62
f 94/103/63 111/124/63 110/125/63
f 106/92/64 109/126/64 112/127/64
f 98/101/1 120/102/1 119/103/1
f 122/88/65 123/87/65 124/86/65
f 125/89/3 126/92/3 127/91/3
f 125/89/3 129/94/3 130/93/3
f 132/97/2 133/96/2 134/95/2
f 136/100/4 137/99/4 138/98/4
f 139/128/27 140/103/28 141/102/28
f 144/101/1 145/105/1 146/104/1
f 148/88/66 149/87/66 150/86/66
f 151/89/30 152/92/30 153/91/31
f 155/94/32 156/93/32 152/92/30
f 158/97/2 159/96/2 160/95/2
f 162/100/33 163/99/33 164/98/33
f 142/101/27 165/105/34 166/104/34
f 122/88/67 134/107/67 143/106/67
f 123/87/68 146/109/68 137/108/68
f 121/110/69 126/112/69 131/111/69
f 136/100/70 127/114/70 124/113/70
f 148/88/71 160/107/71 139/106/71
f 149/87/72 166/109/72 163/108/72
f 147/110/73 152/112/73 157/111/73
f 162/100/74 153/114/74 150/113/74
f 122/88/75 143/106/75 146/109/75
f 146/116/44 145/115/44 138/98/44
f 135/117/45 128/129/45 127/114/45
f 127/118/76 126/112/76 121/110/76
f 122/88/77 121/110/77 131/119/77
f 124/113/78 123/120/78 137/99/78
f 133/123/79 132/122/79 130/121/79
f 134/125/80 133/124/80 167/103/80
f 132/127/81 131/126/81 126/92/81
f 148/88/82 139/106/82 166/109/83
f 166/116/55 165/115/55 164/98/55
f 161/117/56 154/129/56 153/114/56
f 153/118/84 152/112/85 147/110/86
f 160/95/87 148/88/87 147/110/87
f 162/100/88 150/113/88 149/120/88
f 159/123/89 158/122/89 156/121/89
f 139/128/90 160/125/90 159/124/90
f 158/127/91 157/126/91 152/92/91
f 167/103/1 168/102/1 144/101/1
f 73/110/26 74/86/26 76/88/26
f 80/92/3 77/89/3 79/91/3
f 77/89/3 80/92/3 82/94/3
f 83/119/5 84/95/5 86/97/5
f 87/117/4 88/98/4 90/100/4
f 91/128/27 92/101/27 94/103/28
f 95/128/1 96/104/1 98/101/1
f 99/110/29 100/86/29 102/88/29
f 106/92/30 103/89/30 105/91/31
f 108/94/32 103/89/30 107/93/32
f 109/119/5 110/95/5 112/97/5
f 113/117/33 114/98/33 116/100/33
f 91/128/27 117/104/34 92/101/27
f 95/106/43 76/88/43 96/109/43
f 89/99/44 88/98/44 96/116/44
f 78/129/45 87/117/45 79/114/45
f 74/86/46 73/110/46 79/118/46
f 84/95/47 83/119/47 76/88/47
f 90/100/48 89/99/48 74/113/48
f 119/130/49 81/121/49 85/123/49
f 95/128/50 119/103/50 84/125/50
f 86/127/51 81/93/51 83/126/51
f 91/106/52 102/88/52 117/109/54
f 115/99/55 114/98/55 117/116/55
f 104/129/56 113/117/56 105/114/56
f 100/86/59 99/110/57 105/118/59
f 102/88/60 110/95/60 99/110/60
f 100/113/61 116/100/61 101/120/61
f 94/130/62 107/121/62 111/123/62
f 91/128/63 94/103/63 110/125/63
f 107/93/64 106/92/64 112/127/64
f 95/128/1 98/101/1 119/103/1
f 121/110/65 122/88/65 124/86/65
f 128/90/3 125/89/3 127/91/3
f 126/92/3 125/89/3 130/93/3
f 131/119/2 132/97/2 134/95/2
f 135/117/4 136/100/4 138/98/4
f 142/101/27 139/128/27 141/102/28
f 143/128/1 144/101/1 146/104/1
f 147/110/66 148/88/66 150/86/66
f 154/90/31 151/89/30 153/91/31
f 151/89/30 155/94/32 152/92/30
f 157/119/2 158/97/2 160/95/2
f 161/117/33 162/100/33 164/98/33
f 139/128/27 142/101/27 166/104/34
f 123/87/75 122/88/75 146/109/75
f 137/99/44 146/116/44 138/98/44
f 136/100/45 135/117/45 127/114/45
f 124/86/76 127/118/76 121/110/76
f 134/95/77 122/88/77 131/119/77
f 136/100/78 124/113/78 137/99/78
f 167/130/79 133/123/79 130/121/79
f 143/128/80 134/125/80 167/103/80
f 130/93/81 132/127/81 126/92/81
f 149/87/92 148/88/82 166/109/83
f 163/99/55 166/116/55 164/98/55
f 162/100/56 161/117/56 153/114/56
f 150/86/84 153/118/84 147/110/86
f 157/119/87 160/95/87 147/110/87
f 163/99/88 162/100/88 149/120/88
f 140/130/89 159/123/89 156/121/89
f 140/103/90 139/128/90 159/124/90
f 156/93/91 158/127/91 152/92/91
f 143/128/1 167/103/1 144/101/1
