# Blender v2.76 (sub 0) OBJ File: ''
# www.blender.org
mtllib wall.mtl
o stone_wall_detailed
v -3.000000 6.016094 1.200000
v -3.000000 6.016094 -1.200000
v -3.000000 1.660377 -1.200000
v -3.000000 1.475130 -1.014753
v -3.000000 1.475130 1.014754
v -3.000000 1.660377 1.200000
v -3.000000 0.016094 -1.200000
v -3.000000 0.016094 1.200000
v -3.000000 1.289884 1.200000
v -3.000000 1.289884 -1.200000
v -1.000252 3.916265 -1.200000
v 2.999999 1.475130 1.014754
v 2.999999 1.475130 -1.014753
v 2.999999 1.660377 -1.200000
v 2.999999 6.016094 -1.200000
v 2.999999 6.016094 1.200000
v 2.999999 1.660377 1.200000
v 2.999999 0.016094 1.200000
v 2.999999 0.016094 -1.200000
v 2.999999 1.289884 -1.200000
v 2.999999 1.289884 1.200000
v 0.999749 3.916265 1.200000
v -1.000252 3.916265 1.200000
v -1.000252 3.916264 1.410786
v 0.999749 3.916264 1.410786
v 0.999749 3.916265 -1.200000
v -1.000252 1.660377 1.200000
v -1.000252 1.475130 1.385247
v -1.000252 1.475130 1.768575
v -1.000252 1.655957 1.913596
v -3.000000 1.475130 1.385247
v -3.000000 1.475130 1.768575
v -1.000252 0.016094 1.953821
v -1.000252 1.289884 1.953822
v -3.000000 1.289884 1.953822
v -3.000000 0.016094 1.953821
v 0.814502 1.475130 1.953822
v 0.999749 1.655957 1.913596
v -0.815005 1.475130 1.953822
v 0.999749 0.016094 1.953821
v 0.999749 1.289884 1.953822
v 2.999999 0.016094 1.953821
v 2.999999 1.289884 1.953822
v 2.999999 1.475130 1.385247
v 2.999999 1.475130 1.768575
v 0.999749 1.660377 1.200000
v 0.999749 1.475130 1.385247
v 0.999749 1.475130 1.768575
v 0.999749 3.916265 -1.410786
v -1.000252 3.916265 -1.410786
v -1.000252 1.660377 -1.200000
v -1.000252 1.655957 -1.913596
v -1.000252 1.475130 -1.768575
v -1.000252 1.475130 -1.385247
v -3.000000 1.475130 -1.768575
v -3.000000 1.475130 -1.385247
v -1.000252 0.016094 -1.953822
v -3.000000 0.016094 -1.953822
v -3.000000 1.289884 -1.953822
v -1.000252 1.289884 -1.953822
v 0.814502 1.475130 -1.953822
v -0.815005 1.475130 -1.953822
v 0.999749 1.655957 -1.913596
v 0.999749 0.016094 -1.953822
v 0.999749 1.289884 -1.953822
v 2.999999 0.016094 -1.953822
v 2.999999 1.289884 -1.953822
v 2.999999 1.475130 -1.768575
v 2.999999 1.475130 -1.385247
v 0.999749 1.660377 -1.200000
v 0.999749 1.475130 -1.385247
v 0.999749 1.475130 -1.768575
v 1.254402 1.485257 2.088024
v 1.254402 4.443240 1.598370
v 0.745103 4.443240 1.598370
v 0.745103 1.485257 2.088024
v 1.309229 1.431165 1.125304
v 1.309229 4.442504 0.973230
v 1.309229 4.442504 1.543296
v 1.309229 1.431165 2.041782
v 1.309229 0.031348 2.041782
v 1.309229 0.031348 1.125304
v 1.254402 1.376336 2.096978
v 0.745103 1.376336 2.096978
v 0.745103 0.086176 2.096978
v 1.254402 0.086176 2.096978
v 1.254402 4.497333 1.025290
v 0.745103 4.497333 1.025290
v 0.745103 4.497333 1.534588
v 1.254402 4.497333 1.534588
v -1.318249 1.434381 2.041781
v -1.318249 1.434381 1.125304
v -1.332598 0.034638 1.125303
v -1.332598 0.034638 2.041781
v 0.690275 1.431165 2.041782
v 0.690275 4.442504 1.543296
v 0.690275 4.442504 0.973230
v 0.690275 1.431165 1.125304
v -0.753598 1.482687 2.088024
v -0.723277 4.483439 1.598370
v -1.232548 4.488659 1.598370
v -1.262869 1.487908 2.088024
v -0.699327 1.428036 1.125304
v -0.668459 4.482141 0.973230
v -0.668459 4.482141 1.543296
v -0.699327 1.428036 2.041781
v -0.713676 0.028293 2.041781
v -0.713676 0.028293 1.125303
v -0.754714 1.373773 2.096978
v -1.263986 1.378994 2.096978
v -1.277211 0.088901 2.096978
v -0.767939 0.083681 2.096978
v -0.722723 4.537528 1.025290
v -1.231994 4.542748 1.025290
v -1.231994 4.542748 1.534588
v -0.722723 4.537528 1.534588
v -1.287381 4.488485 1.543296
v -1.287381 4.488485 0.973230
v 0.690275 0.031348 2.041782
v 0.690275 0.031348 1.125304
v 1.254402 1.485257 -2.088024
v 0.745103 1.485257 -2.088024
v 0.745103 4.443240 -1.598370
v 1.254402 4.443240 -1.598370
v 1.309229 1.431165 -1.125304
v 1.309229 1.431165 -2.041782
v 1.309229 4.442504 -1.543296
v 1.309229 4.442504 -0.973230
v 1.309229 0.031348 -1.125304
v 1.309229 0.031348 -2.041782
v 1.254402 1.376337 -2.096978
v 1.254402 0.086176 -2.096978
v 0.745103 0.086176 -2.096978
v 0.745103 1.376337 -2.096978
v 1.254402 4.497333 -1.025289
v 1.254402 4.497333 -1.534588
v 0.745103 4.497333 -1.534588
v 0.745103 4.497333 -1.025289
v -1.318249 1.434381 -2.041781
v -1.332598 0.034638 -2.041781
v -1.332598 0.034638 -1.125304
v -1.318249 1.434381 -1.125303
v 0.690275 1.431165 -2.041782
v 0.690275 1.431165 -1.125304
v 0.690275 4.442504 -0.973230
v 0.690275 4.442504 -1.543296
v -0.753598 1.482688 -2.088024
v -1.262869 1.487908 -2.088024
v -1.232548 4.488659 -1.598370
v -0.723277 4.483439 -1.598370
v -0.699327 1.428036 -1.125303
v -0.699327 1.428036 -2.041781
v -0.668459 4.482141 -1.543295
v -0.668459 4.482141 -0.973230
v -0.713676 0.028293 -1.125304
v -0.713676 0.028293 -2.041781
v -0.754714 1.373773 -2.096978
v -0.767939 0.083681 -2.096978
v -1.277211 0.088901 -2.096978
v -1.263986 1.378994 -2.096978
v -0.722723 4.537528 -1.025289
v -0.722723 4.537528 -1.534588
v -1.231994 4.542748 -1.534588
v -1.231994 4.542748 -1.025289
v -1.287381 4.488485 -0.973230
v -1.287381 4.488485 -1.543295
v 0.690275 0.031348 -2.041782
v 0.690275 0.031348 -1.125304
vt -0.855716 -0.612544
vt -0.116384 -0.612544
vt -0.116384 1.002765
vt -0.173450 1.071463
vt -0.798649 1.071463
vt -0.855716 1.002765
vt -0.116384 1.612543
vt -0.855715 1.612544
vt -0.855716 1.140162
vt -0.116384 1.140161
vt -1.448347 -0.736447
vt -1.448347 0.823741
vt -0.731960 0.071597
vt 1.030319 1.071463
vt 0.405119 1.071463
vt 0.348053 1.002765
vt 0.348053 -0.612544
vt 1.087385 -0.612544
vt 1.087385 1.002765
vt 1.087385 1.612543
vt 0.348053 1.612544
vt 0.348053 1.140161
vt 1.087385 1.140161
vt -0.662187 0.836546
vt -0.662187 0.189625
vt 1.499775 0.189624
vt 1.499775 0.836546
vt 0.476081 -0.878974
vt -0.544180 -0.878974
vt -0.544180 -0.986502
vt 0.476081 -0.986502
vt 0.700813 0.823741
vt 0.700813 -0.736447
vt -0.015574 0.071597
vt -0.731960 -0.736447
vt -0.517848 0.096100
vt -0.517848 -0.813396
vt -0.592533 -0.888081
vt -0.747078 -0.888081
vt -0.805546 -0.815178
vt -0.602829 0.096100
vt -0.544180 -0.973474
vt -1.564440 -0.973474
vt -1.564440 -1.169022
vt -0.544180 -1.169022
vt -0.731960 -1.325418
vt -0.731960 -0.869155
vt -1.448347 -0.869155
vt -1.448347 -1.325418
vt -0.081928 -0.802801
vt -0.015574 -0.738030
vt -0.731960 -0.738030
vt -0.665606 -0.802801
vt -0.912782 1.071463
vt -1.087934 1.612544
vt -1.087934 1.140162
vt -1.030868 1.071463
vt -0.015574 -1.325418
vt -0.015574 -0.869155
vt 0.700813 -1.325418
vt 0.700813 -0.869155
vt 1.144451 1.071463
vt 1.262537 1.071463
vt 1.319603 1.140161
vt 1.319603 1.612543
vt -0.015574 -0.736447
vt -0.015574 -0.802801
vt -0.821763 -0.888081
vt 1.496342 -1.169022
vt 0.476081 -1.169022
vt 0.476081 -1.263522
vt 1.496342 -1.263522
vt -1.564440 -1.263522
vt -0.544180 -1.263522
vt 0.700813 -0.802801
vt -1.448347 -0.802801
vt -0.731960 -0.802801
vt 1.496342 -0.973474
vt 0.476081 -0.973474
vt -0.059318 1.071463
vt 0.058768 1.071463
vt 0.115835 1.140161
vt 0.115835 1.612543
vt 0.172901 1.071463
vt 0.290987 1.071463
vt 1.052178 0.382322
vt -1.032117 0.382322
vt -1.032117 -0.028204
vt 1.052177 -0.028205
vt -0.070935 1.287472
vt 2.031944 1.249074
vt 2.018166 1.708307
vt -0.093086 2.025767
vt -1.068898 1.986669
vt -1.046747 1.248375
vt 1.128408 0.382322
vt 1.128408 -0.028205
vt 2.025293 -0.028204
vt 2.025293 0.382322
vt -0.354227 -0.615511
vt -0.354227 -1.026037
vt 0.001018 -1.026037
vt 0.001018 -0.615511
vt 1.093086 1.203909
vt 1.070935 0.465615
vt 2.046747 0.426517
vt 2.068898 1.164812
vt -1.018166 0.886449
vt -1.031944 0.427216
vt 1.084026 -0.072399
vt 1.090292 -0.028205
vt -1.070232 -0.028204
vt -1.037864 -0.072399
vt 1.090293 0.382322
vt 1.084026 0.426517
vt 0.039262 -0.615511
vt 0.007092 -0.571316
vt -0.390540 -1.070232
vt 0.007092 -1.070232
vt -0.390540 -0.571316
vt -1.037864 0.426517
vt 0.039262 -1.026037
vt -0.430971 -0.571316
vt -0.430971 -1.070232
vt -0.392471 -1.026037
vt -0.392471 -0.615511
vt 2.032011 1.210808
vt 1.132641 1.246843
vt -0.132641 2.068701
vt -1.032011 2.032666
vn -1.000000 0.000000 0.000000
vn -0.000000 0.000000 -1.000000
vn 1.000000 -0.000000 0.000000
vn 0.000000 1.000000 0.000000
vn -0.000000 -0.000000 1.000000
vn -0.000000 0.217100 0.976100
vn 0.705000 0.077500 0.705000
vn -0.705000 0.077500 0.705000
vn 0.000000 0.707100 0.707100
vn 0.000000 0.217100 -0.976100
vn 0.705000 0.077500 -0.705000
vn -0.705000 0.077500 -0.705000
vn 0.000000 0.707100 -0.707100
vn 0.000000 0.163300 0.986600
vn -0.999900 0.010200 0.000000
vn -0.999900 0.010300 0.000000
vn 0.001700 0.161000 0.986900
vn 0.999900 -0.010200 -0.000000
vn 0.999900 -0.010100 -0.000000
vn 0.999900 -0.010300 -0.000000
vn 0.010200 0.999900 0.000000
vn -0.999900 0.010100 0.000000
vn -0.677600 0.060300 0.732900
vn -0.550800 0.636500 0.539800
vn 0.677600 0.060300 0.732900
vn 0.550800 0.636500 0.539800
vn -0.677000 0.067200 0.732900
vn -0.544300 0.642200 0.539800
vn 0.678200 0.053300 0.732900
vn 0.557300 0.630900 0.539800
vn -0.704700 0.115900 0.700000
vn -0.707100 0.707100 0.000000
vn 0.707100 0.707100 0.000000
vn 0.704700 0.115900 0.700000
vn 0.000000 0.081900 0.996600
vn 0.000000 0.762700 0.646800
vn 0.000000 -0.709500 0.704700
vn -0.709500 0.000000 0.704700
vn 0.709500 0.000000 0.704700
vn -0.703200 0.121400 0.700600
vn -0.699800 0.714300 0.000000
vn 0.714300 0.699800 0.000000
vn 0.705600 0.107200 0.700500
vn 0.000800 0.081900 0.996600
vn 0.007800 0.762600 0.646800
vn -0.007300 -0.709400 0.704700
vn -0.709400 0.007300 0.704700
vn 0.709400 -0.007300 0.704700
vn 0.000000 0.163300 -0.986600
vn 0.001700 0.161000 -0.986900
vn -0.677600 0.060300 -0.732900
vn -0.550800 0.636500 -0.539800
vn 0.677600 0.060300 -0.732900
vn 0.550800 0.636500 -0.539800
vn -0.677000 0.067200 -0.732900
vn -0.544300 0.642200 -0.539800
vn 0.678200 0.053300 -0.732900
vn 0.557300 0.630900 -0.539800
vn -0.704700 0.115900 -0.700000
vn 0.704700 0.115900 -0.700000
vn 0.000000 0.081900 -0.996600
vn 0.000000 0.762700 -0.646800
vn 0.000000 -0.709500 -0.704700
vn -0.709500 0.000000 -0.704700
vn 0.709500 0.000000 -0.704700
vn -0.703200 0.121400 -0.700600
vn 0.705600 0.107200 -0.700500
vn 0.000800 0.081900 -0.996600
vn 0.007800 0.762600 -0.646800
vn -0.007300 -0.709400 -0.704700
vn -0.709400 0.007300 -0.704700
vn 0.709400 -0.007300 -0.704700
usemtl stone_wall_3_d.001
s 1
f 1/1/1 2/2/1 3/3/1 4/4/1 5/5/1 6/6/1
f 7/7/1 8/8/1 9/9/1 5/5/1 4/4/1 10/10/1
f 3/11/2 2/12/2 11/13/2
f 12/14/3 13/15/3 14/16/3 15/17/3 16/18/3 17/19/3
f 18/20/3 19/21/3 20/22/3 13/15/3 12/14/3 21/23/3
f 16/24/4 15/25/4 2/26/4 1/27/4
f 22/28/4 23/29/4 24/30/4 25/31/4
f 15/32/2 14/33/2 26/34/2
f 17/33/5 16/32/5 22/34/5
f 27/35/5 23/13/5 6/11/5
f 23/36/1 27/37/1 28/38/1 29/39/1 30/40/1 24/41/1
f 28/42/4 31/43/4 32/44/4 29/45/4
f 33/46/5 34/47/5 35/48/5 36/49/5
f 37/50/6 38/51/6 25/34/6 24/13/6 30/52/6 39/53/6
f 31/54/1 9/9/1 8/8/1 36/55/1 35/56/1 32/57/1
f 40/58/5 41/59/5 37/50/5 39/53/5 34/47/5 33/46/5
f 42/60/5 43/61/5 41/59/5 40/58/5
f 18/20/3 21/23/3 44/62/3 45/63/3 43/64/3 42/65/3
f 46/66/5 17/33/5 22/34/5
f 47/38/3 46/37/3 22/36/3 25/41/3 38/40/3 48/39/3
f 41/59/7 48/67/7 38/67/7 37/50/7
f 29/39/8 34/68/8 39/68/8 30/40/8
f 17/19/3 44/62/3 21/23/3 12/14/3
f 31/54/1 6/6/1 5/5/1 9/9/1
f 45/69/9 48/70/9 41/71/9 43/72/9
f 29/45/9 32/44/9 35/73/9 34/74/9
f 17/33/9 46/66/9 47/67/9 44/75/9
f 27/35/9 6/11/9 31/76/9 28/77/9
f 44/78/4 47/79/4 48/70/4 45/69/4
f 26/28/4 49/31/4 50/30/4 11/29/4
f 51/35/2 3/11/2 11/13/2
f 11/36/1 50/41/1 52/40/1 53/39/1 54/38/1 51/37/1
f 54/42/4 53/45/4 55/44/4 56/43/4
f 57/46/2 58/49/2 59/48/2 60/47/2
f 61/50/10 62/53/10 52/52/10 50/13/10 49/34/10 63/51/10
f 56/80/1 55/81/1 59/82/1 58/83/1 7/7/1 10/10/1
f 64/58/2 57/46/2 60/47/2 62/53/2 61/50/2 65/59/2
f 66/60/2 64/58/2 65/59/2 67/61/2
f 19/21/3 66/83/3 67/82/3 68/84/3 69/85/3 20/22/3
f 14/33/2 70/66/2 26/34/2
f 71/38/3 72/39/3 63/40/3 49/41/3 26/36/3 70/37/3
f 65/59/11 61/50/11 63/67/11 72/67/11
f 53/39/12 52/40/12 62/68/12 60/68/12
f 14/16/3 13/15/3 20/22/3 69/85/3
f 56/80/1 10/10/1 4/4/1 3/3/1
f 68/69/13 67/72/13 65/71/13 72/70/13
f 53/45/13 60/74/13 59/73/13 55/44/13
f 14/33/13 69/75/13 71/67/13 70/66/13
f 51/35/13 54/77/13 56/76/13 3/11/13
f 69/78/4 68/69/4 72/70/4 71/79/4
f 23/13/5 22/34/5 16/32/5 1/12/5
f 2/12/2 15/32/2 26/34/2 11/13/2
f 1/12/5 6/11/5 23/13/5
usemtl granite_1_d
f 73/86/14 74/87/14 75/88/14 76/89/14
f 77/90/3 78/91/3 79/92/3 80/93/3
f 77/90/3 80/93/3 81/94/3 82/95/3
f 83/96/5 84/97/5 85/98/5 86/99/5
f 87/100/4 88/101/4 89/102/4 90/103/4
f 91/104/15 92/105/15 93/106/16 94/107/16
f 95/104/1 96/108/1 97/109/1 98/105/1
f 99/86/17 100/87/17 101/88/17 102/89/17
f 103/90/18 104/91/19 105/92/19 106/93/18
f 103/90/18 106/93/18 107/94/20 108/95/20
f 109/96/5 110/97/5 111/98/5 112/99/5
f 113/100/21 114/101/21 115/102/21 116/103/21
f 91/104/15 117/108/22 118/109/22 92/105/15
f 76/89/23 95/110/23 84/111/23
f 75/88/24 89/112/24 96/113/24
f 73/86/25 83/114/25 80/115/25
f 90/103/26 74/116/26 79/117/26
f 102/89/27 91/110/27 110/111/27
f 101/88/28 115/112/28 117/113/28
f 99/86/29 109/114/29 106/115/29
f 116/103/30 100/116/30 105/117/30
f 76/89/31 75/88/31 96/113/31 95/110/31
f 89/102/32 88/101/32 97/118/32 96/119/32
f 87/100/33 90/103/33 79/117/33 78/120/33
f 74/87/34 73/86/34 80/115/34 79/121/34
f 84/97/35 83/96/35 73/86/35 76/89/35
f 90/103/36 89/102/36 75/122/36 74/116/36
f 119/123/37 81/124/37 86/125/37 85/126/37
f 95/104/38 119/107/38 85/127/38 84/128/38
f 81/94/39 80/93/39 83/129/39 86/130/39
f 102/89/40 101/88/40 117/113/40 91/110/40
f 115/102/41 114/101/41 118/118/41 117/119/41
f 113/100/42 116/103/42 105/117/42 104/120/42
f 100/87/43 99/86/43 106/115/43 105/121/43
f 110/97/44 109/96/44 99/86/44 102/89/44
f 116/103/45 115/102/45 101/122/45 100/116/45
f 94/123/46 107/124/46 112/125/46 111/126/46
f 91/104/47 94/107/47 111/127/47 110/128/47
f 107/94/48 106/93/48 109/129/48 112/130/48
f 95/104/1 98/105/1 120/106/1 119/107/1
f 121/86/49 122/89/49 123/88/49 124/87/49
f 125/90/3 126/93/3 127/92/3 128/91/3
f 125/90/3 129/95/3 130/94/3 126/93/3
f 131/96/2 132/99/2 133/98/2 134/97/2
f 135/100/4 136/103/4 137/102/4 138/101/4
f 139/104/15 140/107/16 141/106/16 142/105/15
f 143/104/1 144/105/1 145/109/1 146/108/1
f 147/86/50 148/89/50 149/88/50 150/87/50
f 151/90/18 152/93/18 153/92/19 154/91/19
f 151/90/18 155/95/20 156/94/20 152/93/18
f 157/96/2 158/99/2 159/98/2 160/97/2
f 161/100/21 162/103/21 163/102/21 164/101/21
f 139/104/15 142/105/15 165/109/22 166/108/22
f 122/89/51 134/111/51 143/110/51
f 123/88/52 146/113/52 137/112/52
f 121/86/53 126/115/53 131/114/53
f 136/103/54 127/117/54 124/116/54
f 148/89/55 160/111/55 139/110/55
f 149/88/56 166/113/56 163/112/56
f 147/86/57 152/115/57 157/114/57
f 162/103/58 153/117/58 150/116/58
f 122/89/59 143/110/59 146/113/59 123/88/59
f 137/102/32 146/119/32 145/118/32 138/101/32
f 135/100/33 128/120/33 127/117/33 136/103/33
f 124/87/60 127/121/60 126/115/60 121/86/60
f 134/97/61 122/89/61 121/86/61 131/96/61
f 136/103/62 124/116/62 123/122/62 137/102/62
f 167/123/63 133/126/63 132/125/63 130/124/63
f 143/104/64 134/128/64 133/127/64 167/107/64
f 130/94/65 132/130/65 131/129/65 126/93/65
f 148/89/66 139/110/66 166/113/66 149/88/66
f 163/102/41 166/119/41 165/118/41 164/101/41
f 161/100/42 154/120/42 153/117/42 162/103/42
f 150/87/67 153/121/67 152/115/67 147/86/67
f 160/97/68 148/89/68 147/86/68 157/96/68
f 162/103/69 150/116/69 149/122/69 163/102/69
f 140/123/70 159/126/70 158/125/70 156/124/70
f 139/104/71 160/128/71 159/127/71 140/107/71
f 156/94/72 158/130/72 157/129/72 152/93/72
f 143/104/1 167/107/1 168/106/1 144/105/1
